<?xml version="1.0" standalone="no"?>
<!DOCTYPE svg PUBLIC "-//W3C//DTD SVG 1.1//EN" "http://www.w3.org/Graphics/SVG/1.1/DTD/svg11.dtd" >
<svg>
<metadata>
Created by FontForge 20090914 at Tue May 14 15:24:37 2019
 By www-data
Copyright 1986 by Bitstream Inc., Cambridge, MA 
</metadata>
<defs>
<font id="Charter" horiz-adv-x="7726" >
  <font-face 
    font-family="Charter"
    font-weight="400"
    font-stretch="normal"
    units-per-em="1000"
    panose-1="0 0 0 0 0 0 0 0 0 0"
    ascent="800"
    descent="-200"
    x-height="481"
    cap-height="671"
    bbox="-77 -221.001 1194 963"
    underline-thickness="50"
    underline-position="-55"
    unicode-range="U+0020-U+F002"
  />
<missing-glyph 
 />
    <glyph glyph-name=".notdef" 
 />
    <glyph glyph-name="space" unicode=" " horiz-adv-x="278" 
 />
    <glyph glyph-name="space" unicode="&#xa0;" horiz-adv-x="278" 
 />
    <glyph glyph-name="exclam" unicode="!" horiz-adv-x="338" 
d="M169 105c18.667 0 32.667 -5.83105 42 -17.498s14 -24.834 14 -39.501c0 -14 -4.5 -26.667 -13.5 -38s-23.167 -17 -42.5 -17c-18.667 0 -32.667 5.66699 -42 17s-14 24 -14 38v1.5v1.5c0 13.333 4.66699 25.666 14 36.999s23.333 17 42 17v0zM221 553.002
l-27.999 -382.001h-48l-28 382c-0.666992 8.66699 -1.5 17.667 -2.5 27s-1.5 18.666 -1.5 27.999c0 8.66699 0.666992 17.167 2 25.5s3.66602 15.833 6.99902 22.5c4.66699 8.66699 11.167 15.334 19.5 20.001s17.5 7 27.5 7c3.33301 0 6.5 -0.166992 9.5 -0.5
s5.83301 -1.16602 8.5 -2.49902c15.333 -4.66699 25.5 -14 30.5 -28s7.5 -29 7.5 -45c0 -6 -0.166992 -11.833 -0.5 -17.5s-0.833008 -11.167 -1.5 -16.5c-0.666992 -4 -1.16699 -7.5 -1.5 -10.5s-0.5 -6.16699 -0.5 -9.5v0z" />
    <glyph glyph-name="quotedbl" unicode="&#x22;" horiz-adv-x="331" 
d="M93 422h-16l-31 223c0 1.33301 -0.166992 2.83301 -0.5 4.5s-0.5 3.16699 -0.5 4.5s-0.166992 2.83301 -0.5 4.5s-0.5 3.16699 -0.5 4.5v1.5v1.5c0.666992 12 4 23 10 33s16.333 15 31 15c16 0 26.833 -5.33301 32.5 -16s8.5 -22.667 8.5 -36v-8.5
c0 -3 -0.333008 -5.83301 -1 -8.5l-32 -223v0zM253 422h-15.001l-32 223c0 1.33301 -0.166992 2.66602 -0.5 3.99902s-0.5 3 -0.5 5v4v4c0 18 4.16699 31.5 12.5 40.5s17.5 13.5 27.5 13.5c10.667 0 20.334 -4.5 29.001 -13.5s13 -22.833 13 -41.5v-7.5
c0 -2.33301 -0.333008 -5.16602 -1 -8.49902l-33 -223v0z" />
    <glyph glyph-name="numbersign" unicode="#" horiz-adv-x="745" 
d="M370 710l47 -18l-79 -222h154l80 239l47 -17l-78 -222h139v-47h-154l-50 -146h163v-47h-179l-84 -252l-47 16l81 236h-154l-83 -252l-47 16l82 236h-144v47h159l48 146h-158v47h174l83 240v0zM323 423l-49 -146h149l51 146h-151v0z" />
    <glyph glyph-name="dollar" unicode="$" horiz-adv-x="556" 
d="M260 743l40.998 -0.00195312v-71c22 -0.666992 43.5 -2.16699 64.5 -4.5s41.833 -5.5 62.5 -9.5l21.5 -4l20.5 -4v-156h-45l-15 93l-15 21l-13.5 4l-12.5 4c-11.333 2.66699 -22.5 4.66699 -33.5 6s-22.5 2.33301 -34.5 3v-245c50 -15.333 95.167 -35.166 135.5 -59.499
s60.5 -66.166 60.5 -125.499v-6v-7c-2.66699 -50.667 -23.167 -91 -61.5 -121s-80.166 -49.667 -125.499 -59c-1.33301 -0.666992 -2.83301 -1.16699 -4.5 -1.5s-3.16699 -0.5 -4.5 -0.5v-101h-41v101c-34 1.33301 -67.833 3.83301 -101.5 7.5s-67.167 9.5 -100.5 17.5v168
h46l18 -109l9 -13l10.5 -4l10.5 -4c17.333 -6 34.833 -10.167 52.5 -12.5s36.167 -3.83301 55.5 -4.5v261c-46.667 12.667 -88.667 31.667 -126 57s-56.666 65.333 -57.999 120v1.5v1.5v0.5v1.5c0 54 18.667 95 56 123s80 47 128 57v74v0zM302.998 293.998v-244.001
c31.333 6 57.833 19.333 79.5 40s32.5 48.334 32.5 83.001c0 36 -11.167 62.667 -33.5 80s-48.5 31 -78.5 41v0zM258.998 621.997c-28 -7.33301 -51.333 -20.5 -70 -39.5s-28 -44.167 -28 -75.5v-0.5v-1.5v-1.5v-0.5c0.666992 -30.667 10.667 -54.5 30 -71.5
s42 -30.167 68 -39.5v230v0z" />
    <glyph glyph-name="percent" unicode="%" horiz-adv-x="852" 
d="M671 407c50.667 0 88.332 -21.501 112.999 -64.501s37.334 -90.167 38.001 -141.5v-1.5v-1.5c0.666992 -45.333 -8.16602 -87.666 -26.499 -126.999s-45.833 -64.333 -82.5 -75c-8 -2.66699 -15.667 -4.5 -23 -5.5s-14.666 -1.5 -21.999 -1.5
c-48.667 0 -85.5 21.5 -110.5 64.5s-37.833 90.5 -38.5 142.5v1.5v1.5c-0.666992 52.667 11.666 100.5 36.999 143.5s63.666 64.5 114.999 64.5v0zM668.998 371.999c-26 -0.666992 -44.501 -13.833 -55.501 -39.5s-17.833 -53.834 -20.5 -84.501
c-0.666992 -7.33301 -1.16699 -14.666 -1.5 -21.999s-0.5 -14.333 -0.5 -21c0 -12.667 0.333008 -24.5 1 -35.5s1.33398 -20.167 2.00098 -27.5c0.666992 -6.66699 1.5 -13.667 2.5 -21s2.5 -14.666 4.5 -21.999c4 -18.667 11.167 -35.834 21.5 -51.501
s25.833 -23.5 46.5 -23.5c24.667 0 42.5 10.333 53.5 31s18.5 43.334 22.5 68.001c2 14 3.16699 27.667 3.5 41s0.5 24.666 0.5 33.999s-0.166992 20.666 -0.5 33.999s-1.83301 27 -4.5 41c-3.33301 24.667 -10.5 47.334 -21.5 68.001s-28.833 31 -53.5 31v0zM607.997 671
h61l-428 -671h-60l427 671v0zM180.997 683c50.667 0 88.3301 -21.5 112.997 -64.5s37.334 -90.167 38.001 -141.5v-1.5v-1.5c0.666992 -45.333 -8.16602 -87.833 -26.499 -127.5s-45.833 -65.167 -82.5 -76.5c-8 -2.66699 -15.667 -4.5 -23 -5.5s-14.666 -1.5 -21.999 -1.5
c-48.667 0 -85.667 22.167 -111 66.5s-38 92.833 -38 145.5c0 52 12.5 99.667 37.5 143s63.167 65 114.5 65v0zM178.993 647c-26.667 0 -45.333 -12.833 -56 -38.5s-17.334 -53.834 -20.001 -84.501c-0.666992 -7.33301 -1.16699 -14.666 -1.5 -21.999
s-0.5 -14.333 -0.5 -21c0 -12.667 0.333008 -24.5 1 -35.5s1.33398 -20.167 2.00098 -27.5c0.666992 -6 1.5 -12.667 2.5 -20s2.16699 -14.666 3.5 -21.999c4.66699 -18.667 12.167 -36 22.5 -52s25.833 -24 46.5 -24c24.667 0 42.5 10.167 53.5 30.5s18.5 42.5 22.5 66.5
c2 14.667 3.16699 28.667 3.5 42s0.5 24.666 0.5 33.999s-0.166992 20.666 -0.5 33.999s-1.5 27 -3.5 41c-4 24.667 -11.5 47.334 -22.5 68.001s-28.833 31 -53.5 31v0z" />
    <glyph glyph-name="ampersand" unicode="&#x26;" horiz-adv-x="704" 
d="M311 357l171.999 -185.997c12.667 18.667 23.834 37.667 33.501 57s17.167 39.666 22.5 60.999l-18 19l-55 8v41h203v-41l-72 -10c-9.33301 -28.667 -19.833 -55.667 -31.5 -81s-25.5 -50 -41.5 -74c-2 -2.66699 -3.66699 -5.16699 -5 -7.5s-3 -4.83301 -5 -7.5l78 -90
l91 -5v-41h-176v24l-45 50c-22 -17.333 -44.667 -33.333 -68 -48s-48.666 -24.667 -75.999 -30c-4.66699 -1.33301 -9.16699 -2.33301 -13.5 -3l-12.5 -2c-4.66699 0 -9.16699 -0.166992 -13.5 -0.5s-8.83301 -0.5 -13.5 -0.5c-24.667 0 -48.667 3.5 -72 10.5
s-45 17.833 -65 32.5c-24 18 -42.5 40.667 -55.5 68s-19.5 55.666 -19.5 84.999c0 6.66699 0.5 13.167 1.5 19.5s1.83301 12.5 2.5 18.5c7.33301 35.333 23 63.833 47 85.5s51 39.834 81 54.501c-20.667 22 -39.5 45.5 -56.5 70.5s-25.5 52.833 -25.5 83.5
c0 4 0.166992 8.16699 0.5 12.5s0.833008 8.83301 1.5 13.5c8 44.667 30.167 78.667 66.5 102s75.166 35.333 116.499 36h2h2c7.33301 0 14.166 -0.166992 20.499 -0.5s12.833 -1.16602 19.5 -2.49902c36.667 -6 66.667 -23.833 90 -53.5s35 -62.167 35 -97.5v-8
c0 -2.66699 -0.333008 -5.33398 -1 -8.00098c0 -2.66699 -0.166992 -5.33398 -0.5 -8.00098s-0.833008 -5.33398 -1.5 -8.00098c-7.33301 -32 -22.666 -57.5 -45.999 -76.5s-48.333 -35.833 -75 -50.5l-11.5 -6l-10.5 -6v0zM222.999 335.003
c-16.667 -12 -31.832 -25.334 -45.499 -40.001s-23.167 -32.667 -28.5 -54c-1.33301 -6 -2.33301 -12 -3 -18s-1 -12 -1 -18c0 -16 2 -31.5 6 -46.5s10.333 -29.167 19 -42.5c13.333 -20.667 30.333 -37.167 51 -49.5s43.334 -18.5 68.001 -18.5h3.5h2.5
c26 0.666992 49.167 5.83398 69.5 15.501s39.833 22.5 58.5 38.5c1.33301 0.666992 2.66602 1.5 3.99902 2.5s2.66602 2.16699 3.99902 3.5l-208 227v0zM276.001 390.002c26.667 13.333 49.6689 30.3379 69.002 51.0049s29 46.667 29 78v4v4
c-1.33301 29.333 -9.83301 55.166 -25.5 77.499s-39.834 33.166 -72.501 32.499c-27.333 -0.666992 -49.5 -10.5 -66.5 -29.5s-25.5 -41.833 -25.5 -68.5v-3.5v-3.5c1.33301 -26.667 9.66602 -49.834 24.999 -69.501s32 -38.5 50 -56.5
c2.66699 -2.66699 5.5 -5.33398 8.5 -8.00098s5.83301 -5.33398 8.5 -8.00098v0z" />
    <glyph glyph-name="quotesingle" unicode="'" horiz-adv-x="201" 
d="M74 442h-42.998l9.5 11c3 3.33301 5.83301 7 8.5 11c16.667 20.667 31 41.834 43 63.501s18 45.834 18 72.501v4.5v5.5c0 1.33301 -0.166992 2.83301 -0.5 4.5s-0.5 3.16699 -0.5 4.5h-65c-4 6.66699 -7 13 -9 19s-3 12 -3 18c0 16 5.66699 29.5 17 40.5
s25.666 16.5 42.999 16.5c2.66699 0 5.33398 -0.166992 8.00098 -0.5s5.33398 -0.833008 8.00098 -1.5c1.33301 0 2.66602 -0.166992 3.99902 -0.5s2.66602 -0.833008 3.99902 -1.5c16.667 -4.66699 29.167 -14.334 37.5 -29.001s13.5 -30 15.5 -46v-5.5v-5.5v-2v-1v-2v-2
c-0.666992 -34.667 -10.834 -66.334 -30.501 -95.001s-41.167 -55 -64.5 -79v0z" />
    <glyph glyph-name="parenleft" unicode="(" horiz-adv-x="417" 
d="M386 718l0.00390625 -42c-62.667 -10 -107.334 -39.833 -134.001 -89.5s-44 -103.5 -52 -161.5c-3.33301 -21.333 -5.66602 -42.666 -6.99902 -63.999s-2 -41.666 -2 -60.999c0 -21.333 0.333008 -44 1 -68s2.66699 -48.333 6 -73
c7.33301 -59.333 24.666 -114.333 51.999 -165s72.666 -81.334 135.999 -92.001v-43c-30.667 3.33301 -58.834 10.833 -84.501 22.5s-50.167 28.167 -73.5 49.5c-42.667 39.333 -72.834 85.833 -90.501 139.5s-27.834 108.834 -30.501 165.501c-0.666992 10 -1 20.333 -1 31
v32v4v4c1.33301 67.333 11.333 132.666 30 195.999s56 116.666 112 159.999c20.667 16 42.334 28.5 65.001 37.5s47 14.833 73 17.5v0z" />
    <glyph glyph-name="parenright" unicode=")" horiz-adv-x="417" 
d="M31 718c30 -3.33301 58.001 -10.8281 84.001 -22.4951s50.333 -27.834 73 -48.501c43.333 -40 73.666 -87.167 90.999 -141.5s27.666 -109.833 30.999 -166.5c0 -6.66699 0.166992 -13.334 0.5 -20.001s0.5 -13.334 0.5 -20.001c0 -11.333 -0.166992 -22.833 -0.5 -34.5
s-0.833008 -23.167 -1.5 -34.5c-4 -60 -16 -118 -36 -174s-54.667 -103 -104 -141c-4.66699 -4 -9.5 -7.66699 -14.5 -11s-9.83301 -6.33301 -14.5 -9c-16.667 -10 -33.667 -17.833 -51 -23.5s-36.666 -9.5 -57.999 -11.5v41c63.333 11.333 108.5 42.333 135.5 93
s44.167 105.667 51.5 165c3.33301 24.667 5.33301 49 6 73s1 46.667 1 68c0 19.333 -0.666992 39.666 -2 60.999s-3.33301 42.666 -6 63.999c-8 58 -25.5 111.833 -52.5 161.5s-71.5 79.5 -133.5 89.5v42v0z" />
    <glyph glyph-name="asterisk" unicode="*" horiz-adv-x="500" 
d="M234 491l10 -7l-46 -121l-68 -25l4 72l100 81v0zM266 491l99 -81l4 -72l-67 26l-47 120l11 7v0zM123 589l109 -70l-4 -12l-129 8l-45 56l69 18v0zM377 589l70 -18l-46 -56l-128 -8l-4 13l108 69v0zM250 718l39 -61l-32 -125h-14l-32 125l39 61v0z" />
    <glyph glyph-name="plus" unicode="+" horiz-adv-x="833" 
d="M388 596h58v-269h263v-57h-263v-270h-58v270h-264v57h264v269v0z" />
    <glyph glyph-name="comma" unicode="," horiz-adv-x="278" 
d="M39 -168l-0.000976562 33c38.667 9.33301 66.667 24.666 84 45.999s26 51 26 89v3.5v3.5h-64c-5.33301 7.33301 -9.33301 14.333 -12 21s-4 13.334 -4 20.001c-0.666992 17.333 5.5 31.666 18.5 42.999s27.833 17 44.5 17h5.5c1.66699 0 3.5 -0.333008 5.5 -1
c7.33301 -1.33301 14.5 -3.83301 21.5 -7.5s13.5 -9.16699 19.5 -16.5c8.66699 -10 14.834 -21 18.501 -33s5.5 -24.667 5.5 -38v-8c0 -2.66699 -0.333008 -5.66699 -1 -9c-1.33301 -14.667 -4.66602 -29 -9.99902 -43s-11.666 -26.667 -18.999 -38
c-16.667 -25.333 -36.834 -44.166 -60.501 -56.499s-49.834 -20.5 -78.501 -24.5v-1z" />
    <glyph glyph-name="hyphen" unicode="-" horiz-adv-x="319" 
d="M47 274h225v-67h-225v67v0z" />
    <glyph glyph-name="period" unicode="." horiz-adv-x="278" 
d="M139 118c20.667 0 36.1641 -6.5 46.4971 -19.5s15.5 -27.167 15.5 -42.5c0.666992 -16 -4.16602 -30.5 -14.499 -43.5s-26.166 -19.5 -47.499 -19.5c-20.667 0 -36.167 6.33301 -46.5 19s-15.5 26.667 -15.5 42c-0.666992 16 4.33301 30.667 15 44s26.334 20 47.001 20v0
z" />
    <glyph glyph-name="slash" unicode="/" horiz-adv-x="481" 
d="M399 671h61l-428 -763h-59l426 763v0z" />
    <glyph glyph-name="zero" unicode="0" horiz-adv-x="556" 
d="M278 683c74 0 128.499 -26.833 163.499 -80.5s57.5 -112.5 67.5 -176.5c2 -15.333 3.5 -30.5 4.5 -45.5s1.5 -29.833 1.5 -44.5c0 -15.333 -0.5 -31.5 -1.5 -48.5s-2.83301 -33.833 -5.5 -50.5c-8 -51.333 -24.5 -99.666 -49.5 -144.999s-63.167 -76 -114.5 -92
c-12.667 -3.33301 -25.167 -6 -37.5 -8s-24.166 -3 -35.499 -3c-68 -0.666992 -120.833 27 -158.5 83s-60.167 118 -67.5 186c-0.666992 3.33301 -1.16699 6.83301 -1.5 10.5s-0.5 7.16699 -0.5 10.5c-0.666992 8.66699 -1.16699 17.5 -1.5 26.5s-0.5 17.833 -0.5 26.5
c0 12.667 0.333008 25.667 1 39s1.66699 26.666 3 39.999c8 68 29.5 130.167 64.5 186.5s91.167 84.833 168.5 85.5v0zM277.999 636c-45.333 -0.666992 -78.167 -21.002 -98.5 -61.002s-33.166 -84 -38.499 -132c-2.66699 -17.333 -4.33398 -34.333 -5.00098 -51
s-1 -32.667 -1 -48c-0.666992 -11.333 -0.833984 -22 -0.500977 -32s0.833008 -19 1.5 -27c0.666992 -12 1.5 -24.167 2.5 -36.5s2.5 -24.833 4.5 -37.5c3.33301 -24 8.83301 -47.667 16.5 -71s18.5 -44.333 32.5 -63c10.667 -12.667 23.5 -22.667 38.5 -30
s30.833 -11 47.5 -11c6 0 12 0.5 18 1.5s12 2.5 18 4.5c30.667 12 53.334 34 68.001 66s24.667 66.333 30 103c3.33301 22.667 5.5 44.834 6.5 66.501s1.5 40.834 1.5 57.501s-0.333008 36.167 -1 58.5s-3 45.5 -7 69.5c-6 42.667 -18.833 82.167 -38.5 118.5
s-51.5 54.5 -95.5 54.5v0z" />
    <glyph glyph-name="one" unicode="1" horiz-adv-x="556" 
d="M311 683h28v-620l12 -16l108 -5v-42h-335v43l115 6l12 17v538l-157 -28v42l217 65v0z" />
    <glyph glyph-name="two" unicode="2" horiz-adv-x="556" 
d="M141 79l300.998 0.00292969l18 85h45v-164h-463v63l16.5 14l17.5 14l83.5 69c27.667 23.333 54.5 47.333 80.5 72l5.5 5.5c1.66699 1.66699 3.5 3.16699 5.5 4.5c34 32.667 65 68.5 93 107.5s42 82.833 42 131.5c0.666992 49.333 -11.666 86.666 -36.999 111.999
s-56.666 38 -93.999 38c-14.667 0 -29.667 -1.83301 -45 -5.5s-30.666 -9.5 -45.999 -17.5v-107c-8.66699 -5.33301 -17 -9.33301 -25 -12s-15.667 -4 -23 -4c-16 -0.666992 -28.667 4.66602 -38 15.999s-14 25.333 -14 42c0 6.66699 0.833008 13.667 2.5 21s4.5 15 8.5 23
c8 15.333 20.667 30.333 38 45s40.666 26.667 69.999 36c10 3.33301 20.167 6.16602 30.5 8.49902s20.833 3.83301 31.5 4.5c5.33301 0.666992 10.5 1.16699 15.5 1.5s10.167 0.5 15.5 0.5c53.333 0 100.833 -14.833 142.5 -44.5s63.167 -75.834 64.5 -138.501v-3v-4
c0 -41.333 -10.667 -79.166 -32 -113.499s-46.333 -66.166 -75 -95.499c-36.667 -36.667 -74.667 -71.834 -114 -105.501l-121 -99.5v0z" />
    <glyph glyph-name="three" unicode="3" horiz-adv-x="556" 
d="M317 353c23.333 -2.66699 46.001 -7.16699 68.001 -13.5s41.333 -17.5 58 -33.5c16 -14.667 28 -31.834 36 -51.501s12 -40.167 12 -61.5v-10.5c0 -3.66699 -0.333008 -7.16699 -1 -10.5c-7.33301 -58 -34.166 -101.667 -80.499 -131s-96.5 -45.666 -150.5 -48.999
c-3.33301 -0.666992 -6.83301 -1 -10.5 -1h-10.5c-12.667 0 -25.167 0.5 -37.5 1.5s-24.5 3.16699 -36.5 6.5c-30 6.66699 -54.167 16.334 -72.5 29.001s-31.5 26 -39.5 40c-3.33301 6 -5.83301 11.833 -7.5 17.5s-2.5 11.167 -2.5 16.5c0 13.333 4.66699 24.666 14 33.999
s22.333 14 39 14c5.33301 0 10.5 -0.333008 15.5 -1s10.5 -2 16.5 -4l31 -85c14 -7.33301 28.5 -13 43.5 -17s29.833 -6 44.5 -6c27.333 0 52.833 6.5 76.5 19.5s42.834 32.833 57.501 59.5c5.33301 9.33301 9.66602 19.166 12.999 29.499s5.33301 20.5 6 30.5
c0.666992 2.66699 1 5.33398 1 8.00098v8c0 21.333 -4.5 41.666 -13.5 60.999s-23.5 34.666 -43.5 45.999c-12.667 7.33301 -26.167 12.5 -40.5 15.5s-28.833 4.5 -43.5 4.5c-10 0 -20 -0.333008 -30 -1s-20 -1.66699 -30 -3v59h3.5h3.5h3h3c23.333 0 46.333 2.33301 69 7
s42.667 15.334 60 32.001c12 12 20.667 25.667 26 41s8.33301 31.333 9 48c0 8 -0.666992 15.833 -2 23.5s-3 15.167 -5 22.5c-8.66699 29.333 -23.667 50.5 -45 63.5s-45 19.833 -71 20.5c-4 0 -8.16699 -0.166992 -12.5 -0.5s-8.83301 -0.833008 -13.5 -1.5
c-12.667 -2 -25.334 -5.33301 -38.001 -10s-24.667 -10.334 -36 -17.001v-94c-7.33301 -5.33301 -14.5 -9.16602 -21.5 -11.499s-13.833 -3.5 -20.5 -3.5c-15.333 0 -27.833 5.66699 -37.5 17s-14.5 25 -14.5 41c0 6 0.666992 12.167 2 18.5s3.66602 12.833 6.99902 19.5
c8 17.333 22.667 33.833 44 49.5s51 27.834 89 36.501c10 2 20.333 3.66699 31 5s21.334 2 32.001 2h5.5h5.5c48 -2 91.833 -15.5 131.5 -40.5s59.5 -64.5 59.5 -118.5v-3.5v-4.5c-2.66699 -47.333 -17.834 -83 -45.501 -107s-62.167 -42.667 -103.5 -56v0z" />
    <glyph glyph-name="four" unicode="4" horiz-adv-x="556" 
d="M368 677h58v-418h113v-65h-113v-230h-77v230h-322v65l341 418v0zM349 568l-247 -309h247v309v0z" />
    <glyph glyph-name="five" unicode="5" horiz-adv-x="556" 
d="M101 671l358.004 -0.00195312v-78h-296v-200c20 5.33301 39 9 57 11s35.333 3 52 3c73.333 0 127.833 -19.333 163.5 -58s53.5 -82.334 53.5 -131.001v-10c0 -3.33301 -0.333008 -6.66602 -1 -9.99902c-4 -42 -20.5 -81.667 -49.5 -119s-70.5 -63.333 -124.5 -78
c-10.667 -2.66699 -23.334 -4.66699 -38.001 -6s-30.334 -2 -47.001 -2c-5.33301 0 -10.833 0.166992 -16.5 0.5s-11.167 0.5 -16.5 0.5c-32.667 2.66699 -63 9.66699 -91 21s-45.667 29.666 -53 54.999c-0.666992 3.33301 -1.16699 6.33301 -1.5 9
s-0.5 5.33398 -0.5 8.00098c-0.666992 17.333 5.5 30 18.5 38s27.5 12 43.5 12c3.33301 0 6.66602 -0.166992 9.99902 -0.5s6.66602 -0.833008 9.99902 -1.5l40 -86c11.333 -3.33301 22.333 -6 33 -8s21.334 -3 32.001 -3c44 -0.666992 81.667 12.833 113 40.5
s47.333 64.834 48 111.501c0 6.66699 -0.333008 13.167 -1 19.5s-1.66699 12.833 -3 19.5c-8 44.667 -30.167 75.334 -66.5 92.001s-75.5 25.667 -117.5 27h-8h-8c-16.667 0 -32.834 -0.666992 -48.501 -2s-30.5 -3 -44.5 -5v330v0z" />
    <glyph glyph-name="six" unicode="6" horiz-adv-x="556" 
d="M443 714l0.00292969 -57.998c-91.333 -2.66699 -158.833 -27.167 -202.5 -73.5s-74.834 -112.166 -93.501 -197.499c23.333 16.667 48.666 30.167 75.999 40.5s55 16.5 83 18.5h7.5h7.5c30 0 59.167 -6.16699 87.5 -18.5s52.833 -32.833 73.5 -61.5
c12.667 -17.333 22.667 -35.833 30 -55.5s11.666 -39.167 12.999 -58.5c0.666992 -3.33301 1 -6.66602 1 -9.99902v-10c0 -52.667 -16.333 -101.334 -49 -146.001s-76.667 -73.334 -132 -86.001c-10 -2.66699 -20 -4.66699 -30 -6s-20.333 -2 -31 -2
c-26 0 -51.5 4.33301 -76.5 13s-47.833 21.667 -68.5 39c-32.667 28.667 -55.5 62.667 -68.5 102s-19.833 79.666 -20.5 120.999v4.5v4.5c0 10 0.333008 20 1 30l2 29c8.66699 112 48.5 201.667 119.5 269s161.167 104.666 270.5 111.999v0zM145.003 340.002
c-0.666992 -10.667 -1.16504 -21.668 -1.49805 -33.001s-0.5 -22.666 -0.5 -33.999c0 -6.66699 0.166992 -13.5 0.5 -20.5s0.5 -14.167 0.5 -21.5c2 -36 9 -70.333 21 -103s33.333 -58 64 -76c10.667 -6 21.167 -10.333 31.5 -13s20.166 -4 29.499 -4
c29.333 0 55.833 10 79.5 30s40.834 45 51.501 75c4 12 7.16699 24.667 9.5 38s3.5 27 3.5 41v4.5v4.5c-1.33301 30 -8.5 58.5 -21.5 85.5s-33.833 46.833 -62.5 59.5c-6.66699 3.33301 -13.834 5.83301 -21.501 7.5s-15.167 3.16699 -22.5 4.5
c-3.33301 0 -6.83301 0.166992 -10.5 0.5s-7.5 0.5 -11.5 0.5h-6.5h-6.5c-22.667 -2 -44.834 -7.16699 -66.501 -15.5s-41.5 -18.5 -59.5 -30.5v0z" />
    <glyph glyph-name="seven" unicode="7" horiz-adv-x="556" 
d="M71 671h460v-40l-332 -645v-22h-83l326 631h-308l-16 -91h-47v167v0z" />
    <glyph glyph-name="eight" unicode="8" horiz-adv-x="556" 
d="M363 351c39.333 -14.667 72.999 -35.499 100.999 -62.499s42 -62.167 42 -105.5v-10.5c0 -3.66699 -0.333008 -7.5 -1 -11.5c-3.33301 -30.667 -14.333 -58.834 -33 -84.501s-41.334 -46.167 -68.001 -61.5c-19.333 -10 -39.833 -17.167 -61.5 -21.5
s-43.5 -6.5 -65.5 -6.5h-4.5h-4.5c-59.333 0.666992 -111.5 16.834 -156.5 48.501s-67.833 78.5 -68.5 140.5v4c0 1.33301 0.333008 2.66602 1 3.99902v4v4c3.33301 41.333 18.333 74.333 45 99s57.334 44.334 92.001 59.001c-20 10 -38 21.5 -54 34.5
s-28.667 29.833 -38 50.5c-4.66699 11.333 -8 22.666 -10 33.999s-3 23 -3 35c0 4 0.166992 8 0.5 12s0.833008 8.33301 1.5 13c0 4 0.5 8 1.5 12s1.83301 8 2.5 12c10.667 42 34.167 73.833 70.5 95.5s74.833 33.834 115.5 36.501h7.5h7.5h4.5h4.5
c60 -2 105.833 -19.333 137.5 -52s47.5 -69.667 47.5 -111c0 -5.33301 -0.166992 -10.5 -0.5 -15.5s-1.16602 -10.167 -2.49902 -15.5c-4.66699 -26.667 -16.167 -52.334 -34.5 -77.001s-43.833 -45.667 -76.5 -63v0zM218.999 329.001
c-28.667 -17.333 -52.167 -36.6689 -70.5 -58.002s-27.5 -50.666 -27.5 -87.999c0 -46.667 15.333 -82.834 46 -108.501s67.334 -38.5 110.001 -38.5h4c1.33301 0 2.66602 0.333008 3.99902 1h4h4c37.333 2 68 15.833 92 41.5s35.667 56.834 35 93.501
c-0.666992 34.667 -14 61.667 -40 81s-54.667 35 -86 47c-10.667 4.66699 -21.5 8.83398 -32.5 12.501s-21.167 7.5 -30.5 11.5c-2 0.666992 -4 1.5 -6 2.5s-4 1.83301 -6 2.5v0zM320.999 368.998c21.333 14.667 38.335 31.834 51.002 51.501s21 39.5 25 59.5
c1.33301 6 2.33301 11.833 3 17.5s1 11.167 1 16.5c0 33.333 -10 62.166 -30 86.499s-49.333 36.833 -88 37.5h-3.5h-3.5c-1.33301 -0.666992 -2.5 -1 -3.5 -1h-3.5c-30.667 -2.66699 -56.667 -15.167 -78 -37.5s-32 -48.833 -32 -79.5v-2v-1v-2v-2
c1.33301 -32.667 13.666 -58.5 36.999 -77.5s49 -34.5 77 -46.5c8 -4 16.167 -7.66699 24.5 -11s16.166 -6.33301 23.499 -9v0z" />
    <glyph glyph-name="nine" unicode="9" horiz-adv-x="556" 
d="M126 -51l-22.9971 46.001c2.66699 2 5.16699 3.5 7.5 4.5s4.83301 1.83301 7.5 2.5c64.667 32.667 119.834 68.167 165.501 106.5s83.834 91.833 114.501 160.5c-28.667 -12.667 -55.834 -21.834 -81.501 -27.501s-49.5 -8.5 -71.5 -8.5
c-66.667 -0.666992 -116.834 20.666 -150.501 63.999s-50.5 91.666 -50.5 144.999v6.5v7.5c3.33301 56 24.666 107.5 63.999 154.5s97 70.5 173 70.5c7.33301 0 14.833 -0.166992 22.5 -0.5s15.5 -1.16602 23.5 -2.49902c67.333 -8.66699 114.666 -37.167 141.999 -85.5
s41 -101.833 41 -160.5v-13.5c0 -4.33301 -0.333008 -8.83301 -1 -13.5c-1.33301 -26.667 -5 -53 -11 -79s-14 -50 -24 -72c-32.667 -74.667 -80.334 -137.167 -143.001 -187.5s-131 -89.166 -205 -116.499v-1zM411.003 319.001c4 18 7.16211 36.334 9.49512 55.001
s3.5 37.334 3.5 56.001c0 17.333 -1.16699 34.666 -3.5 51.999s-6.16602 34.333 -11.499 51c-10.667 30.667 -28.167 55.5 -52.5 74.5s-51.166 28.5 -80.499 28.5c-5.33301 0 -10.666 -0.333008 -15.999 -1s-10.666 -2 -15.999 -4c-8 -2 -16 -5.16699 -24 -9.5
s-15.667 -9.5 -23 -15.5c-20 -16.667 -35.333 -38.834 -46 -66.501s-16 -56.167 -16 -85.5c-0.666992 -42.667 11 -81.5 35 -116.5s61.333 -52.5 112 -52.5c18 0 37.833 2.66699 59.5 8s44.834 14 69.501 26v0z" />
    <glyph glyph-name="colon" unicode=":" horiz-adv-x="319" 
d="M160 118c20.667 0 35.998 -6.5 45.998 -19.5s15 -27.167 15 -42.5c0.666992 -16 -4.16602 -30.5 -14.499 -43.5s-25.833 -19.5 -46.5 -19.5s-36.167 6.33301 -46.5 19s-15.833 26.667 -16.5 42c0 16 5.33301 30.667 16 44s26.334 20 47.001 20v0zM159.998 481
c20.667 0 35.9971 -6.50098 45.9971 -19.501s15 -27.5 15 -43.5c0.666992 -16 -4.16602 -30.667 -14.499 -44s-25.833 -20 -46.5 -20c-20 0 -35.167 6.33301 -45.5 19s-16.166 26.334 -17.499 41.001v1.5v1.5c0 16 5.33301 30.667 16 44s26.334 20 47.001 20v0z" />
    <glyph glyph-name="semicolon" unicode=";" horiz-adv-x="319" 
d="M65 -168v33.001c38 9.33301 65.833 24.666 83.5 45.999s26.5 51 26.5 89v3.5v3.5h-65c-5.33301 7.33301 -9.33301 14.333 -12 21s-4 13.334 -4 20.001c-0.666992 17.333 5.5 31.666 18.5 42.999s27.833 17 44.5 17h5.5c1.66699 0 3.5 -0.333008 5.5 -1
c7.33301 -1.33301 14.5 -3.83301 21.5 -7.5s13.5 -9.16699 19.5 -16.5c9.33301 -10 15.833 -21.167 19.5 -33.5s5.5 -25.166 5.5 -38.499v-5.5v-5.5c-1.33301 -14.667 -4.83301 -29.667 -10.5 -45s-12.5 -29 -20.5 -41c-16 -24.667 -36 -43.334 -60 -56.001s-50 -21 -78 -25
v-1zM160 481.001c20.667 0 35.9971 -6.50098 45.9971 -19.501s15 -27.5 15 -43.5c0.666992 -16 -4.16602 -30.667 -14.499 -44s-25.833 -20 -46.5 -20c-20 0 -35.167 6.33301 -45.5 19s-16.166 26.334 -17.499 41.001v1.5v1.5c0 16 5.33301 30.667 16 44
s26.334 20 47.001 20v0z" />
    <glyph glyph-name="less" unicode="&#x3c;" horiz-adv-x="833" 
d="M704 559v-62l-488 -199l488 -198v-63l-575 236v50l575 236v0z" />
    <glyph glyph-name="equal" unicode="=" horiz-adv-x="833" 
d="M124 233h585v-57h-585v57v0zM124 420h585v-57h-585v57v0z" />
    <glyph glyph-name="greater" unicode="&#x3e;" horiz-adv-x="833" 
d="M129 559l575 -236v-50l-575 -236v63l488 198l-488 199v62v0z" />
    <glyph glyph-name="question" unicode="?" horiz-adv-x="486" 
d="M200 105c19.333 0 33.666 -5.83105 42.999 -17.498s14 -24.834 14 -39.501c0 -14 -4.66699 -26.667 -14 -38s-23.666 -17 -42.999 -17c-18 0 -31.5 5.66699 -40.5 17s-13.833 24 -14.5 38v1.5v1.5c0.666992 13.333 5.5 25.666 14.5 36.999s22.5 17 40.5 17v0z
M227 288.002l0.00683594 -117.002h-53v146c27.333 11.333 52.5 24.833 75.5 40.5s40.833 37.167 53.5 64.5c4 8.66699 7.33301 18 10 28s4.33398 20 5.00098 30c0.666992 2.66699 1 5.16699 1 7.5v7.5c0 7.33301 -0.5 14.333 -1.5 21s-2.16699 13.334 -3.5 20.001
c-7.33301 37.333 -23.833 63.333 -49.5 78s-55.834 22.334 -90.501 23.001l-41 -99h-3.5h-3.5c-0.666992 -0.666992 -1.5 -1 -2.5 -1h-3.5c-22.667 0 -39.334 4.83301 -50.001 14.5s-16 21.167 -16 34.5c0 4 0.333008 8.16699 1 12.5s2 8.5 4 12.5
c5.33301 13.333 15.166 26 29.499 38s32.166 20.667 53.499 26c5.33301 1.33301 10.666 2.5 15.999 3.5s10.666 1.83301 15.999 2.5s10.666 1.16699 15.999 1.5s10.666 0.5 15.999 0.5c51.333 0 97.5 -14.5 138.5 -43.5s62.833 -72.167 65.5 -129.5v-2v-1v-2v-2
c0 -56.667 -19 -101.167 -57 -133.5s-80 -59.5 -126 -81.5v0z" />
    <glyph glyph-name="at" unicode="@" horiz-adv-x="586" 
d="M67 671h468v-42l-381 -580h302l11 14l18 118h54v-181h-494v41l379 582h-267l-19 -13l-16 -94h-55v155v0zM150 932h55l87 -141l88 141h54l-110 -190h-64l-110 190v0z" />
    <glyph glyph-name="A" unicode="A" horiz-adv-x="639" 
d="M284 679h66l240 -626l61 -12v-41h-228v41l62 5l7 14l-72 191h-236l-71 -191l10 -14l65 -5v-41h-195v41l57 12l234 626v0zM300 574l-99 -277h202l-103 277v0z" />
    <glyph glyph-name="B" unicode="B" horiz-adv-x="604" 
d="M33 671h254.998h11.5h11.5c51.333 -2 98.5 -13.5 141.5 -34.5s64.5 -63.167 64.5 -126.5c0 -45.333 -14.5 -79.333 -43.5 -102s-62.833 -40 -101.5 -52c52.667 -2.66699 96.5 -15.5 131.5 -38.5s53.167 -64.167 54.5 -123.5v-2.5v-3.5c0 -62.667 -22.667 -108 -68 -136
s-95 -44.667 -149 -50c-7.33301 -0.666992 -14.666 -1.16699 -21.999 -1.5s-14.666 -0.5 -21.999 -0.5h-264v41l57 5l17 14v551l-17 14l-57 6v40v0zM196.998 50c10.667 -0.666992 21.5 -1.16602 32.5 -1.49902s22.167 -0.5 33.5 -0.5h6.5h7.5
c45.333 0.666992 87.166 9.66699 125.499 27s57.5 54.666 57.5 111.999c0 56.667 -17.167 93.5 -51.5 110.5s-73.166 25.5 -116.499 25.5h-12c-4 0 -8 -0.333008 -12 -1c-12 0 -24 -0.5 -36 -1.5s-23.667 -2.16699 -35 -3.5v-267v0zM196.998 367.001h6.00098h6h5h6h6.5h6.5
c46.667 0.666992 89.334 9 128.001 25s57.667 53.667 57 113c-1.33301 51.333 -19 84.333 -53 99s-71.667 22 -113 22h-14c-4.66699 0 -9 -0.333008 -13 -1c-4.66699 0 -9.33398 -0.166992 -14.001 -0.5s-9.33398 -0.5 -14.001 -0.5v-257v0z" />
    <glyph glyph-name="C" unicode="C" horiz-adv-x="632" 
d="M588 23c-31.333 -10.667 -63.6709 -18.8301 -97.0039 -24.4971s-66.666 -8.5 -99.999 -8.5h-7.5h-7.5c-98 2 -177.667 35.833 -239 101.5s-92.666 147.167 -93.999 244.5c-1.33301 100 30.334 182.667 95.001 248s146.667 98.333 246 99
c34.667 0.666992 69 -2.5 103 -9.5s67.667 -15.167 101 -24.5v-154h-56l-15 91l-13 18c-20.667 9.33301 -41 16.166 -61 20.499s-39.667 6.5 -59 6.5c-70 0 -127.167 -27.167 -171.5 -81.5s-66.5 -124.5 -66.5 -210.5c0 -90.667 23.333 -162.834 70 -216.501
s108.334 -80.834 185.001 -81.501c14.667 0 29.667 1 45 3s31.333 5.33301 48 10l16 16l24 111h54v-158v0z" />
    <glyph glyph-name="D" unicode="D" horiz-adv-x="693" 
d="M280 671l10.498 0.00195312h10.5c44.667 -1.33301 88.667 -8.16602 132 -20.499s82 -34.166 116 -65.499c34.667 -32.667 59.834 -70.834 75.501 -114.501s23.834 -88.834 24.501 -135.501c-0.666992 -52.667 -10.834 -103.334 -30.501 -152.001
s-51.167 -88.667 -94.5 -120c-36.667 -26.667 -75.667 -43.834 -117 -51.501s-83.666 -11.5 -126.999 -11.5h-247v41l57 5l17 14v551l-17 14l-57 6v40h247v0zM196.998 625.002v-578.999h12.5h12.5h12.5h13.5c31.333 0 62.333 1.83301 93 5.5s60 12.834 88 27.501
c39.333 21.333 67.666 51.166 84.999 89.499s28 78.5 32 120.5c0.666992 8 1.16699 15.833 1.5 23.5s0.5 15.5 0.5 23.5s-0.166992 16.167 -0.5 24.5s-0.833008 16.833 -1.5 25.5c-4.66699 41.333 -15.667 81.166 -33 119.499s-45.666 67.833 -84.999 88.5
c-26 14 -53.333 22.833 -82 26.5s-57.334 5.5 -86.001 5.5c-5.33301 0 -10.666 -0.166992 -15.999 -0.5s-10.333 -0.5 -15 -0.5h-16h-16v0z" />
    <glyph glyph-name="E" unicode="E" horiz-adv-x="576" 
d="M33 0v41l57 5l17 14v551l-17 14l-57 6v40h479v-146h-56l-14 85l-14 15h-231v-253h164l14 14l10 73h47v-220h-47l-10 72l-14 15h-164v-280h268l14 17l17 100h52v-163h-515v0z" />
    <glyph glyph-name="F" unicode="F" horiz-adv-x="537" 
d="M33 0v41l57 5l17 14v551l-17 14l-65 6v40h480v-156h-55l-15 95l-13 15h-225v-263h164l14 14l10 73h47v-220h-47l-10 72l-14 15h-164v-256l17 -14l71 -5v-41h-252v0z" />
    <glyph glyph-name="G" unicode="G" horiz-adv-x="694" 
d="M417 322l249.996 -0.00195312v-41l-55 -5l-17 -14v-239c-33.333 -9.33301 -67 -17.166 -101 -23.499s-68.333 -9.5 -103 -9.5h-3.5h-3.5h-3.5h-3.5c-98.667 2 -178.667 35.833 -240 101.5s-92.666 147.167 -93.999 244.5c-1.33301 105.333 30.667 188.833 96 250.5
s149 93.834 251 96.501h3.5h3.5h3.5h3.5c32 0 63.833 -2.5 95.5 -7.5s63.167 -12.167 94.5 -21.5v-159h-56l-15 91l-13 18c-21.333 9.33301 -42.333 16.166 -63 20.499s-40.667 6.5 -60 6.5c-70.667 0 -128.5 -26.833 -173.5 -80.5s-67.5 -124.167 -67.5 -211.5v-6.5v-7.5
c2 -63.333 19.167 -122.666 51.5 -177.999s82.833 -89 151.5 -101l12.5 -2l13.5 -2c4.66699 0 9.16699 -0.166992 13.5 -0.5s8.5 -0.5 12.5 -0.5c8.66699 0 17.334 0.333008 26.001 1s17.334 1.66699 26.001 3l26 4c8.66699 1.33301 17.334 3 26.001 5v208l-17 14l-71 5v41
v0z" />
    <glyph glyph-name="H" unicode="H" horiz-adv-x="738" 
d="M33 671h243v-40l-62 -6l-17 -14v-236h344v236l-17 14l-62 6v40h243v-40l-57 -6l-17 -14v-551l17 -14l57 -5v-41h-243v41l62 5l17 14v269h-344v-269l17 -14l62 -5v-41h-243v41l57 5l17 14v551l-17 14l-57 6v40v0z" />
    <glyph glyph-name="I" unicode="I" horiz-adv-x="324" 
d="M35 0v41l64 5l16 14v551l-16 14l-64 6v40h254v-40l-64 -6l-17 -14v-551l17 -14l64 -5v-41h-254v0z" />
    <glyph glyph-name="J" unicode="J" horiz-adv-x="444" 
d="M271 611l-16.998 13.998l-66 6v40h252v-40l-62 -6l-17 -14v-355v-22c0 -7.33301 -0.333008 -14.666 -1 -21.999c-0.666992 -25.333 -3.83398 -50.5 -9.50098 -75.5s-16.167 -48.167 -31.5 -69.5c-15.333 -22 -35 -39 -59 -51s-49.333 -19.667 -76 -23
c-6.66699 -1.33301 -13.5 -2.16602 -20.5 -2.49902s-14.167 -0.5 -21.5 -0.5c-22 0 -43.833 2 -65.5 6s-43.167 9.33301 -64.5 16v167h56l24 -126l14 -13c6.66699 -0.666992 13.167 -1.5 19.5 -2.5s12.166 -1.5 17.499 -1.5c54 0 88.667 21.333 104 64s23.333 89.667 24 141
v5.5v5.5v359v0z" />
    <glyph glyph-name="K" unicode="K" horiz-adv-x="611" 
d="M33 0v41l57 5l17 14v551l-17 14l-57 6v40h243v-40l-62 -6l-17 -14v-271h38l222 271l-6 14l-56 6v40h209v-40l-67 -9l-210 -250l227 -326l73 -5v-41h-164v30l-192 269h-74v-239l17 -14l62 -5v-41h-243v0z" />
    <glyph glyph-name="L" unicode="L" horiz-adv-x="520" 
d="M27 0v41l63 5l17 14v551l-17 14l-63 6v40h244v-40l-57 -6l-17 -14v-565h226l14 17l17 119h52v-182h-479v0z" />
    <glyph glyph-name="M" unicode="M" horiz-adv-x="866" 
d="M31 0v41l60 8l18 19v543l-13 14l-66 6v40h212v-27l188 -502l190 498v31h214v-40l-63 -6l-12 -14v-551l12 -14l63 -5v-41h-239v41l66 5l10 14v564l-237 -624h-43l-228 614v-546l19 -19l60 -8v-41h-211v0z" />
    <glyph glyph-name="N" unicode="N" horiz-adv-x="713" 
d="M29 0v41l61 8l18 19v543l-18 14l-64 6v40h188v-25l341 -512v470l-18 18l-60 9v40h211v-40l-61 -9l-18 -18v-604h-66l-381 568v-500l18 -19l60 -8v-41h-211v0z" />
    <glyph glyph-name="O" unicode="O" horiz-adv-x="731" 
d="M366 688c104.667 -0.666992 184.504 -37.6689 239.504 -111.002s82.833 -154 83.5 -242v-1.5v-1.5c0 -74.667 -19.833 -144.667 -59.5 -210s-100.834 -107.666 -183.501 -126.999c-14 -3.33301 -27.667 -5.83301 -41 -7.5s-26.666 -2.5 -39.999 -2.5
c-82.667 -0.666992 -153.834 26.833 -213.501 82.5s-94.834 126.834 -105.501 213.501c-0.666992 4 -1.16699 8.16699 -1.5 12.5s-0.5 8.83301 -0.5 13.5c-0.666992 4.66699 -1 9.16699 -1 13.5v12.5c-0.666992 93.333 27.666 175.833 84.999 247.5
s136.666 107.5 237.999 107.5v0zM366.004 633.998c-74 0 -129.333 -30.833 -166 -92.5s-55.334 -129.5 -56.001 -203.5v-1.5v-1.5c0.666992 -74.667 19.5 -143 56.5 -205s92.167 -93 165.5 -93c68.667 0 119.834 25 153.501 75s54.167 105.333 61.5 166l2 28.5
c0.666992 9.66699 1 19.167 1 28.5s-0.333008 19 -1 29s-1.66699 20 -3 30c-7.33301 60 -27.833 115 -61.5 165s-84.5 75 -152.5 75v0z" />
    <glyph glyph-name="P" unicode="P" horiz-adv-x="558" 
d="M33 0l0.00195312 41.001l57 5l17 14v551l-17 14l-65 6v40h228h34.5c11.667 0 23.5 -0.666992 35.5 -2c29.333 -2 58.166 -7.16699 86.499 -15.5s52.833 -23.5 73.5 -45.5c17.333 -18 29.666 -38.5 36.999 -61.5s11 -46.833 11 -71.5v-10.5v-10.5
c-0.666992 -7.33301 -1.5 -14.5 -2.5 -21.5s-2.5 -13.833 -4.5 -20.5c-9.33301 -42.667 -31 -76.834 -65 -102.501s-71.667 -42.5 -113 -50.5c-11.333 -2.66699 -23 -4.5 -35 -5.5s-24 -1.5 -36 -1.5c-12.667 0 -25.5 0.5 -38.5 1.5s-26.167 2.16699 -39.5 3.5v-197l17 -14
l71 -5v-41h-252v0zM197.002 305.001c3.33301 0 6.49902 -0.166016 9.49902 -0.499023s6.16699 -0.833008 9.5 -1.5c6.66699 0 13.167 -0.166992 19.5 -0.5s12.5 -0.5 18.5 -0.5c50 -0.666992 93.167 10.166 129.5 32.499s54.5 65.833 54.5 130.5
c0.666992 70.667 -18.666 114.667 -57.999 132s-85.333 26.333 -138 27h-11.5h-10.5c-4 -0.666992 -7.83301 -1 -11.5 -1h-11.5v-318v0z" />
    <glyph glyph-name="Q" unicode="Q" horiz-adv-x="731" 
d="M414 -10c4 -46.667 19.4971 -78 46.4971 -94s58.167 -24 93.5 -24c10.667 0 21.334 0.5 32.001 1.5s21.334 2.16699 32.001 3.5c5.33301 1.33301 10.666 2.33301 15.999 3s10.666 1.66699 15.999 3v-42c-15.333 -2.66699 -31 -5.16699 -47 -7.5s-32.333 -4.5 -49 -6.5
c-8 -0.666992 -16 -1.16699 -24 -1.5s-16 -0.5 -24 -0.5c-48.667 0 -91.5 11.167 -128.5 33.5s-56.5 66.5 -58.5 132.5c-76.667 12 -139.5 43.5 -188.5 94.5s-78.167 116.5 -87.5 196.5c-0.666992 9.33301 -1.5 18.666 -2.5 27.999s-1.5 18.333 -1.5 27
c0 96.667 30 179.5 90 248.5s137.333 103.833 232 104.5c14 0 28.333 -1 43 -3s29.334 -4.66699 44.001 -8c79.333 -19.333 140 -62.166 182 -128.499s63 -138.166 63 -215.499c0 -8.66699 -0.166992 -17.334 -0.5 -26.001s-1.16602 -17.667 -2.49902 -27
c-10 -80.667 -39.167 -146.167 -87.5 -196.5s-111.166 -81.833 -188.499 -94.5v-1zM365.997 39c74.667 0 130.332 30.9971 166.999 92.9971s55.334 130.333 56.001 205c0 55.333 -9.83301 107.833 -29.5 157.5s-49.167 86.834 -88.5 111.501
c-13.333 8 -27.5 14.5 -42.5 19.5s-30.5 7.83301 -46.5 8.5c-2 0.666992 -4.33301 1 -7 1h-8c-14 0 -27.833 -1.33301 -41.5 -4s-27.167 -6.66699 -40.5 -12c-35.333 -15.333 -64 -39.5 -86 -72.5s-36.667 -68.167 -44 -105.5c-2.66699 -14.667 -4.83398 -30 -6.50098 -46
s-2.5 -32.667 -2.5 -50c0 -7.33301 0.166992 -14.666 0.5 -21.999s0.833008 -14.666 1.5 -21.999c4.66699 -65.333 23.834 -125.333 57.501 -180s87.167 -82 160.5 -82v0z" />
    <glyph glyph-name="R" unicode="R" horiz-adv-x="646" 
d="M33 671h255.003c61.333 0 116.833 -11.333 166.5 -34s74.5 -71 74.5 -145c0 -50.667 -16 -88.334 -48 -113.001s-70 -42.667 -114 -54c50.667 -15.333 82.667 -33.833 96 -55.5s23 -46.5 29 -74.5c3.33301 -16 7.33301 -33.167 12 -51.5s13 -37.5 25 -57.5
c12.667 -22 29.5 -35.167 50.5 -39.5s42.833 -6.83301 65.5 -7.5h2.5h2.5h3.5h2.5v-38c-14.667 -2 -28.834 -3.83301 -42.501 -5.5s-26.834 -2.5 -39.501 -2.5c-34.667 0 -64.5 8 -89.5 24s-44.5 47 -58.5 93l-16 53.5c-4.66699 15.667 -9.33398 29.834 -14.001 42.501
c-12.667 36.667 -28.667 61.167 -48 73.5s-55 18.833 -107 19.5h-21c-7.33301 0 -15 -0.333008 -23 -1v-238l17 -14l57 -5v-41h-238v41l57 5l17 14v551l-17 14l-57 6v40v0zM197.003 625v-279h11.5h11.5c4 -0.666992 8 -1 12 -1h12h1.5h1.5c43.333 0 83.5 6.83301 120.5 20.5
s57.5 48.167 61.5 103.5v3v3v2.5v2.5c0 23.333 -4.33301 45.833 -13 67.5s-22.667 39.167 -42 52.5c-16.667 11.333 -34.667 18.5 -54 21.5s-39 4.5 -59 4.5h-16.5h-16.5c-5.33301 -0.666992 -10.5 -1 -15.5 -1h-15.5v0z" />
    <glyph glyph-name="S" unicode="S" horiz-adv-x="556" 
d="M60 20v176.002h59l12 -115l13 -17c15.333 -6.66699 32.5 -12.334 51.5 -17.001s38.833 -7 59.5 -7c21.333 0 42.166 2.83301 62.499 8.5s37.5 14.834 51.5 27.501c12 11.333 21.5 24.833 28.5 40.5s10.5 31.834 10.5 48.501c0 10 -1.33301 19.833 -4 29.5
s-6.66699 18.834 -12 27.501c-9.33301 14 -23.5 26.5 -42.5 37.5s-38.833 21.167 -59.5 30.5l-43.5 17c-14.333 5.33301 -26.833 10.333 -37.5 15c-32.667 14 -62.834 33 -90.501 57s-43.167 55.333 -46.5 94c0 1.33301 -0.166992 2.66602 -0.5 3.99902s-0.5 3 -0.5 5v4v4
c0 30 6.83301 58.5 20.5 85.5s32.834 49.167 57.501 66.5c22.667 15.333 47 26.166 73 32.499s52.333 9.5 79 9.5c7.33301 0 14.666 -0.166992 21.999 -0.5s14.666 -0.833008 21.999 -1.5c22 -2.66699 43.833 -6.33398 65.5 -11.001s42.167 -10 61.5 -16v-155h-52l-15 95
c-12 13.333 -27.167 23.166 -45.5 29.499s-37.166 9.5 -56.499 9.5h-7.5c-2.33301 0 -4.5 -0.333008 -6.5 -1c-10 -0.666992 -19.667 -2 -29 -4s-18.333 -4.66699 -27 -8c-21.333 -8.66699 -38.166 -23.167 -50.499 -43.5s-18.5 -42.166 -18.5 -65.499
c0 -26.667 8.5 -48.5 25.5 -65.5s36.833 -30.833 59.5 -41.5c8 -4 16.333 -7.83301 25 -11.5l26 -10.5c6 -2 12 -4.16699 18 -6.5s12 -4.83301 18 -7.5c33.333 -13.333 64.833 -29.5 94.5 -48.5s50.167 -46.5 61.5 -82.5c2.66699 -8 4.5 -16 5.5 -24s1.5 -16.333 1.5 -25
c0 -26.667 -5.5 -52.334 -16.5 -77.001s-26.833 -45.667 -47.5 -63c-26.667 -21.333 -57.5 -36.666 -92.5 -45.999s-71.167 -14 -108.5 -14h-7.5h-7.5c-28 0.666992 -55.667 3.66699 -83 9s-52.666 12.666 -75.999 21.999v0z" />
    <glyph glyph-name="T" unicode="T" horiz-adv-x="597" 
d="M16 671h565v-154h-55l-14 93l-14 15h-153v-565l17 -14l67 -5v-41h-261v41l67 5l17 14v565h-153l-14 -15l-14 -93h-55v154v0z" />
    <glyph glyph-name="U" unicode="U" horiz-adv-x="694" 
d="M25 671l245.004 0.00195312v-40l-62 -6l-17 -14v-362v-17c0 -6 0.333008 -11.667 1 -17c0.666992 -18.667 3 -37.167 7 -55.5s11.667 -34.833 23 -49.5c13.333 -17.333 30 -30.5 50 -39.5s41 -15.167 63 -18.5c5.33301 -0.666992 11 -1.16699 17 -1.5
s11.667 -0.5 17 -0.5s10.833 0.166992 16.5 0.5s11.167 0.833008 16.5 1.5c22 2.66699 43 8.66699 63 18s36.667 22.666 50 39.999c12 16 20 33.167 24 51.5s6.33301 37.166 7 56.499c0.666992 5.33301 1 10.5 1 15.5v15.5v355l-19 18l-60 9v40h211v-40l-60 -9l-18 -18v-364
v-19.5c0 -6.33301 -0.333008 -12.833 -1 -19.5c-0.666992 -24 -3.83398 -47.833 -9.50098 -71.5s-16.834 -45.5 -33.501 -65.5c-18.667 -22 -41.334 -38.167 -68.001 -48.5s-54.334 -17.5 -83.001 -21.5c-9.33301 -1.33301 -18.666 -2.33301 -27.999 -3
s-18.666 -1 -27.999 -1c-10 0 -20.167 0.333008 -30.5 1s-20.5 2 -30.5 4c-28 3.33301 -54.833 10.333 -80.5 21s-47.5 26.667 -65.5 48c-16.667 20 -27.834 41.833 -33.501 65.5s-8.83398 47.5 -9.50098 71.5c-0.666992 6.66699 -1 13.167 -1 19.5v19.5v371l-17 14l-57 6
v40v0z" />
    <glyph glyph-name="V" unicode="V" horiz-adv-x="618" 
d="M-22 671h232v-40l-58 -6l-11 -14l188 -504l181 504l-10 14l-62 6v40h199v-40l-62 -12l-230 -623h-69l-235 623l-63 12v40v0z" />
    <glyph glyph-name="W" unicode="W" horiz-adv-x="928" 
d="M231 0l-168 617l-63 14v40h224v-40l-63 -8l-8 -14l129 -462l161 524h70l164 -535l121 469l-11 14l-67 12v40h207v-40l-67 -14l-159 -617h-68l-169 547l-166 -547h-67v0z" />
    <glyph glyph-name="X" unicode="X" horiz-adv-x="599" 
d="M11 671h241v-40l-60 -6l-8 -12l131 -206l142 202l-9 13l-58 9v40h204v-40l-64 -10l-183 -261l194 -307l68 -12v-41h-253v41l67 7l7 14l-141 227l-158 -224l6 -18l67 -6v-41h-212v41l65 13l201 281l-181 283l-66 13v40v0z" />
    <glyph glyph-name="Y" unicode="Y" horiz-adv-x="586" 
d="M-12 671h231v-40l-57 -6l-10 -11l153 -275l168 267l-9 14l-61 11v40h204v-40l-61 -13l-208 -333v-225l16 -14l68 -5v-41h-259v41l68 5l16 14v212l-199 349l-60 10v40v0z" />
    <glyph glyph-name="Z" unicode="Z" horiz-adv-x="586" 
d="M67 671h468v-42l-381 -580h302l11 14l18 118h54v-181h-494v41l379 582h-267l-19 -13l-16 -94h-55v155v0z" />
    <glyph glyph-name="bracketleft" unicode="[" horiz-adv-x="556" 
d="M60 20v176.002h59l12 -115l13 -17c15.333 -6.66699 32.5 -12.334 51.5 -17.001s38.833 -7 59.5 -7c21.333 0 42.166 2.83301 62.499 8.5s37.5 14.834 51.5 27.501c12 11.333 21.5 24.833 28.5 40.5s10.5 31.834 10.5 48.501c0 10 -1.33301 19.833 -4 29.5
s-6.66699 18.834 -12 27.501c-9.33301 14 -23.5 26.5 -42.5 37.5s-38.833 21.167 -59.5 30.5l-43.5 17c-14.333 5.33301 -26.833 10.333 -37.5 15c-32.667 14 -62.834 33 -90.501 57s-43.167 55.333 -46.5 94c0 1.33301 -0.166992 2.66602 -0.5 3.99902s-0.5 3 -0.5 5v4v4
c0 30 6.83301 58.5 20.5 85.5s32.834 49.167 57.501 66.5c22.667 15.333 47 26.166 73 32.499s52.333 9.5 79 9.5c7.33301 0 14.666 -0.166992 21.999 -0.5s14.666 -0.833008 21.999 -1.5c22 -2.66699 43.833 -6.33398 65.5 -11.001s42.167 -10 61.5 -16v-155h-52l-15 95
c-12 13.333 -27.167 23.166 -45.5 29.499s-37.166 9.5 -56.499 9.5h-7.5c-2.33301 0 -4.5 -0.333008 -6.5 -1c-10 -0.666992 -19.667 -2 -29 -4s-18.333 -4.66699 -27 -8c-21.333 -8.66699 -38.166 -23.167 -50.499 -43.5s-18.5 -42.166 -18.5 -65.499
c0 -26.667 8.5 -48.5 25.5 -65.5s36.833 -30.833 59.5 -41.5c8 -4 16.333 -7.83301 25 -11.5l26 -10.5c6 -2 12 -4.16699 18 -6.5s12 -4.83301 18 -7.5c33.333 -13.333 64.833 -29.5 94.5 -48.5s50.167 -46.5 61.5 -82.5c2.66699 -8 4.5 -16 5.5 -24s1.5 -16.333 1.5 -25
c0 -26.667 -5.5 -52.334 -16.5 -77.001s-26.833 -45.667 -47.5 -63c-26.667 -21.333 -57.5 -36.666 -92.5 -45.999s-71.167 -14 -108.5 -14h-7.5h-7.5c-28 0.666992 -55.667 3.66699 -83 9s-52.666 12.666 -75.999 21.999v0zM135 932.002h55l87 -141l88 141h54l-110 -190
h-64l-110 190v0z" />
    <glyph glyph-name="backslash" unicode="\" horiz-adv-x="693" 
d="M280 671l10.498 0.00195312h10.5c44.667 -1.33301 88.667 -8.16602 132 -20.499s82 -34.166 116 -65.499c34.667 -32.667 59.834 -70.834 75.501 -114.501s23.834 -88.834 24.501 -135.501c-0.666992 -52.667 -10.834 -103.334 -30.501 -152.001
s-51.167 -88.667 -94.5 -120c-36.667 -26.667 -75.667 -43.834 -117 -51.501s-83.666 -11.5 -126.999 -11.5h-247v41l57 5l17 14v267h-92v48h92v236l-17 14l-57 6v40h247v0zM196.998 327.002v-280.999h12.5h12.5h12.5h13.5c31.333 0 62.333 1.83301 93 5.5
s60 12.834 88 27.501c39.333 21.333 67.666 51.166 84.999 89.499s28 78.5 32 120.5c0.666992 8 1.16699 15.833 1.5 23.5s0.5 15.5 0.5 23.5s-0.166992 16.167 -0.5 24.5s-0.833008 16.833 -1.5 25.5c-4.66699 41.333 -15.667 81.166 -33 119.499
s-45.666 67.833 -84.999 88.5c-26 14 -53.333 22.833 -82 26.5s-57.334 5.5 -86.001 5.5c-5.33301 0 -10.666 -0.166992 -15.999 -0.5s-10.333 -0.5 -15 -0.5h-16h-16v-250h166v-48h-166v0z" />
    <glyph glyph-name="bracketright" unicode="]" horiz-adv-x="632" 
d="M588 23c-31.333 -10.667 -63.6709 -18.8301 -97.0039 -24.4971s-66.666 -8.5 -99.999 -8.5h-7.5h-7.5c-98 2 -177.667 35.833 -239 101.5s-92.666 147.167 -93.999 244.5c-1.33301 100 30.334 182.667 95.001 248s146.667 98.333 246 99
c34.667 0.666992 69 -2.5 103 -9.5s67.667 -15.167 101 -24.5v-154h-56l-15 91l-13 18c-20.667 9.33301 -41 16.166 -61 20.499s-39.667 6.5 -59 6.5c-70 0 -127.167 -27.167 -171.5 -81.5s-66.5 -124.5 -66.5 -210.5c0 -90.667 23.333 -162.834 70 -216.501
s108.334 -80.834 185.001 -81.501c14.667 0 29.667 1 45 3s31.333 5.33301 48 10l16 16l24 111h54v-158v0zM423.995 932.004h99l-146 -190h-50l97 190v0z" />
    <glyph glyph-name="asciicircum" unicode="^" horiz-adv-x="632" 
d="M588 23c-31.333 -10.667 -63.6709 -18.8301 -97.0039 -24.4971s-66.666 -8.5 -99.999 -8.5h-7.5h-7.5c-98 2 -177.667 35.833 -239 101.5s-92.666 147.167 -93.999 244.5c-1.33301 100 30.334 182.667 95.001 248s146.667 98.333 246 99
c34.667 0.666992 69 -2.5 103 -9.5s67.667 -15.167 101 -24.5v-154h-56l-15 91l-13 18c-20.667 9.33301 -41 16.166 -61 20.499s-39.667 6.5 -59 6.5c-70 0 -127.167 -27.167 -171.5 -81.5s-66.5 -124.5 -66.5 -210.5c0 -90.667 23.333 -162.834 70 -216.501
s108.334 -80.834 185.001 -81.501c14.667 0 29.667 1 45 3s31.333 5.33301 48 10l16 16l24 111h54v-158v0zM222.995 932.004h55l87 -141l88 141h54l-110 -190h-64l-110 190v0z" />
    <glyph glyph-name="underscore" unicode="_" horiz-adv-x="500" 
d="M0 271h500v-61h-500v61v0z" />
    <glyph glyph-name="grave" unicode="`" horiz-adv-x="468" 
d="M45 0v50l268 385h-186l-14 -16l-11 -77h-47v139h361v-38l-277 -397h215l15 16l11 84h51v-146h-386v0zM92 736h55l87 -141l88 141h54l-110 -190h-64l-110 190v0z" />
    <glyph glyph-name="a" unicode="a" horiz-adv-x="507" 
d="M334 58c-24.667 -16 -50.3369 -30.3262 -77.0039 -42.9932s-55.667 -19.334 -87 -20.001c-28.667 -0.666992 -54 6.33301 -76 21s-37.333 36.334 -46 65.001c-0.666992 3.33301 -1.5 6.66602 -2.5 9.99902s-1.5 6.66602 -1.5 9.99902
c-0.666992 3.33301 -1.16699 6.66602 -1.5 9.99902s-0.5 6.66602 -0.5 9.99902c0 22.667 5.83301 43.667 17.5 63s27.834 35.333 48.501 48c14.667 8.66699 32.834 16.834 54.501 24.501s44.167 14.5 67.5 20.5c18.667 5.33301 37 10.166 55 14.499l49 11.5v10
c0 3.33301 0.333008 6.66602 1 9.99902v10.5v10.5c0 17.333 -2 34.166 -6 50.499s-13.667 29.5 -29 39.5c-8 5.33301 -16.5 9 -25.5 11s-18.5 3 -28.5 3h-6h-6c-12 -1.33301 -23.833 -3.5 -35.5 -6.5s-22.5 -6.5 -32.5 -10.5v-84c-2 0 -4.66699 -0.166992 -8 -0.5
s-7 -0.5 -11 -0.5s-8 -0.166992 -12 -0.5s-8 -0.5 -12 -0.5h-2h-2c-10.667 0 -20.667 0.833008 -30 2.5s-15.666 4.83398 -18.999 9.50098c-2 3.33301 -3.33301 6.83301 -4 10.5l-2 10.5v4.5c0 1.66699 0.333008 3.16699 1 4.5c2 10.667 6.5 21.167 13.5 31.5
s14.5 18.833 22.5 25.5c1.33301 1.33301 2.83301 2.66602 4.5 3.99902s3.5 2.66602 5.5 3.99902c18.667 12.667 39 22 61 28s44.333 9.66699 67 11c4 0.666992 7.83301 1 11.5 1h11.5h8h8c5.33301 -0.666992 10.833 -1.16699 16.5 -1.5s10.834 -0.833008 15.501 -1.5
c40.667 -6 68.667 -21.833 84 -47.5s23.333 -57.167 24 -94.5v-290l17 -16l53 -5v-36h-141l-13 58v0zM333.997 92.0068l-0.000976562 176.002c-11.333 -3.33301 -24.5 -7 -39.5 -11s-30.167 -8.66699 -45.5 -14c-30 -10 -57.5 -23.5 -82.5 -40.5s-37.5 -40.167 -37.5 -69.5
c0 -2.66699 0.166992 -5.5 0.5 -8.5s0.833008 -6.16699 1.5 -9.5c4.66699 -24.667 13.667 -42 27 -52s29 -15 47 -15c7.33301 0 14.833 0.666992 22.5 2s15.167 3 22.5 5c10.667 3.33301 21.334 7.16602 32.001 11.499s20.667 9.16602 30 14.499c4 1.33301 7.83301 3 11.5 5
l10.5 6v0z" />
    <glyph glyph-name="b" unicode="b" horiz-adv-x="539" 
d="M131 736l38.002 0.000976562v-280c22.667 9.33301 45.334 17.333 68.001 24s45.667 10 69 10c8 0 16.167 -0.333008 24.5 -1s16.833 -2 25.5 -4c41.333 -8.66699 74.166 -30.334 98.499 -65.001s39.5 -72 45.5 -112c0 -1.33301 0.166992 -2.5 0.5 -3.5
s0.5 -2.16699 0.5 -3.5c1.33301 -7.33301 2.16602 -14.833 2.49902 -22.5s0.5 -15.167 0.5 -22.5c0 -37.333 -6.83301 -73.666 -20.5 -108.999s-35.834 -65.333 -66.501 -90c-27.333 -22 -57.333 -36.833 -90 -44.5s-65.667 -11.834 -99 -12.501h-7.5h-6.5h-129v669h-77v31
l123 36v0zM169.002 46.001h13.999h14c4.66699 -0.666992 9.33398 -1 14.001 -1h14h12c4 0 7.66699 0.333008 11 1c12 0 23.833 1 35.5 3s22.834 5.33301 33.501 10c31.333 12 54.166 32 68.499 60s23.166 57.333 26.499 88c0.666992 6 1.16699 11.833 1.5 17.5
s0.5 11.5 0.5 17.5v5.5v4.5c-0.666992 64.667 -15.167 111.5 -43.5 140.5s-65.5 43.5 -111.5 43.5c-13.333 0 -27.666 -1.16699 -42.999 -3.5s-31 -5.83301 -47 -10.5v-376v0z" />
    <glyph glyph-name="c" unicode="c" horiz-adv-x="446" 
d="M425 42c-31.333 -17.333 -60.998 -29.8389 -88.998 -37.5059s-54.333 -11.5 -79 -11.5c-70.667 0 -124.834 25.833 -162.501 77.5s-56.834 108.834 -57.501 171.501v1.5v1.5c0 53.333 14.5 103.333 43.5 150s73.5 76.334 133.5 89.001
c13.333 3.33301 25.833 5.5 37.5 6.5s22.834 1.5 33.501 1.5c41.333 0 73 -8 95 -24s35.333 -33.667 40 -53c1.33301 -3.33301 2.16602 -6.66602 2.49902 -9.99902s0.5 -6.66602 0.5 -9.99902c0 -14.667 -4.5 -27.667 -13.5 -39s-21.5 -17 -37.5 -17
c-6.66699 0 -14.167 1.33301 -22.5 4s-17.166 6.66699 -26.499 12v82c-5.33301 3.33301 -10.833 6 -16.5 8s-11.5 3.33301 -17.5 4c-2.66699 0.666992 -5.5 1.16699 -8.5 1.5s-5.83301 0.5 -8.5 0.5c-10.667 0 -21.167 -1.5 -31.5 -4.5s-20.166 -7.16699 -29.499 -12.5
c-25.333 -14.667 -44.333 -35.5 -57 -62.5s-20.334 -55.167 -23.001 -84.5c-0.666992 -6 -1.16699 -11.833 -1.5 -17.5s-0.5 -11.167 -0.5 -16.5v-16c0 -5.33301 0.333008 -10.666 1 -15.999c4 -57.333 21.5 -99.666 52.5 -126.999s67.5 -41 109.5 -41
c10.667 0 21.667 0.833008 33 2.5s22.666 4.16699 33.999 7.5c10.667 4 21.667 8.5 33 13.5s22.333 10.833 33 17.5v-52v0z" />
    <glyph glyph-name="d" unicode="d" horiz-adv-x="565" 
d="M383 669l-77.002 -0.00195312v31l122 36h38v-679l17 -16l48 -5v-36h-148v52c-29.333 -21.333 -57.166 -36.833 -83.499 -46.5s-51.166 -14.5 -74.499 -14.5c-58.667 0 -104.5 24.667 -137.5 74s-49.833 104.333 -50.5 165v5.5v5.5
c2.66699 62.667 24.5 119.834 65.5 171.501s105.5 77.5 193.5 77.5c13.333 0 27.333 -0.666992 42 -2s29.667 -3.66602 45 -6.99902v188v0zM382.998 88.998l0.000976562 342.999c-14.667 4.66699 -29.334 8.5 -44.001 11.5s-29.667 4.5 -45 4.5c-6 0 -12 -0.333008 -18 -1
s-12 -1.66699 -18 -3c-42.667 -9.33301 -74.667 -31.333 -96 -66s-33.666 -72 -36.999 -112c-0.666992 -4 -1 -7.83301 -1 -11.5v-11.5v-5.5v-4.5c1.33301 -58 15.833 -102 43.5 -132s61.834 -45 102.501 -45c17.333 0 35.666 2.83301 54.999 8.5
s38.666 13.834 57.999 24.501v0z" />
    <glyph glyph-name="e" unicode="e" horiz-adv-x="491" 
d="M448 106v-54.998c-28 -18 -58 -32.333 -90 -43s-64.667 -16 -98 -16c-11.333 0 -22.833 0.666992 -34.5 2s-23.167 3.33301 -34.5 6c-51.333 14.667 -89.5 44.5 -114.5 89.5s-37.833 92.833 -38.5 143.5v2v2c-0.666992 21.333 1.16602 42.166 5.49902 62.499
s10.5 39.833 18.5 58.5c17.333 39.333 43.833 70.666 79.5 93.999s73.167 36.333 112.5 39c2 0.666992 4.16699 1 6.5 1h7.5c25.333 0 49.833 -4.83301 73.5 -14.5s44.834 -24.834 63.501 -45.501c17.333 -19.333 29 -41 35 -65s9 -48.667 9 -74v-7.5v-7.5
c-0.666992 -2.66699 -1 -5.16699 -1 -7.5v-7.5h-325v-14c0 -4.66699 0.333008 -9.33398 1 -14.001c1.33301 -33.333 8.33301 -65.166 21 -95.499s34.667 -54.166 66 -71.499c12.667 -6.66699 25.5 -11.667 38.5 -15s25.833 -5 38.5 -5c28 0 55.667 6 83 18s53 25.333 77 40
v0zM359 305.002l-0.000976562 4.50195v5.5v4.5v4.5c0 10.667 -0.5 21 -1.5 31s-3.5 19.667 -7.5 29c-7.33301 19.333 -19.5 34.333 -36.5 45s-35.5 16 -55.5 16h-4h-4c-2 0 -3.66699 -0.166992 -5 -0.5s-2.66602 -0.5 -3.99902 -0.5
c-34.667 -4.66699 -61.5 -20.834 -80.5 -48.501s-29.833 -57.834 -32.5 -90.501h231v0z" />
    <glyph glyph-name="f" unicode="f" horiz-adv-x="321" 
d="M29 0l-0.00292969 36.0039l53 5l17 16v364h-63v32l64 15c0 5.33301 0.166992 10.666 0.5 15.999s0.5 10.666 0.5 15.999c2.66699 39.333 10.334 77.5 23.001 114.5s35.667 68.167 69 93.5c14.667 11.333 31.167 20.166 49.5 26.499s36.833 9.5 55.5 9.5
c7.33301 0 14.333 -0.5 21 -1.5s13.334 -2.5 20.001 -4.5c13.333 -4.66699 23.5 -11.667 30.5 -21s10.5 -19.333 10.5 -30s-3.33301 -20.667 -10 -30s-16.667 -16 -30 -20l-91 60c-26 -14 -43.167 -34.333 -51.5 -61s-13.166 -54.334 -14.499 -83.001v-9.5v-9.5v-17.5
c0 -5.66699 0.333008 -11.167 1 -16.5v-16v-16h139v-47h-140v-364l17 -16l62 -5v-36h-233v0z" />
    <glyph glyph-name="g" unicode="g" horiz-adv-x="523" 
d="M369 463h142.997v-47h-110c10 -16.667 17.333 -32.667 22 -48s7 -30.333 7 -45c0 -44.667 -18.833 -81.834 -56.5 -111.501s-85.167 -44.5 -142.5 -44.5h-2.5h-2.5h-2.5h-2.5c-3.33301 -8.66699 -5.83301 -17 -7.5 -25s-2.5 -16 -2.5 -24v-5.5v-4.5
c0 -1.33301 0.166992 -2.83301 0.5 -4.5s0.5 -3.5 0.5 -5.5h1.5h1.5c14.667 -2.66699 31.834 -5.16699 51.501 -7.5s40.167 -5.5 61.5 -9.5c30 -6 58.333 -14.5 85 -25.5s45 -26.5 55 -46.5c3.33301 -6.66699 5.83301 -13.667 7.5 -21s2.5 -14.666 2.5 -21.999
c0 -3.33301 -0.166992 -6.66602 -0.5 -9.99902s-0.833008 -6.66602 -1.5 -9.99902c-0.666992 -6.66699 -2.16699 -13.5 -4.5 -20.5s-5.16602 -13.5 -8.49902 -19.5c-14.667 -29.333 -36.5 -53.166 -65.5 -71.499s-59.167 -31.5 -90.5 -39.5l-18 -4
c-6 -1.33301 -12 -2.33301 -18 -3c-10.667 -1.33301 -20.667 -2.5 -30 -3.5s-18.666 -1.5 -27.999 -1.5c-58.667 0 -102.5 13.667 -131.5 41s-43.5 57.666 -43.5 90.999c0 26.667 9.16699 51.5 27.5 74.5s45.5 38.167 81.5 45.5c-2.66699 7.33301 -4.66699 14.5 -6 21.5
s-2 13.5 -2 19.5c0 12 1.83301 23.5 5.5 34.5s9.16699 21.833 16.5 32.5c3.33301 5.33301 7 10.666 11 15.999s8.33301 10.666 13 15.999c-42.667 10 -74.167 28.833 -94.5 56.5s-30.5 57.5 -30.5 89.5v2.5v3.5c1.33301 40.667 17.833 78.167 49.5 112.5
s76.167 51.833 133.5 52.5c18.667 0 38.5 -2.33301 59.5 -7s42.833 -12 65.5 -22v0zM205.997 30c-30 -10.667 -51.834 -24.501 -65.501 -41.501s-20.5 -34.833 -20.5 -53.5c0 -26.667 12.333 -50.834 37 -72.501s57.334 -32.5 98.001 -32.5h3.5h3.5h3h3
c6 0.666992 12 1.5 18 2.5s12 2.16699 18 3.5c25.333 6.66699 48.5 18.334 69.5 35.001s31.5 38.334 31.5 65.001v3.5v3.5c0 1.33301 -0.166992 2.5 -0.5 3.5s-0.5 2.16699 -0.5 3.5c-2 15.333 -8.16699 27.333 -18.5 36s-22.5 14.334 -36.5 17.001
c-12 3.33301 -23.833 6.16602 -35.5 8.49902s-23.5 4.5 -35.5 6.5l-12 2l-12 2l-24 4l-24 4v0zM245.996 451.999c-32.667 0 -57.168 -12.667 -73.501 -38s-24.833 -53.333 -25.5 -84c0 -30.667 8.33301 -59 25 -85s41.334 -39 74.001 -39c32 0 56.167 12.5 72.5 37.5
s24.833 52.5 25.5 82.5v1.5v1.5v1.5v1.5c0 30 -8.16699 57.5 -24.5 82.5s-40.833 37.5 -73.5 37.5v0z" />
    <glyph glyph-name="h" unicode="h" horiz-adv-x="564" 
d="M141 736l38.001 -0.00195312v-304c3.33301 1.33301 6.5 2.83301 9.5 4.5s5.83301 3.5 8.5 5.5c23.333 12 47 23 71 33s49 15.333 75 16c4.66699 0 9.5 -0.166992 14.5 -0.5s9.83301 -1.16602 14.5 -2.49902c39.333 -6.66699 66.5 -24.167 81.5 -52.5
s22.5 -60.5 22.5 -96.5v-282l17 -16l53 -5v-36h-218v36l47 5l17 16v265c0 38.667 -8.83301 65.5 -26.5 80.5s-39.167 22.5 -64.5 22.5c-8.66699 0 -17.834 -0.666992 -27.501 -2s-19.5 -3.33301 -29.5 -6c-10.667 -3.33301 -21.667 -7.16602 -33 -11.499
s-22 -8.83301 -32 -13.5v-335l18 -16l47 -5v-36h-218v36l53 5l17 16v612h-77v31l122 36v0z" />
    <glyph glyph-name="i" unicode="i" horiz-adv-x="280" 
d="M151 486h38v-429l17 -16l54 -5v-36h-225v36l53 5l17 16v362h-70v31l116 36v0zM154 708c19.333 0 33.666 -5.83105 42.999 -17.498s14 -24.834 14 -39.501s-4.66699 -28 -14 -40s-23.666 -18 -42.999 -18c-18.667 0 -32.667 5.66699 -42 17s-14.333 23.666 -15 36.999v1.5
v1.5v1.5v1.5c0.666992 14 5.66699 26.833 15 38.5s23.333 17.167 42 16.5v0z" />
    <glyph glyph-name="j" unicode="j" horiz-adv-x="266" 
d="M109 419l-71 0.000976562v31l116 36h38v-402v-1.5v-1.5v-6v-6c0 -46.667 -4.16699 -92.334 -12.5 -137.001s-34.5 -82.334 -78.5 -113.001c-13.333 -9.33301 -28 -17 -44 -23s-32.333 -9.66699 -49 -11c-2 -0.666992 -3.83301 -1 -5.5 -1h-5.5h-6.5
c-2.33301 0 -4.83301 0.333008 -7.5 1c-2.66699 0 -5.16699 0.166992 -7.5 0.5s-4.5 0.833008 -6.5 1.5c-15.333 2.66699 -26.833 8.5 -34.5 17.5s-11.5 19.167 -11.5 30.5c0 2 0.166992 3.83301 0.5 5.5s0.5 3.5 0.5 5.5c2 8.66699 6.16699 16.834 12.5 24.501
s14.5 14.167 24.5 19.5l96 -60c18 8.66699 30.5 22 37.5 40s11.167 37 12.5 57c1.33301 9.33301 2 18.5 2 27.5v26.5v2.5v2.5v433v0zM88 651.001c0 19.333 5.83203 33.498 17.499 42.498s24.5 13.5 38.5 13.5c15.333 0 29.166 -4.66699 41.499 -14
s18.5 -22.666 18.5 -39.999v-8.5c0 -3 -0.666992 -6.16699 -2 -9.5c-3.33301 -14 -10.166 -24.333 -20.499 -31s-21.166 -10 -32.499 -10h-1.5h-1.5c-14.667 0.666992 -28 5.83398 -40 15.501s-18 23.5 -18 41.5v0z" />
    <glyph glyph-name="k" unicode="k" horiz-adv-x="517" 
d="M26 0v36l53 5l17 16v612h-77v31l122 36h38v-481h19l153 171l-7 14l-45 4v37h190v-37l-64 -8l-137 -145l176 -248l64 -5v-38h-156v33l-135 194h-58v-170l18 -16l47 -5v-36h-218v0z" />
    <glyph glyph-name="l" unicode="l" horiz-adv-x="282" 
d="M28 0v36l59 5l17 16v612h-77v31l122 36h39v-679l17 -16l57 -5v-36h-234v0z" />
    <glyph glyph-name="m" unicode="m" horiz-adv-x="843" 
d="M454 424l14.001 8.00195l14 8c22 12.667 45 24.167 69 34.5s48.333 15.833 73 16.5h3.5h3.5c1.33301 -0.666992 2.5 -1 3.5 -1h3.5c42.667 -4 72.834 -20.333 90.501 -49s26.5 -62.667 26.5 -102v-282l17 -16l53 -5v-36h-218v36l47 5l18 16v265
c-0.666992 38 -9.16699 64.5 -25.5 79.5s-36.5 22.5 -60.5 22.5c-10 0 -20.5 -1 -31.5 -3s-22.167 -4.66699 -33.5 -8c-8.66699 -2.66699 -17.334 -5.83398 -26.001 -9.50098l-26 -11.5v-335l18 -16l47 -5v-36h-213v36l48 5l17 16v265
c-0.666992 38 -9.16699 64.5 -25.5 79.5s-36.5 22.5 -60.5 22.5c-10.667 0 -21.834 -1.16699 -33.501 -3.5s-23.5 -5.5 -35.5 -9.5c-8 -2.66699 -16 -5.66699 -24 -9l-23 -10v-335l17 -16l48 -5v-36h-219v36l54 5l17 16v362h-71v31l116 36h38v-54
c2 1.33301 4.16699 2.66602 6.5 3.99902s4.5 2.33301 6.5 3l41 21.5c14 7 28 12.833 42 17.5c11.333 4 22.5 7.16699 33.5 9.5s21.833 3.5 32.5 3.5c20.667 0 40.167 -5 58.5 -15s34.833 -27.333 49.5 -52v0z" />
    <glyph glyph-name="n" unicode="n" horiz-adv-x="568" 
d="M30 0l0.000976562 35.998l54 5l17 16v362h-71v31l116 36h38v-54c3.33301 1.33301 6.5 2.83301 9.5 4.5s5.83301 3.5 8.5 5.5c22.667 12 46.167 23 70.5 33s49.5 15.333 75.5 16c4.66699 0 9.5 -0.166992 14.5 -0.5s9.83301 -1.16602 14.5 -2.49902
c39.333 -6.66699 66.333 -24.167 81 -52.5s22 -60.5 22 -96.5v-282l17 -16l54 -5v-36h-219v36l48 5l17 16v265c0 38.667 -8.83301 65.5 -26.5 80.5s-39.167 22.5 -64.5 22.5c-8.66699 0 -17.834 -0.666992 -27.501 -2s-19.5 -3.33301 -29.5 -6
c-10.667 -3.33301 -21.667 -7.16602 -33 -11.499s-22 -8.83301 -32 -13.5v-335l17 -16l48 -5v-36h-219v0z" />
    <glyph glyph-name="o" unicode="o" horiz-adv-x="539" 
d="M269 491c76.667 0 134.332 -25.6689 172.999 -77.002s58.334 -107.666 59.001 -168.999v-1.5v-1.5c0 -62.667 -19.333 -119.834 -58 -171.501s-96.667 -77.5 -174 -77.5c-76.667 0 -134.334 25.667 -173.001 77s-58 108.333 -58 171s19.333 119.834 58 171.501
s96.334 77.834 173.001 78.501v0zM268.998 446.998c-46.667 0 -81.5 -21.5 -104.5 -64.5s-34.833 -90.167 -35.5 -141.5v-1.5v-1.5c0.666992 -50.667 12.667 -97.334 36 -140.001s58 -64 104 -64c46.667 0 81.5 21.5 104.5 64.5s34.5 90.167 34.5 141.5v1.5v1.5
c0 50.667 -11.667 97.334 -35 140.001s-58 64 -104 64v0z" />
    <glyph glyph-name="p" unicode="p" horiz-adv-x="551" 
d="M23 -217l-0.000976562 36l54 5l16 16v579h-70v31l116 36h38v-55c22 15.333 44.833 29 68.5 41s49.834 18.333 78.501 19c58.667 0 104.167 -22.167 136.5 -66.5s50.5 -93.166 54.5 -146.499c0.666992 -3.33301 1 -6.83301 1 -10.5v-10.5
c0 -56.667 -15 -109.334 -45 -158.001s-73.667 -80 -131 -94c-6 -1.33301 -11.833 -2.5 -17.5 -3.5s-11.167 -1.5 -16.5 -1.5c-5.33301 -0.666992 -10.833 -1.16699 -16.5 -1.5s-11.5 -0.5 -17.5 -0.5c-16 0 -32 0.666992 -48 2s-31.667 3.33301 -47 6v-166l17 -16l64 -5
v-36h-235v0zM176.999 58c14 -4.66699 28 -8.50293 42 -11.5029s28.333 -4.5 43 -4.5c6 0 12 0.333008 18 1s12 1.66699 18 3c40 8 70.333 28.333 91 61s33 67.667 37 105c0.666992 5.33301 1.16699 10.5 1.5 15.5s0.5 9.83301 0.5 14.5v5.5v4.5
c-1.33301 56.667 -15 99.834 -41 129.501s-59 44.834 -99 45.501c-16.667 0 -34.5 -2.66699 -53.5 -8s-38.167 -13.666 -57.5 -24.999v-336v0z" />
    <glyph glyph-name="q" unicode="q" horiz-adv-x="531" 
d="M459 475c0 -3.33301 -0.167969 -6.66406 -0.500977 -9.99707s-0.5 -7 -0.5 -11c0 -1.33301 -0.166992 -2.83301 -0.5 -4.5s-0.5 -3.5 -0.5 -5.5c0 -5.33301 -0.166992 -10.5 -0.5 -15.5s-0.5 -10.167 -0.5 -15.5v-2.5v-2.5v-3v-3v-562l17 -16l53 -5v-36h-234v36l63 5
l17 16v193c-22.667 -10 -45.667 -18.167 -69 -24.5s-47 -9.5 -71 -9.5h-11.5c-3.66699 0 -7.16699 0.333008 -10.5 1c-3.33301 0 -6.83301 0.166992 -10.5 0.5s-7.5 0.833008 -11.5 1.5c-49.333 10.667 -86 36.334 -110 77.001s-37.333 84.667 -40 132
c-0.666992 3.33301 -1 6.66602 -1 9.99902v10c0 11.333 0.666992 22.666 2 33.999s3 22.333 5 33c12 57.333 40.833 102.833 86.5 136.5s96.834 52.5 153.501 56.5c2 0 4.16699 0.166992 6.5 0.5s4.83301 0.5 7.5 0.5h7.5h6.5c16.667 0 33.167 -0.833008 49.5 -2.5
s32.5 -3.83398 48.5 -6.50098c8 -0.666992 16.167 -1.83398 24.5 -3.50098s16.5 -3.16699 24.5 -4.5v0zM371.999 438.002c-12.667 3.33301 -25.5 5.99902 -38.5 7.99902s-26.167 3 -39.5 3c-12 0 -23.833 -1.16699 -35.5 -3.5s-23.167 -6.16602 -34.5 -11.499
c-32.667 -15.333 -56.334 -38.5 -71.001 -69.5s-23 -63.5 -25 -97.5c-0.666992 -3.33301 -1 -6.83301 -1 -10.5v-11.5v-2.5v-2.5v-2.5v-2.5v-9.5c0 -3 0.333008 -6.16699 1 -9.5c2.66699 -34 11.5 -65.833 26.5 -95.5s39.833 -50.5 74.5 -62.5
c8.66699 -2.66699 17.167 -4.66699 25.5 -6s16.833 -2 25.5 -2c15.333 0 30.833 1.5 46.5 4.5s30.834 6.5 45.501 10.5v373v0z" />
    <glyph glyph-name="r" unicode="r" horiz-adv-x="382" 
d="M30 0l-0.00292969 35.999l53 5l17 16v362h-70v31l116 36h38v-94l52.5 50c17.667 16 35.834 31.667 54.501 47c4 0.666992 7.83301 1 11.5 1h9.5c4.66699 0 9.33398 -0.166992 14.001 -0.5s9 -0.833008 13 -1.5c6 -1.33301 12 -2.83301 18 -4.5l19 -5.5v-86h-32
c-8 8.66699 -16 14.667 -24 18s-16.333 5 -25 5h-4h-4c-15.333 -2 -30.166 -8.16699 -44.499 -18.5s-27.5 -21.5 -39.5 -33.5l-10 -10c-3.33301 -3.33301 -6.33301 -6.66602 -9 -9.99902v-286l17 -16l70 -5v-36h-241v0z" />
    <glyph glyph-name="s" unicode="s" horiz-adv-x="401" 
d="M344 469l-0.00195312 -113h-49l-8 71c-8 4 -17.167 7.83301 -27.5 11.5s-21.166 6.16699 -32.499 7.5c-3.33301 0.666992 -6.83301 1.16699 -10.5 1.5s-7.16699 0.5 -10.5 0.5c-14.667 0 -28.167 -2.83301 -40.5 -8.5s-22.166 -16.167 -29.499 -31.5
c-2.66699 -5.33301 -4.5 -10.5 -5.5 -15.5s-1.5 -10.167 -1.5 -15.5c-0.666992 -21.333 8 -39.333 26 -54s37.667 -27.334 59 -38.001l30 -13.5c10 -4.33301 19 -8.5 27 -12.5c26.667 -12.667 47.834 -27.834 63.501 -45.501s23.834 -41.834 24.501 -72.501
c0 -26 -5.66699 -49.667 -17 -71s-28.333 -38.666 -51 -51.999c-16.667 -10 -35.667 -17 -57 -21s-43 -6 -65 -6c-22.667 -0.666992 -44.834 1 -66.501 5s-41.834 9.33301 -60.501 16v130h48l12 -85c9.33301 -4.66699 19.833 -8.83398 31.5 -12.501
s23.167 -6.16699 34.5 -7.5c4 -0.666992 8 -1.16699 12 -1.5s8 -0.5 12 -0.5c21.333 0 40.666 5 57.999 15s27.333 28.333 30 55c0 1.33301 0.166992 2.33301 0.5 3s0.5 1.66699 0.5 3v2.5v2.5c0 24.667 -10.167 44.5 -30.5 59.5s-42.833 27.833 -67.5 38.5l-18.5 8
c-6.33301 2.66699 -12.166 5.33398 -17.499 8.00098c-6.66699 2.66699 -13.167 5.5 -19.5 8.5s-11.833 6.16699 -16.5 9.5c-19.333 12.667 -34 27.834 -44 45.501s-15.667 35.834 -17 54.501v4v4c-0.666992 23.333 5.5 45.5 18.5 66.5s32.167 37.833 57.5 50.5
c14.667 6.66699 30.167 11.5 46.5 14.5s32.833 4.5 49.5 4.5h6.5h6.5c19.333 -0.666992 38.333 -3.16699 57 -7.5s36 -9.5 52 -15.5v0z" />
    <glyph glyph-name="t" unicode="t" horiz-adv-x="334" 
d="M88 421l-63.001 -0.000976562v31l65 29l45 93h36v-106h152v-47h-152v-264c0 -41.333 6.16699 -70 18.5 -86s32.833 -24 61.5 -24c9.33301 0 20 0.833008 32 2.5s25.333 3.83398 40 6.50098v-37c-20.667 -6.66699 -41.667 -11.667 -63 -15s-42.666 -5 -63.999 -5h-4.5
h-4.5h-8c-2.66699 0 -5.33398 0.333008 -8.00098 1c-12 0 -23.667 2 -35 6s-21.666 10.333 -30.999 19c-8 8 -12.833 17.167 -14.5 27.5s-2.5 20.833 -2.5 31.5v3.5v3.5v3.5v3.5v323v0z" />
    <glyph glyph-name="u" unicode="u" horiz-adv-x="569" 
d="M142 491l38 0.000976562v-331c0 -39.333 9.16699 -66.666 27.5 -81.999s40.833 -23 67.5 -23c8.66699 0 17.5 0.5 26.5 1.5s18.167 2.5 27.5 4.5c10.667 2.66699 21.5 6 32.5 10s21.5 8.33301 31.5 13v339h-70v31l115 37h38v-434l18 -16l47 -5v-36h-148v56
c-24 -16.667 -49.5 -31.334 -76.5 -44.001s-55.167 -19.334 -84.5 -20.001h-3.5h-3.5c-1.33301 0.666992 -2.5 1 -3.5 1h-3.5c-44.667 2.66699 -76 18.167 -94 46.5s-27 62.833 -27 103.5v280h-71v31l116 37v0z" />
    <glyph glyph-name="v" unicode="v" horiz-adv-x="494" 
d="M-4 481h216v-37l-53 -4l-12 -16l117 -327l128 327l-8 16l-54 4v37h177v-37l-59 -8l-175 -436h-56l-161 438l-60 6v37v0z" />
    <glyph glyph-name="w" unicode="w" horiz-adv-x="771" 
d="M-1 481h216v-37l-53 -4l-12 -16l91 -325l134 382h61l118 -382l102 325l-8 16l-54 4v37h177v-37l-56 -8l-142 -436h-63l-121 379l-135 -379h-62l-133 438l-60 6v37v0z" />
    <glyph glyph-name="x" unicode="x" horiz-adv-x="503" 
d="M18 481h215v-37l-46 -6l-5 -11l84 -130l91 128l-8 13l-48 6v37h180v-37l-56 -10l-132 -175l147 -214l60 -8v-37h-213v37l42 7l5 8l-93 149l-102 -145l5 -12l57 -7v-37h-189v37l57 8l144 193l-134 195l-61 11v37v0z" />
    <glyph glyph-name="y" unicode="y" horiz-adv-x="495" 
d="M0 481l215.999 0.000976562v-37l-53 -4l-12 -16l120 -311l125 311l-8 16l-54 4v37h178v-37l-58 -8l-200 -485c-4 -8 -8.33301 -17.167 -13 -27.5s-9.66699 -20.833 -15 -31.5c-14.667 -26.667 -32.667 -51.334 -54 -74.001s-46.666 -34 -75.999 -34
c-4.66699 0 -9.5 0.333008 -14.5 1s-10.167 1.66699 -15.5 3c-14.667 4.66699 -25.167 11.334 -31.5 20.001s-9.5 18.334 -9.5 29.001c0 3.33301 0.333008 6.66602 1 9.99902l2 10c2 6.66699 5 13.167 9 19.5s8.66699 12.166 14 17.499l95 -39c16 18 29.667 37.333 41 58
s21.333 41.667 30 63c2 4.66699 3.83301 9.5 5.5 14.5s3.5 9.5 5.5 13.5l-168 434l-60 6v37v0z" />
    <glyph glyph-name="z" unicode="z" horiz-adv-x="468" 
d="M45 0v50l268 385h-186l-14 -16l-11 -77h-47v139h361v-38l-277 -397h215l15 16l11 84h51v-146h-386v0z" />
    <glyph glyph-name="braceleft" unicode="{" horiz-adv-x="401" 
d="M344 469l-0.00195312 -113h-49l-8 71c-8 4 -17.167 7.83301 -27.5 11.5s-21.166 6.16699 -32.499 7.5c-3.33301 0.666992 -6.83301 1.16699 -10.5 1.5s-7.16699 0.5 -10.5 0.5c-14.667 0 -28.167 -2.83301 -40.5 -8.5s-22.166 -16.167 -29.499 -31.5
c-2.66699 -5.33301 -4.5 -10.5 -5.5 -15.5s-1.5 -10.167 -1.5 -15.5c-0.666992 -21.333 8 -39.333 26 -54s37.667 -27.334 59 -38.001l30 -13.5c10 -4.33301 19 -8.5 27 -12.5c26.667 -12.667 47.834 -27.834 63.501 -45.501s23.834 -41.834 24.501 -72.501
c0 -26 -5.66699 -49.667 -17 -71s-28.333 -38.666 -51 -51.999c-16.667 -10 -35.667 -17 -57 -21s-43 -6 -65 -6c-22.667 -0.666992 -44.834 1 -66.501 5s-41.834 9.33301 -60.501 16v130h48l12 -85c9.33301 -4.66699 19.833 -8.83398 31.5 -12.501
s23.167 -6.16699 34.5 -7.5c4 -0.666992 8 -1.16699 12 -1.5s8 -0.5 12 -0.5c21.333 0 40.666 5 57.999 15s27.333 28.333 30 55c0 1.33301 0.166992 2.33301 0.5 3s0.5 1.66699 0.5 3v2.5v2.5c0 24.667 -10.167 44.5 -30.5 59.5s-42.833 27.833 -67.5 38.5l-18.5 8
c-6.33301 2.66699 -12.166 5.33398 -17.499 8.00098c-6.66699 2.66699 -13.167 5.5 -19.5 8.5s-11.833 6.16699 -16.5 9.5c-19.333 12.667 -34 27.834 -44 45.501s-15.667 35.834 -17 54.501v4v4c-0.666992 23.333 5.5 45.5 18.5 66.5s32.167 37.833 57.5 50.5
c14.667 6.66699 30.167 11.5 46.5 14.5s32.833 4.5 49.5 4.5h6.5h6.5c19.333 -0.666992 38.333 -3.16699 57 -7.5s36 -9.5 52 -15.5v0zM58.998 736h55l87 -141l88 141h54l-110 -190h-64l-110 190v0z" />
    <glyph glyph-name="bar" unicode="|" horiz-adv-x="565" 
d="M383 568l-141.002 -0.00195312v47h141v54h-77v31l122 36h38v-121h64v-47h-64v-511l17 -16l48 -5v-36h-148v52c-29.333 -21.333 -57.166 -36.833 -83.499 -46.5s-51.166 -14.5 -74.499 -14.5c-58.667 0 -104.5 24.667 -137.5 74s-49.833 104.333 -50.5 165v5.5v5.5
c2.66699 62.667 24.5 119.834 65.5 171.501s105.5 77.5 193.5 77.5c13.333 0 27.333 -0.666992 42 -2s29.667 -3.66602 45 -6.99902v87v0zM382.998 88.998l0.000976562 342.999c-14.667 4.66699 -29.334 8.5 -44.001 11.5s-29.667 4.5 -45 4.5c-6 0 -12 -0.333008 -18 -1
s-12 -1.66699 -18 -3c-42.667 -9.33301 -74.667 -31.333 -96 -66s-33.666 -72 -36.999 -112c-0.666992 -4 -1 -7.83301 -1 -11.5v-11.5v-5.5v-4.5c1.33301 -58 15.833 -102 43.5 -132s61.834 -45 102.501 -45c17.333 0 35.666 2.83301 54.999 8.5
s38.666 13.834 57.999 24.501v0z" />
    <glyph glyph-name="braceright" unicode="}" horiz-adv-x="446" 
d="M425 42c-31.333 -17.333 -60.998 -29.8389 -88.998 -37.5059s-54.333 -11.5 -79 -11.5c-70.667 0 -124.834 25.833 -162.501 77.5s-56.834 108.834 -57.501 171.501v1.5v1.5c0 53.333 14.5 103.333 43.5 150s73.5 76.334 133.5 89.001
c13.333 3.33301 25.833 5.5 37.5 6.5s22.834 1.5 33.501 1.5c41.333 0 73 -8 95 -24s35.333 -33.667 40 -53c1.33301 -3.33301 2.16602 -6.66602 2.49902 -9.99902s0.5 -6.66602 0.5 -9.99902c0 -14.667 -4.5 -27.667 -13.5 -39s-21.5 -17 -37.5 -17
c-6.66699 0 -14.167 1.33301 -22.5 4s-17.166 6.66699 -26.499 12v82c-5.33301 3.33301 -10.833 6 -16.5 8s-11.5 3.33301 -17.5 4c-2.66699 0.666992 -5.5 1.16699 -8.5 1.5s-5.83301 0.5 -8.5 0.5c-10.667 0 -21.167 -1.5 -31.5 -4.5s-20.166 -7.16699 -29.499 -12.5
c-25.333 -14.667 -44.333 -35.5 -57 -62.5s-20.334 -55.167 -23.001 -84.5c-0.666992 -6 -1.16699 -11.833 -1.5 -17.5s-0.5 -11.167 -0.5 -16.5v-16c0 -5.33301 0.333008 -10.666 1 -15.999c4 -57.333 21.5 -99.666 52.5 -126.999s67.5 -41 109.5 -41
c10.667 0 21.667 0.833008 33 2.5s22.666 4.16699 33.999 7.5c10.667 4 21.667 8.5 33 13.5s22.333 10.833 33 17.5v-52v0zM309.002 735.994h99l-146 -190h-50l97 190v0z" />
    <glyph glyph-name="asciitilde" unicode="~" horiz-adv-x="446" 
d="M425 42c-31.333 -17.333 -60.998 -29.8389 -88.998 -37.5059s-54.333 -11.5 -79 -11.5c-70.667 0 -124.834 25.833 -162.501 77.5s-56.834 108.834 -57.501 171.501v1.5v1.5c0 53.333 14.5 103.333 43.5 150s73.5 76.334 133.5 89.001
c13.333 3.33301 25.833 5.5 37.5 6.5s22.834 1.5 33.501 1.5c41.333 0 73 -8 95 -24s35.333 -33.667 40 -53c1.33301 -3.33301 2.16602 -6.66602 2.49902 -9.99902s0.5 -6.66602 0.5 -9.99902c0 -14.667 -4.5 -27.667 -13.5 -39s-21.5 -17 -37.5 -17
c-6.66699 0 -14.167 1.33301 -22.5 4s-17.166 6.66699 -26.499 12v82c-5.33301 3.33301 -10.833 6 -16.5 8s-11.5 3.33301 -17.5 4c-2.66699 0.666992 -5.5 1.16699 -8.5 1.5s-5.83301 0.5 -8.5 0.5c-10.667 0 -21.167 -1.5 -31.5 -4.5s-20.166 -7.16699 -29.499 -12.5
c-25.333 -14.667 -44.333 -35.5 -57 -62.5s-20.334 -55.167 -23.001 -84.5c-0.666992 -6 -1.16699 -11.833 -1.5 -17.5s-0.5 -11.167 -0.5 -16.5v-16c0 -5.33301 0.333008 -10.666 1 -15.999c4 -57.333 21.5 -99.666 52.5 -126.999s67.5 -41 109.5 -41
c10.667 0 21.667 0.833008 33 2.5s22.666 4.16699 33.999 7.5c10.667 4 21.667 8.5 33 13.5s22.333 10.833 33 17.5v-52v0zM108.002 735.994h55l87 -141l88 141h54l-110 -190h-64l-110 190v0z" />
    <glyph glyph-name="endash" unicode="&#xa1;" horiz-adv-x="338" 
d="M145 503l48.001 -0.00195312l28 -382c0 -2.66699 0.166992 -5.66699 0.5 -9s0.833008 -6.66602 1.5 -9.99902c0 -4 0.333008 -8.16699 1 -12.5s1 -8.83301 1 -13.5v-4v-4c0 -16 -2.5 -31 -7.5 -45s-15.167 -23 -30.5 -27c-2.66699 -1.33301 -5.5 -2.16602 -8.5 -2.49902
s-5.83301 -0.5 -8.5 -0.5c-10 0 -19.333 2 -28 6s-15.334 10.333 -20.001 19c-2.66699 5.33301 -4.66699 11 -6 17s-2.33301 12 -3 18v6v6v7.5v6.5l2 21.5l2 20.5l28 382v0zM169.001 682.998c17.333 -0.666992 30.833 -6.66797 40.5 -18.001s14.834 -23.666 15.501 -36.999
v-1.5v-1.5c0 -12.667 -3.83301 -24.667 -11.5 -36s-19.834 -18 -36.501 -20h-2h-2c-0.666992 -0.666992 -1.33398 -1 -2.00098 -1h-2c-17.333 0 -30.666 5.83301 -39.999 17.5s-14.333 24.5 -15 38.5v1.5v1.5c0 14 4.5 26.833 13.5 38.5s22.833 17.5 41.5 17.5v0z" />
    <glyph glyph-name="cent" unicode="&#xa2;" horiz-adv-x="556" 
d="M273 601h44.999v-98c16 0 31.5 -0.833008 46.5 -2.5s30.167 -3.83398 45.5 -6.50098c8.66699 -2 17.5 -4.16699 26.5 -6.5l27.5 -7.5v-147h-45l-16 104c-4 2 -8 3.83301 -12 5.5s-8 3.16699 -12 4.5c-9.33301 3.33301 -19 5.83301 -29 7.5s-20.667 2.5 -32 2.5v-411
c11.333 0.666992 22.333 1.83398 33 3.50098s21 4.16699 31 7.5l10.5 4l10.5 4l14 109h47v-152c-4.66699 -1.33301 -9.5 -2.83301 -14.5 -4.5s-9.83301 -2.83398 -14.5 -3.50098c-18.667 -4.66699 -37.667 -8 -57 -10s-39.333 -3 -60 -3v-98h-45v100
c-64 9.33301 -115 36.333 -153 81s-56.667 100.334 -56 167.001c1.33301 68.667 20.333 124.167 57 166.5s87.334 69.833 152.001 82.5v101v0zM272.999 454c-41.333 -12.667 -71.501 -36.8311 -90.501 -72.498s-29.5 -74.167 -31.5 -115.5v-4.5v-4.5
c-0.666992 -2 -1 -3.83301 -1 -5.5v-4.5c0 -42.667 9.83301 -82.834 29.5 -120.501s50.834 -63.834 93.501 -78.501v406v0z" />
    <glyph glyph-name="sterling" unicode="&#xa3;" horiz-adv-x="556" 
d="M417 531l-0.00195312 93.998c-8.66699 2.66699 -17.334 4.66699 -26.001 6s-17.667 2 -27 2c-20 0 -39 -3.66699 -57 -11s-33 -19.666 -45 -36.999c-10.667 -15.333 -18.167 -34.333 -22.5 -57s-7.16602 -46 -8.49902 -70
c-0.666992 -13.333 -0.833984 -26.5 -0.500977 -39.5s0.5 -25.5 0.5 -37.5v-15v-14h188v-47h-188c0 -44.667 -6.66699 -87.834 -20 -129.501s-40 -75.5 -80 -101.5l2 -3c2.66699 0 5.33398 0.166992 8.00098 0.5s5.66699 0.833008 9 1.5l25 2
c8.66699 0.666992 17.334 1 26.001 1h305v-76h-469v57c21.333 8 40.666 17.667 57.999 29s30.333 28 39 50c4.66699 13.333 8 28 10 44s3.33301 32.667 4 50v27v27v10.5v10.5h-72v47h71v16v17c-0.666992 1.33301 -1 3 -1 5v6v11v11v10.5v10.5
c1.33301 37.333 6.83301 73.5 16.5 108.5s29.834 64.5 60.501 88.5c19.333 15.333 40.333 26.833 63 34.5s46 11.5 70 11.5c4 0 8 -0.166992 12 -0.5s8 -0.5 12 -0.5c12 -1.33301 24 -3.66602 36 -6.99902s23.667 -7.66602 35 -12.999
c14.667 -6.66699 26.5 -15.334 35.5 -26.001s15.5 -21.667 19.5 -33c0.666992 -3.33301 1.33398 -6.5 2.00098 -9.5s1 -6.16699 1 -9.5c0 -14.667 -5.16699 -27.5 -15.5 -38.5s-26.166 -16.5 -47.499 -16.5c-4.66699 0 -9.33398 0.333008 -14.001 1
s-9.66699 1.33398 -15 2.00098v0z" />
    <glyph glyph-name="Idieresis" unicode="&#xa4;" horiz-adv-x="833" 
d="M186 571l233 -233l232 233l40 -40l-232 -233l232 -232l-40 -40l-232 232l-233 -232l-40 40l233 232l-233 233l40 40v0z" />
    <glyph glyph-name="ae" unicode="&#xa5;" horiz-adv-x="556" 
d="M-5 671h211v-40l-52 -6l-9 -11l140 -274l153 266l-9 14l-55 11v40h185v-40l-55 -13l-110 -192h144v-42h-171l-59 -104h230v-42h-225v-178l16 -14l72 -5v-41h-258v41l70 5l18 14v178h-217v42h216l-53 104h-163v42h136l-99 195l-56 10v40v0z" />
    <glyph glyph-name="brokenbar" unicode="&#xa6;" 
 />
    <glyph glyph-name="section" unicode="&#xa7;" horiz-adv-x="500" 
d="M406 695l0.00390625 -129h-45l-10 80c-11.333 6 -23 11.333 -35 16s-24.333 8.33398 -37 11.001l-14.5 2c-5 0.666992 -9.83301 1 -14.5 1c-12 0 -23.667 -1.83301 -35 -5.5s-22.333 -10.167 -33 -19.5c-10 -8.66699 -17.167 -17.667 -21.5 -27
s-6.5 -18.666 -6.5 -27.999c0 -16 5.66699 -31.333 17 -46s25.333 -26.334 42 -35.001c2 -1.33301 4.16699 -2.5 6.5 -3.5s4.5 -2.16699 6.5 -3.5c9.33301 -4.66699 19.166 -9.33398 29.499 -14.001s20.833 -9.66699 31.5 -15c37.333 -18 71.666 -40.167 102.999 -66.5
s47 -62.166 47 -107.499v-0.5v-1.5v-1.5v-0.5c-0.666992 -37.333 -13 -69.333 -37 -96s-52.333 -47 -85 -61c22.667 -11.333 43.667 -24.833 63 -40.5s32 -36.5 38 -62.5c0.666992 -2.66699 1.16699 -5.16699 1.5 -7.5s0.5 -4.5 0.5 -6.5
c0.666992 -2.66699 1 -5.16699 1 -7.5v-7.5v-4v-5c-0.666992 -16 -4.83398 -32.167 -12.501 -48.5s-17.834 -30.5 -30.501 -42.5c-18.667 -18.667 -39.834 -31.667 -63.501 -39s-48.167 -11 -73.5 -11c-6.66699 0 -13.167 0.166992 -19.5 0.5s-12.833 0.833008 -19.5 1.5
c-19.333 2.66699 -38.5 6.5 -57.5 11.5s-36.833 10.833 -53.5 17.5l-2 127h48l14 -89c17.333 -8.66699 34.166 -15 50.499 -19s31.5 -6 45.5 -6c31.333 0 56.333 8.16699 75 24.5s28.334 35.166 29.001 56.499c0 4.66699 -0.333008 9 -1 13s-2 8.33301 -4 13
c-4.66699 12 -12.667 23.667 -24 35s-26.333 22 -45 32c-6 3.33301 -12.167 6.5 -18.5 9.5s-12.833 5.83301 -19.5 8.5l-8 4l-8 4c-39.333 18.667 -75.5 40.5 -108.5 65.5s-49.5 62.5 -49.5 112.5v2.5v2.5v2.5v2.5c2 40 14 70.833 36 92.5s49.333 40.5 82 56.5l-4 2
c-1.33301 0.666992 -2.66602 1.66699 -3.99902 3c-18.667 10 -36.167 21.5 -52.5 34.5s-27.833 29.833 -34.5 50.5c-0.666992 3.33301 -1.5 6.83301 -2.5 10.5s-1.83301 7.5 -2.5 11.5c-0.666992 3.33301 -1.16699 6.83301 -1.5 10.5s-0.5 7.16699 -0.5 10.5
c0 21.333 4.66699 41.333 14 60s23.333 34.334 42 47.001c19.333 13.333 40 22.666 62 27.999s44.667 8 68 8c5.33301 0 10.666 -0.166992 15.999 -0.5s10.666 -0.833008 15.999 -1.5c18.667 -1.33301 37.334 -4 56.001 -8s36.334 -8.66699 53.001 -14v0zM223.004 424
c-24.667 -12 -45.332 -27.501 -61.999 -46.501s-25 -41.5 -25 -67.5c0 -5.33301 0.333008 -11 1 -17s2 -12 4 -18c7.33301 -24 20.666 -43.167 39.999 -57.5s39.666 -26.833 60.999 -37.5c4.66699 -2 9 -4 13 -6l12 -6c2 -1.33301 4 -2.5 6 -3.5s4 -1.83301 6 -2.5
c21.333 15.333 40.5 32.833 57.5 52.5s25.833 42.834 26.5 69.501v3v3c-0.666992 0.666992 -1 1.5 -1 2.5v2.5c-2.66699 30 -14.834 53.833 -36.501 71.5s-45.167 32.167 -70.5 43.5c-5.33301 2.66699 -10.666 5.16699 -15.999 7.5s-10.666 4.5 -15.999 6.5v0z" />
    <glyph glyph-name="dieresis" unicode="&#xa8;" horiz-adv-x="10" 
 />
    <glyph glyph-name="copyright" unicode="&#xa9;" horiz-adv-x="901" 
d="M453 726c106 -0.666992 196.501 -38.999 271.501 -114.999s112.5 -167 112.5 -273c0 -104.667 -38.167 -194.5 -114.5 -269.5s-166.5 -112.5 -270.5 -112.5c-98.667 1.33301 -184.834 34.666 -258.501 99.999s-115.167 147.333 -124.5 246
c0 3.33301 -0.166992 6.33301 -0.5 9s-0.5 5.66699 -0.5 9c-0.666992 2.66699 -1 5.5 -1 8.5v8.5c0 104.667 37.667 195.667 113 273s166.333 116 273 116v0zM453.001 685.001c-96.667 0 -177.833 -34.833 -243.5 -104.5s-98.5 -150.5 -98.5 -242.5
c0 -5.33301 0.166992 -10.833 0.5 -16.5s0.833008 -11.167 1.5 -16.5c0 -6 0.5 -11.833 1.5 -17.5s1.83301 -11.167 2.5 -16.5c16 -78.667 55.833 -143.834 119.5 -195.501s135.5 -77.5 215.5 -77.5c93.333 0 173.5 33.833 240.5 101.5s100.5 147.834 100.5 240.501
c0 93.333 -33.333 174 -100 242s-146.667 102.333 -240 103v0zM609.002 127.001c-26 -8.66699 -50.6689 -15.168 -74.002 -19.501s-45.666 -6.5 -66.999 -6.5c-79.333 0 -140 24.167 -182 72.5s-64 101.5 -66 159.5v5v4c0 58 20.333 111 61 159s103.334 72 188.001 72
c20.667 0 42.667 -1.83301 66 -5.5s48 -9.16699 74 -16.5v-120h-43l-15 75c-14 7.33301 -27.667 12.666 -41 15.999s-26.666 5 -39.999 5c-44.667 0.666992 -82.834 -17.166 -114.501 -53.499s-47.5 -81.166 -47.5 -134.499c0 -4 0.166992 -8 0.5 -12s0.5 -8 0.5 -12
c4 -34.667 15.667 -67.167 35 -97.5s46 -50.833 80 -61.5c7.33301 -2 14.5 -3.5 21.5 -4.5s13.833 -1.5 20.5 -1.5c14.667 -0.666992 29.167 1 43.5 5s28.833 8.33301 43.5 13l13 84h43v-125v0z" />
    <glyph glyph-name="ellipsis" unicode="&#xaa;" horiz-adv-x="380" 
d="M251 375c-18.667 -11.333 -38 -21.5 -58 -30.5s-41.667 -13.833 -65 -14.5h-1.5h-1.5c-20.667 0 -39 5.33301 -55 16s-27.333 25.667 -34 45c-1.33301 4.66699 -2.5 9.16699 -3.5 13.5s-1.5 8.83301 -1.5 13.5c0 16 4.5 30.833 13.5 44.5s21.167 24.834 36.5 33.501
c11.333 6 25.166 11.667 41.499 17s32.833 10.333 49.5 15l42.5 9.5c13.667 3 25.834 5.83301 36.501 8.5v12.5v13.5v2.5v3.5c0 11.333 -1.5 22.333 -4.5 33s-10.167 19.334 -21.5 26.001c-6 3.33301 -12.333 5.83301 -19 7.5s-13.667 2.5 -21 2.5h-5.5h-5.5
c-8.66699 -0.666992 -17.167 -2.16699 -25.5 -4.5s-16.166 -4.83301 -23.499 -7.5v-58h-7h-8c-2.66699 -0.666992 -5.33398 -1 -8.00098 -1h-8h-2.5h-2.5c-8 0 -15.5 0.5 -22.5 1.5s-11.5 3.16699 -13.5 6.5c-1.33301 2.66699 -2.33301 5.16699 -3 7.5s-1 4.83301 -1 7.5
v2.5v2.5c0.666992 7.33301 3.5 14.5 8.5 21.5s10.5 12.833 16.5 17.5c1.33301 1.33301 2.83301 2.66602 4.5 3.99902s3.16699 2.33301 4.5 3c13.333 8 27.666 14.167 42.999 18.5s31.333 7.16602 48 8.49902c3.33301 0.666992 6.83301 1 10.5 1h10.5
c6.66699 0 13.167 -0.166992 19.5 -0.5s12.5 -0.833008 18.5 -1.5c30 -4 50.833 -15 62.5 -33s17.834 -40 18.501 -66v-203l12 -11l40 -4v-25h-106l-9 41v0zM251 398l0.00292969 123.001l-29.5 -7c-11 -2.66699 -22.5 -6 -34.5 -10
c-22.667 -7.33301 -43.334 -17 -62.001 -29s-28 -28.333 -28 -49v-6c0 -2 0.333008 -4 1 -6c3.33301 -17.333 10 -29.333 20 -36s21.667 -10.334 35 -11.001c6 0 12.167 0.5 18.5 1.5s12.5 2.5 18.5 4.5c7.33301 2 14.666 4.5 21.999 7.5l20 8.5
c3.33301 1.33301 6.66602 2.83301 9.99902 4.5l9 4.5v0z" />
    <glyph glyph-name="ydieresis" unicode="&#xab;" horiz-adv-x="442" 
d="M203 413v-66l-117 -107l117 -108v-65l-164 133v80l164 133v0zM401 413v-66l-118 -107l118 -108v-65l-164 133v80l164 133v0z" />
    <glyph glyph-name="emdash" unicode="&#xac;" 
 />
    <glyph glyph-name="uni00AD" unicode="&#xad;" horiz-adv-x="500" 
d="M151 597h198v-597h-198v597v0z" />
    <glyph glyph-name="registered" unicode="&#xae;" horiz-adv-x="901" 
d="M453 726c106 -0.666992 196.501 -38.999 271.501 -114.999s112.5 -167 112.5 -273c0 -104.667 -38.167 -194.5 -114.5 -269.5s-166.5 -112.5 -270.5 -112.5c-98.667 1.33301 -184.834 34.666 -258.501 99.999s-115.167 147.333 -124.5 246
c0 3.33301 -0.166992 6.33301 -0.5 9s-0.5 5.66699 -0.5 9c-0.666992 2.66699 -1 5.5 -1 8.5v8.5c0 104.667 37.667 195.667 113 273s166.333 116 273 116v0zM453.001 685.001c-96.667 0 -177.833 -34.833 -243.5 -104.5s-98.5 -150.5 -98.5 -242.5
c0 -5.33301 0.166992 -10.833 0.5 -16.5s0.833008 -11.167 1.5 -16.5c0 -6 0.5 -11.833 1.5 -17.5s1.83301 -11.167 2.5 -16.5c16 -78.667 55.833 -143.834 119.5 -195.501s135.5 -77.5 215.5 -77.5c93.333 0 173.5 33.833 240.5 101.5s100.5 147.834 100.5 240.501
c0 93.333 -33.333 174 -100 242s-146.667 102.333 -240 103v0zM254.002 560.001l210.996 -0.00195312h2h2h15h14c16 -0.666992 31.333 -2.66699 46 -6s28.334 -9.66602 41.001 -18.999c12.667 -10 22.667 -22.167 30 -36.5s11.333 -29.5 12 -45.5v-1.5v-0.5
c0 -29.333 -10.167 -52.166 -30.5 -68.499s-42.5 -28.833 -66.5 -37.5c-4 -1.33301 -8 -2.5 -12 -3.5s-8 -2.16699 -12 -3.5c32.667 -8 55.167 -19.833 67.5 -35.5s21.5 -32.167 27.5 -49.5c0.666992 -2 1.33398 -4.33301 2.00098 -7s1.33398 -5 2.00098 -7
c6.66699 -20.667 16 -38.667 28 -54s38 -23.666 78 -24.999v-36c-12 -2.66699 -23.167 -4.5 -33.5 -5.5s-20.166 -1.5 -29.499 -1.5c-34 0 -60 9.66699 -78 29s-34.333 51.666 -49 96.999c-12 36 -28.333 57 -49 63s-46.667 9 -78 9h-3.5h-3.5v-150l63 -7v-37h-191v36l53 7
v352l-58 10v34v0zM386.998 354.999l4.50195 -0.00195312h4.5h20.5c7 0 14.167 0.333008 21.5 1c20.667 1.33301 40.5 5.83301 59.5 13.5s31.833 22.834 38.5 45.501c1.33301 3.33301 2.16602 6.83301 2.49902 10.5s0.5 7.16699 0.5 10.5v4v4
c-1.33301 9.33301 -4 18.333 -8 27s-9.66699 16.334 -17 23.001c-12.667 12 -27.5 19.667 -44.5 23s-34.167 5.33301 -51.5 6h-8h-7c-2.66699 -0.666992 -5.33398 -1 -8.00098 -1h-8v-167v0z" />
    <glyph glyph-name="glyph263" unicode="&#xaf;" 
 />
    <glyph glyph-name="glyph264" unicode="&#xb0;" 
 />
    <glyph glyph-name="mu" unicode="&#xb1;" 
 />
    <glyph glyph-name="uni00B2" unicode="&#xb2;" 
 />
    <glyph glyph-name="uni00B3" unicode="&#xb3;" 
 />
    <glyph glyph-name="acute" unicode="&#xb4;" horiz-adv-x="-32751" 
 />
    <glyph glyph-name="oslash" unicode="&#xb5;" 
 />
    <glyph glyph-name="paragraph" unicode="&#xb6;" horiz-adv-x="484" 
d="M458 671l0.000976562 -36l-62 -10v-703h-49v708h-76v-349c-8.66699 0 -17.5 0.166992 -26.5 0.5s-17.833 0.833008 -26.5 1.5c-26.667 2 -52.667 6.66699 -78 14s-47.666 21 -66.999 41c-17.333 18 -29.5 38.667 -36.5 62s-10.5 47.333 -10.5 72c0 8 0.333008 16 1 24
l2 23c9.33301 63.333 36.666 104.5 81.999 123.5s95.666 28.5 150.999 28.5h196v0z" />
    <glyph glyph-name="glyph265" unicode="&#xb7;" 
 />
    <glyph glyph-name="bullet" unicode="&#xb8;" horiz-adv-x="7870" 
 />
    <glyph glyph-name="uni00B9" unicode="&#xb9;" 
 />
    <glyph glyph-name="Agrave" unicode="&#xba;" horiz-adv-x="405" 
d="M202 677c58 0 101.5 -18.167 130.5 -54.5s43.5 -76.166 43.5 -119.499v-1.5v-1.5c-0.666992 -42.667 -15.5 -82 -44.5 -118s-72.167 -54 -129.5 -54s-100.5 18.167 -129.5 54.5s-43.833 76.166 -44.5 119.499c0 44 14.5 84.167 43.5 120.5s72.5 54.5 130.5 54.5v0z
M202 647c-34.667 0 -60.667 -15 -78 -45s-26.333 -63 -27 -99v-1.5v-1.5c0.666992 -35.333 9.66699 -67.833 27 -97.5s43.333 -44.5 78 -44.5s60.667 15 78 45s26 63 26 99v1.5v1.5c0 35.333 -8.66699 67.833 -26 97.5s-43.333 44.5 -78 44.5v0z" />
    <glyph glyph-name="Ydieresis" unicode="&#xbb;" horiz-adv-x="442" 
d="M46 413l163 -133v-80l-163 -133v65l117 108l-117 107v66v0zM243 413l164 -133v-80l-164 -133v65l117 108l-117 107v66v0z" />
    <glyph glyph-name="onequarter" unicode="&#xbc;" 
 />
    <glyph glyph-name="glyph243" unicode="&#xbd;" horiz-adv-x="-32762" 
 />
    <glyph glyph-name="threequarters" unicode="&#xbe;" 
 />
    <glyph glyph-name="oe" unicode="&#xbf;" horiz-adv-x="486" 
d="M243 503h52v-146c-41.333 -18 -75.833 -40.5 -103.5 -67.5s-41.5 -62.167 -41.5 -105.5c0 -6.66699 0.333008 -14 1 -22s2 -16 4 -24c7.33301 -36.667 24 -62.5 50 -77.5s56 -22.833 90 -23.5l41 99h5.5h4.5c23.333 0.666992 40.833 -4.16602 52.5 -14.499
s17.5 -22.5 17.5 -36.5c0 -3.33301 -0.333008 -6.83301 -1 -10.5s-1.66699 -7.5 -3 -11.5c-6.66699 -16 -20.334 -30.833 -41.001 -44.5s-48 -21.834 -82 -24.501c-2 0 -4.16699 -0.166992 -6.5 -0.5s-4.5 -0.5 -6.5 -0.5h-6.5h-6.5c-51.333 0 -97.5 14.5 -138.5 43.5
s-62.5 71.833 -64.5 128.5v2v2v1v2c0 57.333 18.833 101.833 56.5 133.5s79.834 58.5 126.501 80.5v117v0zM269 683c17.333 -0.666992 30.833 -6.66797 40.5 -18.001s14.834 -23.666 15.501 -36.999v-1.5v-1.5c0 -12.667 -3.83301 -24.667 -11.5 -36
s-19.834 -18 -36.501 -20h-2h-2c-0.666992 -0.666992 -1.33398 -1 -2.00098 -1h-2c-17.333 0 -30.666 5.83301 -39.999 17.5s-14.333 24.5 -15 38.5v1.5v1.5c0 14 4.5 26.833 13.5 38.5s22.833 17.5 41.5 17.5v0z" />
    <glyph glyph-name="currency" unicode="&#xc0;" horiz-adv-x="639" 
d="M284 679h66l240 -626l61 -12v-41h-228v41l62 5l7 14l-72 191h-236l-71 -191l10 -14l65 -5v-41h-195v41l57 12l234 626v0zM300 574l-99 -277h202l-103 277v0zM173 932h99l97 -190h-50l-146 190v0z" />
    <glyph glyph-name="breve" unicode="&#xc1;" horiz-adv-x="639" 
d="M284 679h66l240 -626l61 -12v-41h-228v41l62 5l7 14l-72 191h-236l-71 -191l10 -14l65 -5v-41h-195v41l57 12l234 626v0zM300 574l-99 -277h202l-103 277v0zM378 932h99l-146 -190h-50l97 190v0z" />
    <glyph glyph-name="tilde" unicode="&#xc2;" horiz-adv-x="639" 
d="M284 679h66l240 -626l61 -12v-41h-228v41l62 5l7 14l-72 191h-236l-71 -191l10 -14l65 -5v-41h-195v41l57 12l234 626v0zM300 574l-99 -277h202l-103 277v0zM287 932h64l110 -190h-54l-88 141l-87 -141h-55l110 190v0z" />
    <glyph glyph-name="guilsinglleft" unicode="&#xc3;" horiz-adv-x="639" 
d="M284 679h66l240 -626l61 -12v-41h-228v41l62 5l7 14l-72 191h-236l-71 -191l10 -14l65 -5v-41h-195v41l57 12l234 626v0zM300 574l-99 -277h202l-103 277v0zM430 904l41.001 0.00390625v-2v-1v-2v-2c0 -35.333 -7.5 -62.833 -22.5 -82.5s-35.833 -29.5 -62.5 -29.5
c-9.33301 0 -19.333 1.33301 -30 4s-21.667 6.33398 -33 11.001l-13.5 6.5l-15.5 7.5c-2.66699 1.33301 -5.16699 2.66602 -7.5 3.99902s-4.5 2.33301 -6.5 3c-7.33301 3.33301 -14.333 6.16602 -21 8.49902s-13 3.5 -19 3.5c-8.66699 0 -16.167 -3.5 -22.5 -10.5
s-9.5 -19.833 -9.5 -38.5v-4c0 -1.33301 0.333008 -2.33301 1 -3v-4v-4h-43c0.666992 35.333 7.5 64.166 20.5 86.499s32.5 33.833 58.5 34.5c9.33301 0 19.166 -1.5 29.499 -4.5s21.166 -7.16699 32.499 -12.5c1.33301 -0.666992 2.83301 -1.33398 4.5 -2.00098
s3.16699 -1.33398 4.5 -2.00098c2 -1.33301 4 -2.5 6 -3.5s4 -2.16699 6 -3.5l36.5 -17c11.667 -5.33301 21.834 -8 30.501 -8c10.667 0 19.167 4.83301 25.5 14.5s9.5 27.167 9.5 52.5v0z" />
    <glyph glyph-name="Adieresis" unicode="&#xc4;" horiz-adv-x="639" 
d="M284 679h66l240 -626l61 -12v-41h-228v41l62 5l7 14l-72 191h-236l-71 -191l10 -14l65 -5v-41h-195v41l57 12l234 626v0zM300 574l-99 -277h202l-103 277v0zM412 887c16 -0.666992 28.168 -6.16699 36.501 -16.5s12.5 -22.166 12.5 -35.499
c0 -11.333 -3.33301 -21.833 -10 -31.5s-17.667 -15.5 -33 -17.5h-2h-2c-0.666992 -0.666992 -1.33398 -1 -2.00098 -1h-2c-15.333 0 -27 5 -35 15s-12.333 21 -13 33v1.5v1.5c0 13.333 4.16699 25.166 12.5 35.499s20.833 15.5 37.5 15.5v0zM226.001 887
c16 -0.666992 28.1641 -6.16797 36.4971 -16.501s12.5 -22.166 12.5 -35.499c0 -11.333 -3.33301 -21.833 -10 -31.5s-17.667 -15.5 -33 -17.5h-2h-1h-2h-2c-15.333 0 -27.166 5.16699 -35.499 15.5s-12.5 21.833 -12.5 34.5v1.5v1.5c0.666992 12 4.83398 23 12.501 33
s19.834 15 36.501 15v0z" />
    <glyph glyph-name="Aring" unicode="&#xc5;" horiz-adv-x="639" 
d="M284 679h66l240 -626l61 -12v-41h-228v41l62 5l7 14l-72 191h-236l-71 -191l10 -14l65 -5v-41h-195v41l57 12l234 626v0zM300 574l-99 -277h202l-103 277v0zM307 963c36 -0.666992 64.168 -13.166 84.501 -37.499s30.833 -50.833 31.5 -79.5v-1.5v-1.5
c0 -21.333 -5.66699 -41.833 -17 -61.5s-29.333 -34.5 -54 -44.5c-6.66699 -2.66699 -13.834 -4.83398 -21.501 -6.50098s-15.167 -2.5 -22.5 -2.5c-26.667 0 -51.5 8.66699 -74.5 26s-37.167 40 -42.5 68c0 2 -0.166992 3.83301 -0.5 5.5s-0.5 3.5 -0.5 5.5
c-0.666992 2 -1 3.83301 -1 5.5v5.5c0 31.333 11.5 59 34.5 83s50.833 36 83.5 36v0zM307.001 919.001c-24 0 -41.8311 -7.33301 -53.498 -22s-17.5 -31 -17.5 -49v-1.5v-1.5c0 -18 6 -34.5 18 -49.5s28.667 -22.833 50 -23.5h4c1.33301 0 3 0.333008 5 1
c1.33301 0 2.66602 0.166992 3.99902 0.5s2.66602 0.5 3.99902 0.5c19.333 4 33.666 12.833 42.999 26.5s14.333 28.167 15 43.5c0 18.667 -6.16699 35.667 -18.5 51s-30.166 23.333 -53.499 24v0z" />
    <glyph glyph-name="Oslash" unicode="&#xc6;" horiz-adv-x="866" 
d="M283 671h518v-146h-55l-14 85l-14 15h-206v-253h138l15 14l10 73h46v-220h-46l-10 72l-15 15h-138v-280h242l15 17l16 100h53v-163h-486v41l57 5l17 14v191h-233l-120 -191l5 -14l64 -5v-41h-197v41l56 9l349 561l-9 14l-58 6v40v0zM426 627l-207 -329h207v329v0z" />
    <glyph glyph-name="Ccedilla" unicode="&#xc7;" horiz-adv-x="632" 
d="M353 0l36.001 0.00195312v-60c2.66699 1.33301 5.16699 2 7.5 2h7.5c22.667 0 42 -5.83301 58 -17.5s24 -28.834 24 -51.501v-4v-4c-0.666992 -2.66699 -1.16699 -5.33398 -1.5 -8.00098s-0.833008 -5.33398 -1.5 -8.00098c-6 -22.667 -18.167 -39.167 -36.5 -49.5
s-38.166 -16.833 -59.499 -19.5c-2 0 -3.83301 -0.166992 -5.5 -0.5s-3.16699 -0.5 -4.5 -0.5h-4.5h-5.5c-11.333 0 -22.833 1 -34.5 3s-23.167 4.33301 -34.5 7v35c1.33301 0 2.66602 -0.166992 3.99902 -0.5s3 -0.5 5 -0.5c5.33301 -1.33301 11.166 -2.5 17.499 -3.5
s12.833 -1.83301 19.5 -2.5c2 -0.666992 4.33301 -1 7 -1h7c13.333 0 25.5 1.83301 36.5 5.5s19.167 10.834 24.5 21.501c2 4 3.5 7.5 4.5 10.5s1.5 6.16699 1.5 9.5c0.666992 10.667 -4 18.5 -14 23.5s-21 8.16699 -33 9.5h-5.5h-5.5h-4
c-1.33301 0 -2.33301 -0.333008 -3 -1h-3.5h-3.5v105v0zM588.001 23.002c-31.333 -10.667 -63.6709 -18.8301 -97.0039 -24.4971s-66.666 -8.5 -99.999 -8.5h-7.5h-7.5c-98 2 -177.667 35.833 -239 101.5s-92.666 147.167 -93.999 244.5
c-1.33301 100 30.334 182.667 95.001 248s146.667 98.333 246 99c34.667 0.666992 69 -2.5 103 -9.5s67.667 -15.167 101 -24.5v-154h-56l-15 91l-13 18c-20.667 9.33301 -41 16.166 -61 20.499s-39.667 6.5 -59 6.5c-70 0 -127.167 -27.167 -171.5 -81.5
s-66.5 -124.5 -66.5 -210.5c0 -90.667 23.333 -162.834 70 -216.501s108.334 -80.834 185.001 -81.501c14.667 0 29.667 1 45 3s31.333 5.33301 48 10l16 16l24 111h54v-158v0z" />
    <glyph glyph-name="ring" unicode="&#xc8;" horiz-adv-x="576" 
d="M33 0v41l57 5l17 14v551l-17 14l-57 6v40h479v-146h-56l-14 85l-14 15h-231v-253h164l14 14l10 73h47v-220h-47l-10 72l-14 15h-164v-280h268l14 17l17 100h52v-163h-515v0zM142 932h99l97 -190h-50l-146 190v0z" />
    <glyph glyph-name="Eacute" unicode="&#xc9;" horiz-adv-x="576" 
d="M33 0v41l57 5l17 14v551l-17 14l-57 6v40h479v-146h-56l-14 85l-14 15h-231v-253h164l14 14l10 73h47v-220h-47l-10 72l-14 15h-164v-280h268l14 17l17 100h52v-163h-515v0zM347 932h99l-146 -190h-50l97 190v0z" />
    <glyph glyph-name="macron" unicode="&#xca;" horiz-adv-x="576" 
d="M33 0v41l57 5l17 14v551l-17 14l-57 6v40h479v-146h-56l-14 85l-14 15h-231v-253h164l14 14l10 73h47v-220h-47l-10 72l-14 15h-164v-280h268l14 17l17 100h52v-163h-515v0zM256 932h64l110 -190h-54l-88 141l-87 -141h-55l110 190v0z" />
    <glyph glyph-name="dotaccent" unicode="&#xcb;" horiz-adv-x="576" 
d="M33 0v41l57 5l17 14v551l-17 14l-57 6v40h479v-146h-56l-14 85l-14 15h-231v-253h164l14 14l10 73h47v-220h-47l-10 72l-14 15h-164v-280h268l14 17l17 100h52v-163h-515v0zM381 887c16 -0.666992 28.168 -6.16699 36.501 -16.5s12.5 -22.166 12.5 -35.499
c0 -11.333 -3.33301 -21.833 -10 -31.5s-17.667 -15.5 -33 -17.5h-2h-2c-0.666992 -0.666992 -1.33398 -1 -2.00098 -1h-2c-15.333 0 -27 5 -35 15s-12.333 21 -13 33v1.5v1.5c0 13.333 4.16699 25.166 12.5 35.499s20.833 15.5 37.5 15.5v0zM195.001 887
c16 -0.666992 28.1641 -6.16797 36.4971 -16.501s12.5 -22.166 12.5 -35.499c0 -11.333 -3.33301 -21.833 -10 -31.5s-17.667 -15.5 -33 -17.5h-2h-1h-2h-2c-15.333 0 -27.166 5.16699 -35.499 15.5s-12.5 21.833 -12.5 34.5v1.5v1.5c0.666992 12 4.83398 23 12.501 33
s19.834 15 36.501 15v0z" />
    <glyph glyph-name="caron" unicode="&#xcc;" horiz-adv-x="324" 
d="M35 0v41l64 5l16 14v551l-16 14l-64 6v40h254v-40l-64 -6l-17 -14v-551l17 -14l64 -5v-41h-254v0zM16 932h99l97 -190h-50l-146 190v0z" />
    <glyph glyph-name="cedilla" unicode="&#xcd;" horiz-adv-x="324" 
d="M35 0v41l64 5l16 14v551l-16 14l-64 6v40h254v-40l-64 -6l-17 -14v-551l17 -14l64 -5v-41h-254v0zM221 932h99l-146 -190h-50l97 190v0z" />
    <glyph glyph-name="hungarumlaut" unicode="&#xce;" horiz-adv-x="324" 
d="M35 0v41l64 5l16 14v551l-16 14l-64 6v40h254v-40l-64 -6l-17 -14v-551l17 -14l64 -5v-41h-254v0zM130 932h64l110 -190h-54l-88 141l-87 -141h-55l110 190v0z" />
    <glyph glyph-name="ogonek" unicode="&#xcf;" horiz-adv-x="324" 
d="M35 0v41l64 5l16 14v551l-16 14l-64 6v40h254v-40l-64 -6l-17 -14v-551l17 -14l64 -5v-41h-254v0zM255 887c16 -0.666992 28.168 -6.16699 36.501 -16.5s12.5 -22.166 12.5 -35.499c0 -11.333 -3.33301 -21.833 -10 -31.5s-17.667 -15.5 -33 -17.5h-2h-2
c-0.666992 -0.666992 -1.33398 -1 -2.00098 -1h-2c-15.333 0 -27 5 -35 15s-12.333 21 -13 33v1.5v1.5c0 13.333 4.16699 25.166 12.5 35.499s20.833 15.5 37.5 15.5v0zM69.001 887c16 -0.666992 28.1641 -6.16797 36.4971 -16.501s12.5 -22.166 12.5 -35.499
c0 -11.333 -3.33301 -21.833 -10 -31.5s-17.667 -15.5 -33 -17.5h-2h-1h-2h-2c-15.333 0 -27.166 5.16699 -35.499 15.5s-12.5 21.833 -12.5 34.5v1.5v1.5c0.666992 12 4.83398 23 12.501 33s19.834 15 36.501 15v0z" />
    <glyph glyph-name="glyph232" unicode="&#xd0;" horiz-adv-x="6478" 
 />
    <glyph glyph-name="Ntilde" unicode="&#xd1;" horiz-adv-x="713" 
d="M29 0v41l61 8l18 19v543l-18 14l-64 6v40h188v-25l341 -512v470l-18 18l-60 9v40h211v-40l-61 -9l-18 -18v-604h-66l-381 568v-500l18 -19l60 -8v-41h-211v0zM467 904l41.001 0.00390625v-2v-1v-2v-2c0 -35.333 -7.5 -62.833 -22.5 -82.5s-35.833 -29.5 -62.5 -29.5
c-9.33301 0 -19.333 1.33301 -30 4s-21.667 6.33398 -33 11.001l-13.5 6.5l-15.5 7.5c-2.66699 1.33301 -5.16699 2.66602 -7.5 3.99902s-4.5 2.33301 -6.5 3c-7.33301 3.33301 -14.333 6.16602 -21 8.49902s-13 3.5 -19 3.5c-8.66699 0 -16.167 -3.5 -22.5 -10.5
s-9.5 -19.833 -9.5 -38.5v-4c0 -1.33301 0.333008 -2.33301 1 -3v-4v-4h-43c0.666992 35.333 7.5 64.166 20.5 86.499s32.5 33.833 58.5 34.5c9.33301 0 19.166 -1.5 29.499 -4.5s21.166 -7.16699 32.499 -12.5c1.33301 -0.666992 2.83301 -1.33398 4.5 -2.00098
s3.16699 -1.33398 4.5 -2.00098c2 -1.33301 4 -2.5 6 -3.5s4 -2.16699 6 -3.5l36.5 -17c11.667 -5.33301 21.834 -8 30.501 -8c10.667 0 19.167 4.83301 25.5 14.5s9.5 27.167 9.5 52.5v0z" />
    <glyph glyph-name="scaron" unicode="&#xd2;" horiz-adv-x="731" 
d="M366 688c104.667 -0.666992 184.504 -37.6689 239.504 -111.002s82.833 -154 83.5 -242v-1.5v-1.5c0 -74.667 -19.833 -144.667 -59.5 -210s-100.834 -107.666 -183.501 -126.999c-14 -3.33301 -27.667 -5.83301 -41 -7.5s-26.666 -2.5 -39.999 -2.5
c-82.667 -0.666992 -153.834 26.833 -213.501 82.5s-94.834 126.834 -105.501 213.501c-0.666992 4 -1.16699 8.16699 -1.5 12.5s-0.5 8.83301 -0.5 13.5c-0.666992 4.66699 -1 9.16699 -1 13.5v12.5c-0.666992 93.333 27.666 175.833 84.999 247.5
s136.666 107.5 237.999 107.5v0zM366.004 633.998c-74 0 -129.333 -30.833 -166 -92.5s-55.334 -129.5 -56.001 -203.5v-1.5v-1.5c0.666992 -74.667 19.5 -143 56.5 -205s92.167 -93 165.5 -93c68.667 0 119.834 25 153.501 75s54.167 105.333 61.5 166l2 28.5
c0.666992 9.66699 1 19.167 1 28.5s-0.333008 19 -1 29s-1.66699 20 -3 30c-7.33301 60 -27.833 115 -61.5 165s-84.5 75 -152.5 75v0zM219.004 931.998h99l97 -190h-50l-146 190v0z" />
    <glyph glyph-name="Lslash" unicode="&#xd3;" horiz-adv-x="731" 
d="M366 688c104.667 -0.666992 184.504 -37.6689 239.504 -111.002s82.833 -154 83.5 -242v-1.5v-1.5c0 -74.667 -19.833 -144.667 -59.5 -210s-100.834 -107.666 -183.501 -126.999c-14 -3.33301 -27.667 -5.83301 -41 -7.5s-26.666 -2.5 -39.999 -2.5
c-82.667 -0.666992 -153.834 26.833 -213.501 82.5s-94.834 126.834 -105.501 213.501c-0.666992 4 -1.16699 8.16699 -1.5 12.5s-0.5 8.83301 -0.5 13.5c-0.666992 4.66699 -1 9.16699 -1 13.5v12.5c-0.666992 93.333 27.666 175.833 84.999 247.5
s136.666 107.5 237.999 107.5v0zM366.004 633.998c-74 0 -129.333 -30.833 -166 -92.5s-55.334 -129.5 -56.001 -203.5v-1.5v-1.5c0.666992 -74.667 19.5 -143 56.5 -205s92.167 -93 165.5 -93c68.667 0 119.834 25 153.501 75s54.167 105.333 61.5 166l2 28.5
c0.666992 9.66699 1 19.167 1 28.5s-0.333008 19 -1 29s-1.66699 20 -3 30c-7.33301 60 -27.833 115 -61.5 165s-84.5 75 -152.5 75v0zM424.004 931.998h99l-146 -190h-50l97 190v0z" />
    <glyph glyph-name="lslash" unicode="&#xd4;" horiz-adv-x="731" 
d="M366 688c104.667 -0.666992 184.504 -37.6689 239.504 -111.002s82.833 -154 83.5 -242v-1.5v-1.5c0 -74.667 -19.833 -144.667 -59.5 -210s-100.834 -107.666 -183.501 -126.999c-14 -3.33301 -27.667 -5.83301 -41 -7.5s-26.666 -2.5 -39.999 -2.5
c-82.667 -0.666992 -153.834 26.833 -213.501 82.5s-94.834 126.834 -105.501 213.501c-0.666992 4 -1.16699 8.16699 -1.5 12.5s-0.5 8.83301 -0.5 13.5c-0.666992 4.66699 -1 9.16699 -1 13.5v12.5c-0.666992 93.333 27.666 175.833 84.999 247.5
s136.666 107.5 237.999 107.5v0zM366.004 633.998c-74 0 -129.333 -30.833 -166 -92.5s-55.334 -129.5 -56.001 -203.5v-1.5v-1.5c0.666992 -74.667 19.5 -143 56.5 -205s92.167 -93 165.5 -93c68.667 0 119.834 25 153.501 75s54.167 105.333 61.5 166l2 28.5
c0.666992 9.66699 1 19.167 1 28.5s-0.333008 19 -1 29s-1.66699 20 -3 30c-7.33301 60 -27.833 115 -61.5 165s-84.5 75 -152.5 75v0zM333.004 931.998h64l110 -190h-54l-88 141l-87 -141h-55l110 190v0z" />
    <glyph glyph-name="guilsinglright" unicode="&#xd5;" horiz-adv-x="731" 
d="M366 688c104.667 -0.666992 184.504 -37.6689 239.504 -111.002s82.833 -154 83.5 -242v-1.5v-1.5c0 -74.667 -19.833 -144.667 -59.5 -210s-100.834 -107.666 -183.501 -126.999c-14 -3.33301 -27.667 -5.83301 -41 -7.5s-26.666 -2.5 -39.999 -2.5
c-82.667 -0.666992 -153.834 26.833 -213.501 82.5s-94.834 126.834 -105.501 213.501c-0.666992 4 -1.16699 8.16699 -1.5 12.5s-0.5 8.83301 -0.5 13.5c-0.666992 4.66699 -1 9.16699 -1 13.5v12.5c-0.666992 93.333 27.666 175.833 84.999 247.5
s136.666 107.5 237.999 107.5v0zM366.004 633.998c-74 0 -129.333 -30.833 -166 -92.5s-55.334 -129.5 -56.001 -203.5v-1.5v-1.5c0.666992 -74.667 19.5 -143 56.5 -205s92.167 -93 165.5 -93c68.667 0 119.834 25 153.501 75s54.167 105.333 61.5 166l2 28.5
c0.666992 9.66699 1 19.167 1 28.5s-0.333008 19 -1 29s-1.66699 20 -3 30c-7.33301 60 -27.833 115 -61.5 165s-84.5 75 -152.5 75v0zM476.004 903.998l41.001 0.00390625v-2v-1v-2v-2c0 -35.333 -7.5 -62.833 -22.5 -82.5s-35.833 -29.5 -62.5 -29.5
c-9.33301 0 -19.333 1.33301 -30 4s-21.667 6.33398 -33 11.001l-13.5 6.5l-15.5 7.5c-2.66699 1.33301 -5.16699 2.66602 -7.5 3.99902s-4.5 2.33301 -6.5 3c-7.33301 3.33301 -14.333 6.16602 -21 8.49902s-13 3.5 -19 3.5c-8.66699 0 -16.167 -3.5 -22.5 -10.5
s-9.5 -19.833 -9.5 -38.5v-4c0 -1.33301 0.333008 -2.33301 1 -3v-4v-4h-43c0.666992 35.333 7.5 64.166 20.5 86.499s32.5 33.833 58.5 34.5c9.33301 0 19.166 -1.5 29.499 -4.5s21.166 -7.16699 32.499 -12.5c1.33301 -0.666992 2.83301 -1.33398 4.5 -2.00098
s3.16699 -1.33398 4.5 -2.00098c2 -1.33301 4 -2.5 6 -3.5s4 -2.16699 6 -3.5l36.5 -17c11.667 -5.33301 21.834 -8 30.501 -8c10.667 0 19.167 4.83301 25.5 14.5s9.5 27.167 9.5 52.5v0z" />
    <glyph glyph-name="Odieresis" unicode="&#xd6;" horiz-adv-x="731" 
d="M366 688c104.667 -0.666992 184.504 -37.6689 239.504 -111.002s82.833 -154 83.5 -242v-1.5v-1.5c0 -74.667 -19.833 -144.667 -59.5 -210s-100.834 -107.666 -183.501 -126.999c-14 -3.33301 -27.667 -5.83301 -41 -7.5s-26.666 -2.5 -39.999 -2.5
c-82.667 -0.666992 -153.834 26.833 -213.501 82.5s-94.834 126.834 -105.501 213.501c-0.666992 4 -1.16699 8.16699 -1.5 12.5s-0.5 8.83301 -0.5 13.5c-0.666992 4.66699 -1 9.16699 -1 13.5v12.5c-0.666992 93.333 27.666 175.833 84.999 247.5
s136.666 107.5 237.999 107.5v0zM366.004 633.998c-74 0 -129.333 -30.833 -166 -92.5s-55.334 -129.5 -56.001 -203.5v-1.5v-1.5c0.666992 -74.667 19.5 -143 56.5 -205s92.167 -93 165.5 -93c68.667 0 119.834 25 153.501 75s54.167 105.333 61.5 166l2 28.5
c0.666992 9.66699 1 19.167 1 28.5s-0.333008 19 -1 29s-1.66699 20 -3 30c-7.33301 60 -27.833 115 -61.5 165s-84.5 75 -152.5 75v0zM458.004 886.998c16 -0.666992 28.168 -6.16699 36.501 -16.5s12.5 -22.166 12.5 -35.499c0 -11.333 -3.33301 -21.833 -10 -31.5
s-17.667 -15.5 -33 -17.5h-2h-2c-0.666992 -0.666992 -1.33398 -1 -2.00098 -1h-2c-15.333 0 -27 5 -35 15s-12.333 21 -13 33v1.5v1.5c0 13.333 4.16699 25.166 12.5 35.499s20.833 15.5 37.5 15.5v0zM272.005 886.998c16 -0.666992 28.1641 -6.16797 36.4971 -16.501
s12.5 -22.166 12.5 -35.499c0 -11.333 -3.33301 -21.833 -10 -31.5s-17.667 -15.5 -33 -17.5h-2h-1h-2h-2c-15.333 0 -27.166 5.16699 -35.499 15.5s-12.5 21.833 -12.5 34.5v1.5v1.5c0.666992 12 4.83398 23 12.501 33s19.834 15 36.501 15v0z" />
    <glyph glyph-name="multiply" unicode="&#xd7;" 
 />
    <glyph glyph-name="plusminus" unicode="&#xd8;" horiz-adv-x="731" 
d="M578 748l41 -24l-61 -100c32 -28.667 58.667 -59 80 -91s35.666 -69.667 42.999 -113c2.66699 -13.333 4.66699 -27 6 -41s2 -28 2 -42v-6v-7c-1.33301 -39.333 -8 -78.333 -20 -117s-30.333 -73.667 -55 -105c-30 -38 -67 -66.833 -111 -86.5s-90 -29.5 -138 -29.5
c-26.667 -0.666992 -52 2 -76 8s-47.667 14.333 -71 25c-3.33301 1.33301 -6.5 2.83301 -9.5 4.5s-5.83301 3.16699 -8.5 4.5l-62 -104l-39 27l63 105c-18.667 17.333 -35.5 35.666 -50.5 54.999s-27.5 40.666 -37.5 63.999c-9.33301 21.333 -16.666 43.833 -21.999 67.5
s-8.33301 47.5 -9 71.5c-0.666992 4 -1 7.66699 -1 11v10v7.5v7.5c1.33301 32.667 6.16602 64.834 14.499 96.501s20.5 60.834 36.5 87.501c28.667 48.667 67.334 86.5 116.001 113.5s101 40.5 157 40.5c23.333 0 46 -2.5 68 -7.5s43.667 -11.5 65 -19.5
c3.33301 -1.33301 6.83301 -2.83301 10.5 -4.5s7.16699 -3.16699 10.5 -4.5l58 96v0zM521 562l-285.999 -477.999c19.333 -14.667 40.666 -26 63.999 -34s47 -12 71 -12c17.333 0 34.5 2.33301 51.5 7s33.5 11.667 49.5 21c34.667 21.333 60.667 50 78 86s29 73.667 35 113
c2 12 3.33301 24 4 36s1 23.667 1 35c0 34.667 -3 66.167 -9 94.5s-16 56.166 -30 83.499c-4 8 -8.5 16 -13.5 24l-15.5 24v0zM486.001 595.001c-18.667 13.333 -38.668 23.167 -60.001 29.5s-42.666 9.5 -63.999 9.5c-26.667 0 -52.667 -5.33301 -78 -16
s-48 -27.334 -68 -50.001c-25.333 -28.667 -44 -62.667 -56 -102s-18 -80 -18 -122v-6v-5c1.33301 -38.667 7 -76.167 17 -112.5s24 -69.166 42 -98.499l285 473v0z" />
    <glyph glyph-name="Thorn" unicode="&#xd9;" horiz-adv-x="694" 
d="M25 671l245.004 0.00195312v-40l-62 -6l-17 -14v-362v-17c0 -6 0.333008 -11.667 1 -17c0.666992 -18.667 3 -37.167 7 -55.5s11.667 -34.833 23 -49.5c13.333 -17.333 30 -30.5 50 -39.5s41 -15.167 63 -18.5c5.33301 -0.666992 11 -1.16699 17 -1.5
s11.667 -0.5 17 -0.5s10.833 0.166992 16.5 0.5s11.167 0.833008 16.5 1.5c22 2.66699 43 8.66699 63 18s36.667 22.666 50 39.999c12 16 20 33.167 24 51.5s6.33301 37.166 7 56.499c0.666992 5.33301 1 10.5 1 15.5v15.5v355l-19 18l-60 9v40h211v-40l-60 -9l-18 -18v-364
v-19.5c0 -6.33301 -0.333008 -12.833 -1 -19.5c-0.666992 -24 -3.83398 -47.833 -9.50098 -71.5s-16.834 -45.5 -33.501 -65.5c-18.667 -22 -41.334 -38.167 -68.001 -48.5s-54.334 -17.5 -83.001 -21.5c-9.33301 -1.33301 -18.666 -2.33301 -27.999 -3
s-18.666 -1 -27.999 -1c-10 0 -20.167 0.333008 -30.5 1s-20.5 2 -30.5 4c-28 3.33301 -54.833 10.333 -80.5 21s-47.5 26.667 -65.5 48c-16.667 20 -27.834 41.833 -33.501 65.5s-8.83398 47.5 -9.50098 71.5c-0.666992 6.66699 -1 13.167 -1 19.5v19.5v371l-17 14l-57 6
v40v0zM201.004 932.002h99l97 -190h-50l-146 190v0z" />
    <glyph glyph-name="Eth" unicode="&#xda;" horiz-adv-x="694" 
d="M25 671l245.004 0.00195312v-40l-62 -6l-17 -14v-362v-17c0 -6 0.333008 -11.667 1 -17c0.666992 -18.667 3 -37.167 7 -55.5s11.667 -34.833 23 -49.5c13.333 -17.333 30 -30.5 50 -39.5s41 -15.167 63 -18.5c5.33301 -0.666992 11 -1.16699 17 -1.5
s11.667 -0.5 17 -0.5s10.833 0.166992 16.5 0.5s11.167 0.833008 16.5 1.5c22 2.66699 43 8.66699 63 18s36.667 22.666 50 39.999c12 16 20 33.167 24 51.5s6.33301 37.166 7 56.499c0.666992 5.33301 1 10.5 1 15.5v15.5v355l-19 18l-60 9v40h211v-40l-60 -9l-18 -18v-364
v-19.5c0 -6.33301 -0.333008 -12.833 -1 -19.5c-0.666992 -24 -3.83398 -47.833 -9.50098 -71.5s-16.834 -45.5 -33.501 -65.5c-18.667 -22 -41.334 -38.167 -68.001 -48.5s-54.334 -17.5 -83.001 -21.5c-9.33301 -1.33301 -18.666 -2.33301 -27.999 -3
s-18.666 -1 -27.999 -1c-10 0 -20.167 0.333008 -30.5 1s-20.5 2 -30.5 4c-28 3.33301 -54.833 10.333 -80.5 21s-47.5 26.667 -65.5 48c-16.667 20 -27.834 41.833 -33.501 65.5s-8.83398 47.5 -9.50098 71.5c-0.666992 6.66699 -1 13.167 -1 19.5v19.5v371l-17 14l-57 6
v40v0zM406.004 932.002h99l-146 -190h-50l97 190v0z" />
    <glyph glyph-name="eth" unicode="&#xdb;" horiz-adv-x="694" 
d="M25 671l245.004 0.00195312v-40l-62 -6l-17 -14v-362v-17c0 -6 0.333008 -11.667 1 -17c0.666992 -18.667 3 -37.167 7 -55.5s11.667 -34.833 23 -49.5c13.333 -17.333 30 -30.5 50 -39.5s41 -15.167 63 -18.5c5.33301 -0.666992 11 -1.16699 17 -1.5
s11.667 -0.5 17 -0.5s10.833 0.166992 16.5 0.5s11.167 0.833008 16.5 1.5c22 2.66699 43 8.66699 63 18s36.667 22.666 50 39.999c12 16 20 33.167 24 51.5s6.33301 37.166 7 56.499c0.666992 5.33301 1 10.5 1 15.5v15.5v355l-19 18l-60 9v40h211v-40l-60 -9l-18 -18v-364
v-19.5c0 -6.33301 -0.333008 -12.833 -1 -19.5c-0.666992 -24 -3.83398 -47.833 -9.50098 -71.5s-16.834 -45.5 -33.501 -65.5c-18.667 -22 -41.334 -38.167 -68.001 -48.5s-54.334 -17.5 -83.001 -21.5c-9.33301 -1.33301 -18.666 -2.33301 -27.999 -3
s-18.666 -1 -27.999 -1c-10 0 -20.167 0.333008 -30.5 1s-20.5 2 -30.5 4c-28 3.33301 -54.833 10.333 -80.5 21s-47.5 26.667 -65.5 48c-16.667 20 -27.834 41.833 -33.501 65.5s-8.83398 47.5 -9.50098 71.5c-0.666992 6.66699 -1 13.167 -1 19.5v19.5v371l-17 14l-57 6
v40v0zM315.004 932.002h64l110 -190h-54l-88 141l-87 -141h-55l110 190v0z" />
    <glyph glyph-name="Udieresis" unicode="&#xdc;" horiz-adv-x="694" 
d="M25 671l245.004 0.00195312v-40l-62 -6l-17 -14v-362v-17c0 -6 0.333008 -11.667 1 -17c0.666992 -18.667 3 -37.167 7 -55.5s11.667 -34.833 23 -49.5c13.333 -17.333 30 -30.5 50 -39.5s41 -15.167 63 -18.5c5.33301 -0.666992 11 -1.16699 17 -1.5
s11.667 -0.5 17 -0.5s10.833 0.166992 16.5 0.5s11.167 0.833008 16.5 1.5c22 2.66699 43 8.66699 63 18s36.667 22.666 50 39.999c12 16 20 33.167 24 51.5s6.33301 37.166 7 56.499c0.666992 5.33301 1 10.5 1 15.5v15.5v355l-19 18l-60 9v40h211v-40l-60 -9l-18 -18v-364
v-19.5c0 -6.33301 -0.333008 -12.833 -1 -19.5c-0.666992 -24 -3.83398 -47.833 -9.50098 -71.5s-16.834 -45.5 -33.501 -65.5c-18.667 -22 -41.334 -38.167 -68.001 -48.5s-54.334 -17.5 -83.001 -21.5c-9.33301 -1.33301 -18.666 -2.33301 -27.999 -3
s-18.666 -1 -27.999 -1c-10 0 -20.167 0.333008 -30.5 1s-20.5 2 -30.5 4c-28 3.33301 -54.833 10.333 -80.5 21s-47.5 26.667 -65.5 48c-16.667 20 -27.834 41.833 -33.501 65.5s-8.83398 47.5 -9.50098 71.5c-0.666992 6.66699 -1 13.167 -1 19.5v19.5v371l-17 14l-57 6
v40v0zM440.004 887.002c16 -0.666992 28.168 -6.16699 36.501 -16.5s12.5 -22.166 12.5 -35.499c0 -11.333 -3.33301 -21.833 -10 -31.5s-17.667 -15.5 -33 -17.5h-2h-2c-0.666992 -0.666992 -1.33398 -1 -2.00098 -1h-2c-15.333 0 -27 5 -35 15s-12.333 21 -13 33v1.5v1.5
c0 13.333 4.16699 25.166 12.5 35.499s20.833 15.5 37.5 15.5v0zM254.005 887.002c16 -0.666992 28.1641 -6.16797 36.4971 -16.501s12.5 -22.166 12.5 -35.499c0 -11.333 -3.33301 -21.833 -10 -31.5s-17.667 -15.5 -33 -17.5h-2h-1h-2h-2
c-15.333 0 -27.166 5.16699 -35.499 15.5s-12.5 21.833 -12.5 34.5v1.5v1.5c0.666992 12 4.83398 23 12.501 33s19.834 15 36.501 15v0z" />
    <glyph glyph-name="Yacute" unicode="&#xdd;" 
 />
    <glyph glyph-name="glyph236" unicode="&#xde;" horiz-adv-x="-25552" 
 />
    <glyph glyph-name="germandbls" unicode="&#xdf;" horiz-adv-x="609" 
d="M483 465c-1.33301 0 -2.83301 0.170898 -4.5 0.503906s-3.16699 0.5 -4.5 0.5h-5.5h-4.5h-1.5h-1.5c-21.333 -0.666992 -41.333 -5.83398 -60 -15.501s-29.334 -26.834 -32.001 -51.501v-4.5v-4.5c0 -23.333 8.83301 -42 26.5 -56s37.834 -27.333 60.501 -40l8 -4l8 -4
c12 -6 24 -12.667 36 -20s22.667 -15.333 32 -24c14 -12.667 24.167 -27.334 30.5 -44.001s9.5 -33.667 9.5 -51v-4v-4c-1.33301 -20 -6.5 -39.667 -15.5 -59s-21.5 -35.666 -37.5 -48.999c-16.667 -13.333 -34.167 -22.5 -52.5 -27.5s-37.166 -7.5 -56.499 -7.5
c-4.66699 0 -9.66699 0.166992 -15 0.5s-10.333 0.833008 -15 1.5c-15.333 1.33301 -30.5 3.33301 -45.5 6s-29.5 5.66699 -43.5 9v132h50l10 -87c9.33301 -6 19.666 -10.833 30.999 -14.5s22.666 -5.5 33.999 -5.5c12 0 23.5 2.33301 34.5 7s20.5 12.334 28.5 23.001
c6 8 10.667 16.667 14 26s5 18.666 5 27.999c0 4.66699 -0.333008 9.16699 -1 13.5s-1.66699 8.83301 -3 13.5c-4.66699 15.333 -12.834 28 -24.501 38s-24.5 18.667 -38.5 26c-1.33301 1.33301 -2.83301 2.5 -4.5 3.5s-3.5 1.83301 -5.5 2.5l-12 6c-4 2 -7.66699 4 -11 6
c-28.667 14.667 -55 32 -79 52s-36.333 47 -37 81c0 3.33301 0.166992 6.83301 0.5 10.5s0.833008 7.16699 1.5 10.5c5.33301 31.333 19.5 56.666 42.5 75.999s48.833 32.666 77.5 39.999c2.66699 11.333 5 22.833 7 34.5s3 23.5 3 35.5c0 5.33301 -0.333008 11 -1 17
s-1.66699 12 -3 18c-5.33301 25.333 -16.666 46.5 -33.999 63.5s-39.333 25.5 -66 25.5c-28.667 0.666992 -54.167 -8.5 -76.5 -27.5s-38.5 -41.5 -48.5 -67.5c-8 -20.667 -13.167 -42 -15.5 -64s-3.5 -44.333 -3.5 -67v-9.5v-9.5v-9.5v-9.5v-373l8 -18l66 -5v-35h-229v38
l58 4l11 15v392c-0.666992 74.667 19.833 142 61.5 202s101.167 90 178.5 90c5.33301 0 10.833 -0.166992 16.5 -0.5s11.5 -0.833008 17.5 -1.5c52.667 -6.66699 88.834 -25.5 108.501 -56.5s29.5 -66.5 29.5 -106.5c0 -6 -0.166992 -12.167 -0.5 -18.5
s-0.833008 -12.5 -1.5 -18.5c-1.33301 -12.667 -3.33301 -25.167 -6 -37.5s-5.66699 -24.5 -9 -36.5v0z" />
    <glyph glyph-name="agrave" unicode="&#xe0;" horiz-adv-x="507" 
d="M334 58c-24.667 -16 -50.3369 -30.3262 -77.0039 -42.9932s-55.667 -19.334 -87 -20.001c-28.667 -0.666992 -54 6.33301 -76 21s-37.333 36.334 -46 65.001c-0.666992 3.33301 -1.5 6.66602 -2.5 9.99902s-1.5 6.66602 -1.5 9.99902
c-0.666992 3.33301 -1.16699 6.66602 -1.5 9.99902s-0.5 6.66602 -0.5 9.99902c0 22.667 5.83301 43.667 17.5 63s27.834 35.333 48.501 48c14.667 8.66699 32.834 16.834 54.501 24.501s44.167 14.5 67.5 20.5c18.667 5.33301 37 10.166 55 14.499l49 11.5v10
c0 3.33301 0.333008 6.66602 1 9.99902v10.5v10.5c0 17.333 -2 34.166 -6 50.499s-13.667 29.5 -29 39.5c-8 5.33301 -16.5 9 -25.5 11s-18.5 3 -28.5 3h-6h-6c-12 -1.33301 -23.833 -3.5 -35.5 -6.5s-22.5 -6.5 -32.5 -10.5v-84c-2 0 -4.66699 -0.166992 -8 -0.5
s-7 -0.5 -11 -0.5s-8 -0.166992 -12 -0.5s-8 -0.5 -12 -0.5h-2h-2c-10.667 0 -20.667 0.833008 -30 2.5s-15.666 4.83398 -18.999 9.50098c-2 3.33301 -3.33301 6.83301 -4 10.5l-2 10.5v4.5c0 1.66699 0.333008 3.16699 1 4.5c2 10.667 6.5 21.167 13.5 31.5
s14.5 18.833 22.5 25.5c1.33301 1.33301 2.83301 2.66602 4.5 3.99902s3.5 2.66602 5.5 3.99902c18.667 12.667 39 22 61 28s44.333 9.66699 67 11c4 0.666992 7.83301 1 11.5 1h11.5h8h8c5.33301 -0.666992 10.833 -1.16699 16.5 -1.5s10.834 -0.833008 15.501 -1.5
c40.667 -6 68.667 -21.833 84 -47.5s23.333 -57.167 24 -94.5v-290l17 -16l53 -5v-36h-141l-13 58v0zM333.997 92.0068l-0.000976562 176.002c-11.333 -3.33301 -24.5 -7 -39.5 -11s-30.167 -8.66699 -45.5 -14c-30 -10 -57.5 -23.5 -82.5 -40.5s-37.5 -40.167 -37.5 -69.5
c0 -2.66699 0.166992 -5.5 0.5 -8.5s0.833008 -6.16699 1.5 -9.5c4.66699 -24.667 13.667 -42 27 -52s29 -15 47 -15c7.33301 0 14.833 0.666992 22.5 2s15.167 3 22.5 5c10.667 3.33301 21.334 7.16602 32.001 11.499s20.667 9.16602 30 14.499c4 1.33301 7.83301 3 11.5 5
l10.5 6v0zM106.996 736.009h99l97 -190h-50l-146 190v0z" />
    <glyph glyph-name="aacute" unicode="&#xe1;" horiz-adv-x="507" 
d="M334 58c-24.667 -16 -50.3369 -30.3262 -77.0039 -42.9932s-55.667 -19.334 -87 -20.001c-28.667 -0.666992 -54 6.33301 -76 21s-37.333 36.334 -46 65.001c-0.666992 3.33301 -1.5 6.66602 -2.5 9.99902s-1.5 6.66602 -1.5 9.99902
c-0.666992 3.33301 -1.16699 6.66602 -1.5 9.99902s-0.5 6.66602 -0.5 9.99902c0 22.667 5.83301 43.667 17.5 63s27.834 35.333 48.501 48c14.667 8.66699 32.834 16.834 54.501 24.501s44.167 14.5 67.5 20.5c18.667 5.33301 37 10.166 55 14.499l49 11.5v10
c0 3.33301 0.333008 6.66602 1 9.99902v10.5v10.5c0 17.333 -2 34.166 -6 50.499s-13.667 29.5 -29 39.5c-8 5.33301 -16.5 9 -25.5 11s-18.5 3 -28.5 3h-6h-6c-12 -1.33301 -23.833 -3.5 -35.5 -6.5s-22.5 -6.5 -32.5 -10.5v-84c-2 0 -4.66699 -0.166992 -8 -0.5
s-7 -0.5 -11 -0.5s-8 -0.166992 -12 -0.5s-8 -0.5 -12 -0.5h-2h-2c-10.667 0 -20.667 0.833008 -30 2.5s-15.666 4.83398 -18.999 9.50098c-2 3.33301 -3.33301 6.83301 -4 10.5l-2 10.5v4.5c0 1.66699 0.333008 3.16699 1 4.5c2 10.667 6.5 21.167 13.5 31.5
s14.5 18.833 22.5 25.5c1.33301 1.33301 2.83301 2.66602 4.5 3.99902s3.5 2.66602 5.5 3.99902c18.667 12.667 39 22 61 28s44.333 9.66699 67 11c4 0.666992 7.83301 1 11.5 1h11.5h8h8c5.33301 -0.666992 10.833 -1.16699 16.5 -1.5s10.834 -0.833008 15.501 -1.5
c40.667 -6 68.667 -21.833 84 -47.5s23.333 -57.167 24 -94.5v-290l17 -16l53 -5v-36h-141l-13 58v0zM333.997 92.0068l-0.000976562 176.002c-11.333 -3.33301 -24.5 -7 -39.5 -11s-30.167 -8.66699 -45.5 -14c-30 -10 -57.5 -23.5 -82.5 -40.5s-37.5 -40.167 -37.5 -69.5
c0 -2.66699 0.166992 -5.5 0.5 -8.5s0.833008 -6.16699 1.5 -9.5c4.66699 -24.667 13.667 -42 27 -52s29 -15 47 -15c7.33301 0 14.833 0.666992 22.5 2s15.167 3 22.5 5c10.667 3.33301 21.334 7.16602 32.001 11.499s20.667 9.16602 30 14.499c4 1.33301 7.83301 3 11.5 5
l10.5 6v0zM311.996 736.009h99l-146 -190h-50l97 190v0z" />
    <glyph glyph-name="acircumflex" unicode="&#xe2;" horiz-adv-x="507" 
d="M334 58c-24.667 -16 -50.3369 -30.3262 -77.0039 -42.9932s-55.667 -19.334 -87 -20.001c-28.667 -0.666992 -54 6.33301 -76 21s-37.333 36.334 -46 65.001c-0.666992 3.33301 -1.5 6.66602 -2.5 9.99902s-1.5 6.66602 -1.5 9.99902
c-0.666992 3.33301 -1.16699 6.66602 -1.5 9.99902s-0.5 6.66602 -0.5 9.99902c0 22.667 5.83301 43.667 17.5 63s27.834 35.333 48.501 48c14.667 8.66699 32.834 16.834 54.501 24.501s44.167 14.5 67.5 20.5c18.667 5.33301 37 10.166 55 14.499l49 11.5v10
c0 3.33301 0.333008 6.66602 1 9.99902v10.5v10.5c0 17.333 -2 34.166 -6 50.499s-13.667 29.5 -29 39.5c-8 5.33301 -16.5 9 -25.5 11s-18.5 3 -28.5 3h-6h-6c-12 -1.33301 -23.833 -3.5 -35.5 -6.5s-22.5 -6.5 -32.5 -10.5v-84c-2 0 -4.66699 -0.166992 -8 -0.5
s-7 -0.5 -11 -0.5s-8 -0.166992 -12 -0.5s-8 -0.5 -12 -0.5h-2h-2c-10.667 0 -20.667 0.833008 -30 2.5s-15.666 4.83398 -18.999 9.50098c-2 3.33301 -3.33301 6.83301 -4 10.5l-2 10.5v4.5c0 1.66699 0.333008 3.16699 1 4.5c2 10.667 6.5 21.167 13.5 31.5
s14.5 18.833 22.5 25.5c1.33301 1.33301 2.83301 2.66602 4.5 3.99902s3.5 2.66602 5.5 3.99902c18.667 12.667 39 22 61 28s44.333 9.66699 67 11c4 0.666992 7.83301 1 11.5 1h11.5h8h8c5.33301 -0.666992 10.833 -1.16699 16.5 -1.5s10.834 -0.833008 15.501 -1.5
c40.667 -6 68.667 -21.833 84 -47.5s23.333 -57.167 24 -94.5v-290l17 -16l53 -5v-36h-141l-13 58v0zM333.997 92.0068l-0.000976562 176.002c-11.333 -3.33301 -24.5 -7 -39.5 -11s-30.167 -8.66699 -45.5 -14c-30 -10 -57.5 -23.5 -82.5 -40.5s-37.5 -40.167 -37.5 -69.5
c0 -2.66699 0.166992 -5.5 0.5 -8.5s0.833008 -6.16699 1.5 -9.5c4.66699 -24.667 13.667 -42 27 -52s29 -15 47 -15c7.33301 0 14.833 0.666992 22.5 2s15.167 3 22.5 5c10.667 3.33301 21.334 7.16602 32.001 11.499s20.667 9.16602 30 14.499c4 1.33301 7.83301 3 11.5 5
l10.5 6v0zM220.996 736.009h64l110 -190h-54l-88 141l-87 -141h-55l110 190v0z" />
    <glyph glyph-name="atilde" unicode="&#xe3;" horiz-adv-x="507" 
d="M334 58c-24.667 -16 -50.3369 -30.3262 -77.0039 -42.9932s-55.667 -19.334 -87 -20.001c-28.667 -0.666992 -54 6.33301 -76 21s-37.333 36.334 -46 65.001c-0.666992 3.33301 -1.5 6.66602 -2.5 9.99902s-1.5 6.66602 -1.5 9.99902
c-0.666992 3.33301 -1.16699 6.66602 -1.5 9.99902s-0.5 6.66602 -0.5 9.99902c0 22.667 5.83301 43.667 17.5 63s27.834 35.333 48.501 48c14.667 8.66699 32.834 16.834 54.501 24.501s44.167 14.5 67.5 20.5c18.667 5.33301 37 10.166 55 14.499l49 11.5v10
c0 3.33301 0.333008 6.66602 1 9.99902v10.5v10.5c0 17.333 -2 34.166 -6 50.499s-13.667 29.5 -29 39.5c-8 5.33301 -16.5 9 -25.5 11s-18.5 3 -28.5 3h-6h-6c-12 -1.33301 -23.833 -3.5 -35.5 -6.5s-22.5 -6.5 -32.5 -10.5v-84c-2 0 -4.66699 -0.166992 -8 -0.5
s-7 -0.5 -11 -0.5s-8 -0.166992 -12 -0.5s-8 -0.5 -12 -0.5h-2h-2c-10.667 0 -20.667 0.833008 -30 2.5s-15.666 4.83398 -18.999 9.50098c-2 3.33301 -3.33301 6.83301 -4 10.5l-2 10.5v4.5c0 1.66699 0.333008 3.16699 1 4.5c2 10.667 6.5 21.167 13.5 31.5
s14.5 18.833 22.5 25.5c1.33301 1.33301 2.83301 2.66602 4.5 3.99902s3.5 2.66602 5.5 3.99902c18.667 12.667 39 22 61 28s44.333 9.66699 67 11c4 0.666992 7.83301 1 11.5 1h11.5h8h8c5.33301 -0.666992 10.833 -1.16699 16.5 -1.5s10.834 -0.833008 15.501 -1.5
c40.667 -6 68.667 -21.833 84 -47.5s23.333 -57.167 24 -94.5v-290l17 -16l53 -5v-36h-141l-13 58v0zM333.997 92.0068l-0.000976562 176.002c-11.333 -3.33301 -24.5 -7 -39.5 -11s-30.167 -8.66699 -45.5 -14c-30 -10 -57.5 -23.5 -82.5 -40.5s-37.5 -40.167 -37.5 -69.5
c0 -2.66699 0.166992 -5.5 0.5 -8.5s0.833008 -6.16699 1.5 -9.5c4.66699 -24.667 13.667 -42 27 -52s29 -15 47 -15c7.33301 0 14.833 0.666992 22.5 2s15.167 3 22.5 5c10.667 3.33301 21.334 7.16602 32.001 11.499s20.667 9.16602 30 14.499c4 1.33301 7.83301 3 11.5 5
l10.5 6v0zM363.996 708.009l41.001 0.00390625v-2v-1v-2v-2c0 -35.333 -7.5 -62.833 -22.5 -82.5s-35.833 -29.5 -62.5 -29.5c-9.33301 0 -19.333 1.33301 -30 4s-21.667 6.33398 -33 11.001l-13.5 6.5l-15.5 7.5c-2.66699 1.33301 -5.16699 2.66602 -7.5 3.99902
s-4.5 2.33301 -6.5 3c-7.33301 3.33301 -14.333 6.16602 -21 8.49902s-13 3.5 -19 3.5c-8.66699 0 -16.167 -3.5 -22.5 -10.5s-9.5 -19.833 -9.5 -38.5v-4c0 -1.33301 0.333008 -2.33301 1 -3v-4v-4h-43c0.666992 35.333 7.5 64.166 20.5 86.499s32.5 33.833 58.5 34.5
c9.33301 0 19.166 -1.5 29.499 -4.5s21.166 -7.16699 32.499 -12.5c1.33301 -0.666992 2.83301 -1.33398 4.5 -2.00098s3.16699 -1.33398 4.5 -2.00098c2 -1.33301 4 -2.5 6 -3.5s4 -2.16699 6 -3.5l36.5 -17c11.667 -5.33301 21.834 -8 30.501 -8
c10.667 0 19.167 4.83301 25.5 14.5s9.5 27.167 9.5 52.5v0z" />
    <glyph glyph-name="adieresis" unicode="&#xe4;" horiz-adv-x="507" 
d="M334 58c-24.667 -16 -50.3369 -30.3262 -77.0039 -42.9932s-55.667 -19.334 -87 -20.001c-28.667 -0.666992 -54 6.33301 -76 21s-37.333 36.334 -46 65.001c-0.666992 3.33301 -1.5 6.66602 -2.5 9.99902s-1.5 6.66602 -1.5 9.99902
c-0.666992 3.33301 -1.16699 6.66602 -1.5 9.99902s-0.5 6.66602 -0.5 9.99902c0 22.667 5.83301 43.667 17.5 63s27.834 35.333 48.501 48c14.667 8.66699 32.834 16.834 54.501 24.501s44.167 14.5 67.5 20.5c18.667 5.33301 37 10.166 55 14.499l49 11.5v10
c0 3.33301 0.333008 6.66602 1 9.99902v10.5v10.5c0 17.333 -2 34.166 -6 50.499s-13.667 29.5 -29 39.5c-8 5.33301 -16.5 9 -25.5 11s-18.5 3 -28.5 3h-6h-6c-12 -1.33301 -23.833 -3.5 -35.5 -6.5s-22.5 -6.5 -32.5 -10.5v-84c-2 0 -4.66699 -0.166992 -8 -0.5
s-7 -0.5 -11 -0.5s-8 -0.166992 -12 -0.5s-8 -0.5 -12 -0.5h-2h-2c-10.667 0 -20.667 0.833008 -30 2.5s-15.666 4.83398 -18.999 9.50098c-2 3.33301 -3.33301 6.83301 -4 10.5l-2 10.5v4.5c0 1.66699 0.333008 3.16699 1 4.5c2 10.667 6.5 21.167 13.5 31.5
s14.5 18.833 22.5 25.5c1.33301 1.33301 2.83301 2.66602 4.5 3.99902s3.5 2.66602 5.5 3.99902c18.667 12.667 39 22 61 28s44.333 9.66699 67 11c4 0.666992 7.83301 1 11.5 1h11.5h8h8c5.33301 -0.666992 10.833 -1.16699 16.5 -1.5s10.834 -0.833008 15.501 -1.5
c40.667 -6 68.667 -21.833 84 -47.5s23.333 -57.167 24 -94.5v-290l17 -16l53 -5v-36h-141l-13 58v0zM333.997 92.0068l-0.000976562 176.002c-11.333 -3.33301 -24.5 -7 -39.5 -11s-30.167 -8.66699 -45.5 -14c-30 -10 -57.5 -23.5 -82.5 -40.5s-37.5 -40.167 -37.5 -69.5
c0 -2.66699 0.166992 -5.5 0.5 -8.5s0.833008 -6.16699 1.5 -9.5c4.66699 -24.667 13.667 -42 27 -52s29 -15 47 -15c7.33301 0 14.833 0.666992 22.5 2s15.167 3 22.5 5c10.667 3.33301 21.334 7.16602 32.001 11.499s20.667 9.16602 30 14.499c4 1.33301 7.83301 3 11.5 5
l10.5 6v0zM345.996 691.009c16 -0.666992 28.168 -6.16699 36.501 -16.5s12.5 -22.166 12.5 -35.499c0 -11.333 -3.33301 -21.833 -10 -31.5s-17.667 -15.5 -33 -17.5h-2h-2c-0.666992 -0.666992 -1.33398 -1 -2.00098 -1h-2c-15.333 0 -27 5 -35 15s-12.333 21 -13 33v1.5
v1.5c0 13.333 4.16699 25.166 12.5 35.499s20.833 15.5 37.5 15.5v0zM159.997 691.009c16 -0.666992 28.1641 -6.16797 36.4971 -16.501s12.5 -22.166 12.5 -35.499c0 -11.333 -3.33301 -21.833 -10 -31.5s-17.667 -15.5 -33 -17.5h-2h-1h-2h-2
c-15.333 0 -27.166 5.16699 -35.499 15.5s-12.5 21.833 -12.5 34.5v1.5v1.5c0.666992 12 4.83398 23 12.501 33s19.834 15 36.501 15v0z" />
    <glyph glyph-name="aring" unicode="&#xe5;" horiz-adv-x="507" 
d="M418 347l-0.00292969 -289.993l17 -16l53 -5v-36h-141l-13 58c-24.667 -16 -50.334 -30.333 -77.001 -43s-55.667 -19.334 -87 -20.001c-28.667 -0.666992 -54 6.33301 -76 21s-37.333 36.334 -46 65.001c-0.666992 3.33301 -1.5 6.66602 -2.5 9.99902
s-1.5 6.66602 -1.5 9.99902c-0.666992 3.33301 -1.16699 6.66602 -1.5 9.99902s-0.5 6.66602 -0.5 9.99902c0 22.667 5.83301 43.667 17.5 63s27.834 35.333 48.501 48c14.667 8.66699 32.834 16.834 54.501 24.501s44.167 14.5 67.5 20.5
c18.667 5.33301 37 10.166 55 14.499l49 11.5v10c0 3.33301 0.333008 6.66602 1 9.99902v10.5v10.5c0 17.333 -2 34.166 -6 50.499s-13.667 29.5 -29 39.5c-8 5.33301 -16.5 9 -25.5 11s-18.5 3 -28.5 3h-6h-6c-12 -1.33301 -23.833 -3.5 -35.5 -6.5s-22.5 -6.5 -32.5 -10.5
v-84c-2 0 -4.66699 -0.166992 -8 -0.5s-7 -0.5 -11 -0.5s-8 -0.166992 -12 -0.5s-8 -0.5 -12 -0.5h-2h-2c-10.667 0 -20.667 0.833008 -30 2.5s-15.666 4.83398 -18.999 9.50098c-2 3.33301 -3.33301 6.83301 -4 10.5l-2 10.5v4.5c0 1.66699 0.333008 3.16699 1 4.5
c2 10.667 6.5 21.167 13.5 31.5s14.5 18.833 22.5 25.5c1.33301 1.33301 2.83301 2.66602 4.5 3.99902s3.5 2.66602 5.5 3.99902c18.667 12.667 39 22 61 28s44.333 9.66699 67 11c4 0.666992 7.83301 1 11.5 1h11.5h8h8c5.33301 -0.666992 10.833 -1.16699 16.5 -1.5
s10.834 -0.833008 15.501 -1.5c40.667 -6 68.667 -21.833 84 -47.5s23.333 -57.167 24 -94.5v0zM333.997 268.007c-11.333 -3.33301 -24.501 -6.99805 -39.501 -10.998s-30.167 -8.66699 -45.5 -14c-30 -10 -57.5 -23.5 -82.5 -40.5s-37.5 -40.167 -37.5 -69.5
c0 -2.66699 0.166992 -5.5 0.5 -8.5s0.833008 -6.16699 1.5 -9.5c4.66699 -24.667 13.667 -42 27 -52s29 -15 47 -15c7.33301 0 14.833 0.666992 22.5 2s15.167 3 22.5 5c10.667 3.33301 21.334 7.16602 32.001 11.499s20.667 9.16602 30 14.499c4 1.33301 7.83301 3 11.5 5
l10.5 6v176v0zM249.996 781.009c37.333 -0.666992 66.166 -13.332 86.499 -37.999s30.833 -51.667 31.5 -81c0 -21.333 -5.83301 -41.833 -17.5 -61.5s-30.167 -34.834 -55.5 -45.501l-10.5 -4c-3.66699 -1.33301 -7.16699 -2.33301 -10.5 -3
c-4 -0.666992 -7.83301 -1.16699 -11.5 -1.5s-7.16699 -0.5 -10.5 -0.5c-26.667 0 -51.5 8.66699 -74.5 26s-37.167 40.333 -42.5 69c0 2 -0.166992 3.83301 -0.5 5.5s-0.5 3.5 -0.5 5.5c-0.666992 2 -1 3.83301 -1 5.5v5.5c0 31.333 11.333 58.833 34 82.5
s50.334 35.5 83.001 35.5v0zM249.996 737.011c-23.333 0 -40.668 -7.16602 -52.001 -21.499s-17.333 -29.833 -18 -46.5v-1.5v-1.5v-1.5v-1.5c0.666992 -18 6.83398 -34.5 18.501 -49.5s28.167 -22.833 49.5 -23.5c2.66699 0 5.5 0.166992 8.5 0.5s5.83301 0.833008 8.5 1.5
c19.333 4 33.833 12.833 43.5 26.5s14.5 28.167 14.5 43.5c0 19.333 -6.16699 36.666 -18.5 51.999s-30.5 23 -54.5 23v0z" />
    <glyph glyph-name="Otilde" unicode="&#xe6;" horiz-adv-x="724" 
d="M166 347c-2 0 -4.66602 -0.166016 -7.99902 -0.499023s-7 -0.5 -11 -0.5c-4.66699 0 -9.33398 -0.166992 -14.001 -0.5s-9.66699 -0.5 -15 -0.5c-10 0 -19.333 0.666992 -28 2s-14.667 3.66602 -18 6.99902c-2.66699 3.33301 -4.5 6.66602 -5.5 9.99902s-1.5 7 -1.5 11
c0 2.66699 0.166992 5.33398 0.5 8.00098s0.833008 5.33398 1.5 8.00098c2 6.66699 4.33301 13 7 19s5.33398 11 8.00098 15c1.33301 2 2.5 3.5 3.5 4.5s1.83301 2.16699 2.5 3.5c16 17.333 35 30.166 57 38.499s44.667 13.833 68 16.5
c8 1.33301 15.833 2.16602 23.5 2.49902s15.5 0.5 23.5 0.5c28.667 0 53 -3.83301 73 -11.5s37.667 -23.834 53 -48.501c17.333 18.667 38 33.5 62 44.5s48.333 16.5 73 16.5c13.333 0 26.5 -1.5 39.5 -4.5s25.833 -8.16699 38.5 -15.5c32 -17.333 53.333 -41.5 64 -72.5
s17 -63.167 19 -96.5v-8v-8v-6.5v-7.5c-0.666992 -2.66699 -1 -5.16699 -1 -7.5v-7.5h-279v-139c21.333 -20 44.166 -35.833 68.499 -47.5s51.5 -17.5 81.5 -17.5h1.5h1.5c23.333 0 44.333 4.16699 63 12.5s37 19.166 55 32.499c1.33301 1.33301 2.83301 2.5 4.5 3.5
s3.16699 2.16699 4.5 3.5v-55c-26.667 -19.333 -54 -34 -82 -44s-56 -15 -84 -15c-30 0 -59.667 5.83301 -89 17.5s-57.333 29.834 -84 54.501c-26.667 -18.667 -54.334 -34.834 -83.001 -48.501s-60 -20.5 -94 -20.5c-20.667 0 -40.167 3.83301 -58.5 11.5
s-33.166 20.834 -44.499 39.501c-6.66699 11.333 -11.667 22.833 -15 34.5s-5 23.5 -5 35.5c-0.666992 23.333 4.5 45.333 15.5 66s26.833 37.334 47.5 50.001c14.667 8.66699 32.5 16.834 53.5 24.501s42.833 14.5 65.5 20.5c18 5.33301 35.5 10.166 52.5 14.499l46.5 11.5
v9.5c0 3 0.333008 6.16699 1 9.5v10v10v5.5v5.5c-0.666992 16 -3.16699 31.333 -7.5 46s-13.166 26.334 -26.499 35.001c-7.33301 5.33301 -15.333 9 -24 11s-17.667 3 -27 3c-12.667 0 -25.334 -1.66699 -38.001 -5s-24.667 -7.33301 -36 -12v-84v0zM324.001 92.001
l0.000976562 176c-10.667 -3.33301 -22.834 -6.83301 -36.501 -10.5s-27.5 -7.83398 -41.5 -12.501c-29.333 -10.667 -56.333 -24.5 -81 -41.5s-37.334 -40.5 -38.001 -70.5c0 -2.66699 0.166992 -5.5 0.5 -8.5s0.833008 -6.16699 1.5 -9.5c4 -24.667 12.5 -42 25.5 -52
s27.833 -15 44.5 -15c7.33301 0 15 0.666992 23 2s16 3.33301 24 6c10 3.33301 20.333 7.33301 31 12s20.334 9.33398 29.001 14.001l9.5 5.5c3 1.66699 5.83301 3.16699 8.5 4.5v0zM402.002 297.001h190.001v3v3v2.5v2.5c0 6 -0.166992 12 -0.5 18s-0.5 12 -0.5 18
c-2 24 -8.16699 46 -18.5 66s-28.833 31.667 -55.5 35c-0.666992 0 -1.5 0.166992 -2.5 0.5s-1.83301 0.5 -2.5 0.5h-5.5h-4.5c-32.667 0.666992 -55.834 -11 -69.501 -35s-22.5 -50 -26.5 -78l-2 -18l-2 -18v0z" />
    <glyph glyph-name="ccedilla" unicode="&#xe7;" horiz-adv-x="446" 
d="M230 0l36.001 0.00195312v-60c2.66699 1.33301 5.16699 2 7.5 2h7.5c22.667 0 42 -5.83301 58 -17.5s24 -28.834 24 -51.501v-4v-4c-0.666992 -2.66699 -1.16699 -5.33398 -1.5 -8.00098s-0.833008 -5.33398 -1.5 -8.00098c-6 -22.667 -18.167 -39.167 -36.5 -49.5
s-38.166 -16.833 -59.499 -19.5c-2 0 -3.83301 -0.166992 -5.5 -0.5s-3.16699 -0.5 -4.5 -0.5h-4.5h-5.5c-11.333 0 -22.833 1 -34.5 3s-23.167 4.33301 -34.5 7v35c1.33301 0 2.66602 -0.166992 3.99902 -0.5s3 -0.5 5 -0.5c5.33301 -1.33301 11.166 -2.5 17.499 -3.5
s12.833 -1.83301 19.5 -2.5c2 -0.666992 4.33301 -1 7 -1h7c13.333 0 25.5 1.83301 36.5 5.5s19.167 10.834 24.5 21.501c2 4 3.5 7.5 4.5 10.5s1.5 6.16699 1.5 9.5c0.666992 10.667 -4 18.5 -14 23.5s-21 8.16699 -33 9.5h-5.5h-5.5h-4
c-1.33301 0 -2.33301 -0.333008 -3 -1h-3.5h-3.5v105v0zM425.001 42.002c-31.333 -17.333 -60.998 -29.8389 -88.998 -37.5059s-54.333 -11.5 -79 -11.5c-70.667 0 -124.834 25.833 -162.501 77.5s-56.834 108.834 -57.501 171.501v1.5v1.5c0 53.333 14.5 103.333 43.5 150
s73.5 76.334 133.5 89.001c13.333 3.33301 25.833 5.5 37.5 6.5s22.834 1.5 33.501 1.5c41.333 0 73 -8 95 -24s35.333 -33.667 40 -53c1.33301 -3.33301 2.16602 -6.66602 2.49902 -9.99902s0.5 -6.66602 0.5 -9.99902c0 -14.667 -4.5 -27.667 -13.5 -39
s-21.5 -17 -37.5 -17c-6.66699 0 -14.167 1.33301 -22.5 4s-17.166 6.66699 -26.499 12v82c-5.33301 3.33301 -10.833 6 -16.5 8s-11.5 3.33301 -17.5 4c-2.66699 0.666992 -5.5 1.16699 -8.5 1.5s-5.83301 0.5 -8.5 0.5c-10.667 0 -21.167 -1.5 -31.5 -4.5
s-20.166 -7.16699 -29.499 -12.5c-25.333 -14.667 -44.333 -35.5 -57 -62.5s-20.334 -55.167 -23.001 -84.5c-0.666992 -6 -1.16699 -11.833 -1.5 -17.5s-0.5 -11.167 -0.5 -16.5v-16c0 -5.33301 0.333008 -10.666 1 -15.999c4 -57.333 21.5 -99.666 52.5 -126.999
s67.5 -41 109.5 -41c10.667 0 21.667 0.833008 33 2.5s22.666 4.16699 33.999 7.5c10.667 4 21.667 8.5 33 13.5s22.333 10.833 33 17.5v-52v0z" />
    <glyph glyph-name="egrave" unicode="&#xe8;" horiz-adv-x="491" 
d="M448 106v-54.998c-28 -18 -58 -32.333 -90 -43s-64.667 -16 -98 -16c-11.333 0 -22.833 0.666992 -34.5 2s-23.167 3.33301 -34.5 6c-51.333 14.667 -89.5 44.5 -114.5 89.5s-37.833 92.833 -38.5 143.5v2v2c-0.666992 21.333 1.16602 42.166 5.49902 62.499
s10.5 39.833 18.5 58.5c17.333 39.333 43.833 70.666 79.5 93.999s73.167 36.333 112.5 39c2 0.666992 4.16699 1 6.5 1h7.5c25.333 0 49.833 -4.83301 73.5 -14.5s44.834 -24.834 63.501 -45.501c17.333 -19.333 29 -41 35 -65s9 -48.667 9 -74v-7.5v-7.5
c-0.666992 -2.66699 -1 -5.16699 -1 -7.5v-7.5h-325v-14c0 -4.66699 0.333008 -9.33398 1 -14.001c1.33301 -33.333 8.33301 -65.166 21 -95.499s34.667 -54.166 66 -71.499c12.667 -6.66699 25.5 -11.667 38.5 -15s25.833 -5 38.5 -5c28 0 55.667 6 83 18s53 25.333 77 40
v0zM359 305.002l-0.000976562 4.50195v5.5v4.5v4.5c0 10.667 -0.5 21 -1.5 31s-3.5 19.667 -7.5 29c-7.33301 19.333 -19.5 34.333 -36.5 45s-35.5 16 -55.5 16h-4h-4c-2 0 -3.66699 -0.166992 -5 -0.5s-2.66602 -0.5 -3.99902 -0.5
c-34.667 -4.66699 -61.5 -20.834 -80.5 -48.501s-29.833 -57.834 -32.5 -90.501h231v0zM109.999 736.004h99l97 -190h-50l-146 190v0z" />
    <glyph glyph-name="eacute" unicode="&#xe9;" horiz-adv-x="491" 
d="M448 106v-54.998c-28 -18 -58 -32.333 -90 -43s-64.667 -16 -98 -16c-11.333 0 -22.833 0.666992 -34.5 2s-23.167 3.33301 -34.5 6c-51.333 14.667 -89.5 44.5 -114.5 89.5s-37.833 92.833 -38.5 143.5v2v2c-0.666992 21.333 1.16602 42.166 5.49902 62.499
s10.5 39.833 18.5 58.5c17.333 39.333 43.833 70.666 79.5 93.999s73.167 36.333 112.5 39c2 0.666992 4.16699 1 6.5 1h7.5c25.333 0 49.833 -4.83301 73.5 -14.5s44.834 -24.834 63.501 -45.501c17.333 -19.333 29 -41 35 -65s9 -48.667 9 -74v-7.5v-7.5
c-0.666992 -2.66699 -1 -5.16699 -1 -7.5v-7.5h-325v-14c0 -4.66699 0.333008 -9.33398 1 -14.001c1.33301 -33.333 8.33301 -65.166 21 -95.499s34.667 -54.166 66 -71.499c12.667 -6.66699 25.5 -11.667 38.5 -15s25.833 -5 38.5 -5c28 0 55.667 6 83 18s53 25.333 77 40
v0zM359 305.002l-0.000976562 4.50195v5.5v4.5v4.5c0 10.667 -0.5 21 -1.5 31s-3.5 19.667 -7.5 29c-7.33301 19.333 -19.5 34.333 -36.5 45s-35.5 16 -55.5 16h-4h-4c-2 0 -3.66699 -0.166992 -5 -0.5s-2.66602 -0.5 -3.99902 -0.5
c-34.667 -4.66699 -61.5 -20.834 -80.5 -48.501s-29.833 -57.834 -32.5 -90.501h231v0zM314.999 736.004h99l-146 -190h-50l97 190v0z" />
    <glyph glyph-name="ecircumflex" unicode="&#xea;" horiz-adv-x="491" 
d="M448 106v-54.998c-28 -18 -58 -32.333 -90 -43s-64.667 -16 -98 -16c-11.333 0 -22.833 0.666992 -34.5 2s-23.167 3.33301 -34.5 6c-51.333 14.667 -89.5 44.5 -114.5 89.5s-37.833 92.833 -38.5 143.5v2v2c-0.666992 21.333 1.16602 42.166 5.49902 62.499
s10.5 39.833 18.5 58.5c17.333 39.333 43.833 70.666 79.5 93.999s73.167 36.333 112.5 39c2 0.666992 4.16699 1 6.5 1h7.5c25.333 0 49.833 -4.83301 73.5 -14.5s44.834 -24.834 63.501 -45.501c17.333 -19.333 29 -41 35 -65s9 -48.667 9 -74v-7.5v-7.5
c-0.666992 -2.66699 -1 -5.16699 -1 -7.5v-7.5h-325v-14c0 -4.66699 0.333008 -9.33398 1 -14.001c1.33301 -33.333 8.33301 -65.166 21 -95.499s34.667 -54.166 66 -71.499c12.667 -6.66699 25.5 -11.667 38.5 -15s25.833 -5 38.5 -5c28 0 55.667 6 83 18s53 25.333 77 40
v0zM359 305.002l-0.000976562 4.50195v5.5v4.5v4.5c0 10.667 -0.5 21 -1.5 31s-3.5 19.667 -7.5 29c-7.33301 19.333 -19.5 34.333 -36.5 45s-35.5 16 -55.5 16h-4h-4c-2 0 -3.66699 -0.166992 -5 -0.5s-2.66602 -0.5 -3.99902 -0.5
c-34.667 -4.66699 -61.5 -20.834 -80.5 -48.501s-29.833 -57.834 -32.5 -90.501h231v0zM223.999 736.004h64l110 -190h-54l-88 141l-87 -141h-55l110 190v0z" />
    <glyph glyph-name="edieresis" unicode="&#xeb;" horiz-adv-x="491" 
d="M448 106v-54.998c-28 -18 -58 -32.333 -90 -43s-64.667 -16 -98 -16c-11.333 0 -22.833 0.666992 -34.5 2s-23.167 3.33301 -34.5 6c-51.333 14.667 -89.5 44.5 -114.5 89.5s-37.833 92.833 -38.5 143.5v2v2c-0.666992 21.333 1.16602 42.166 5.49902 62.499
s10.5 39.833 18.5 58.5c17.333 39.333 43.833 70.666 79.5 93.999s73.167 36.333 112.5 39c2 0.666992 4.16699 1 6.5 1h7.5c25.333 0 49.833 -4.83301 73.5 -14.5s44.834 -24.834 63.501 -45.501c17.333 -19.333 29 -41 35 -65s9 -48.667 9 -74v-7.5v-7.5
c-0.666992 -2.66699 -1 -5.16699 -1 -7.5v-7.5h-325v-14c0 -4.66699 0.333008 -9.33398 1 -14.001c1.33301 -33.333 8.33301 -65.166 21 -95.499s34.667 -54.166 66 -71.499c12.667 -6.66699 25.5 -11.667 38.5 -15s25.833 -5 38.5 -5c28 0 55.667 6 83 18s53 25.333 77 40
v0zM359 305.002l-0.000976562 4.50195v5.5v4.5v4.5c0 10.667 -0.5 21 -1.5 31s-3.5 19.667 -7.5 29c-7.33301 19.333 -19.5 34.333 -36.5 45s-35.5 16 -55.5 16h-4h-4c-2 0 -3.66699 -0.166992 -5 -0.5s-2.66602 -0.5 -3.99902 -0.5
c-34.667 -4.66699 -61.5 -20.834 -80.5 -48.501s-29.833 -57.834 -32.5 -90.501h231v0zM348.999 691.004c16 -0.666992 28.168 -6.16699 36.501 -16.5s12.5 -22.166 12.5 -35.499c0 -11.333 -3.33301 -21.833 -10 -31.5s-17.667 -15.5 -33 -17.5h-2h-2
c-0.666992 -0.666992 -1.33398 -1 -2.00098 -1h-2c-15.333 0 -27 5 -35 15s-12.333 21 -13 33v1.5v1.5c0 13.333 4.16699 25.166 12.5 35.499s20.833 15.5 37.5 15.5v0zM163 691.004c16 -0.666992 28.1641 -6.16797 36.4971 -16.501s12.5 -22.166 12.5 -35.499
c0 -11.333 -3.33301 -21.833 -10 -31.5s-17.667 -15.5 -33 -17.5h-2h-1h-2h-2c-15.333 0 -27.166 5.16699 -35.499 15.5s-12.5 21.833 -12.5 34.5v1.5v1.5c0.666992 12 4.83398 23 12.501 33s19.834 15 36.501 15v0z" />
    <glyph glyph-name="igrave" unicode="&#xec;" horiz-adv-x="280" 
d="M151 486h38v-429l17 -16l54 -5v-36h-225v36l53 5l17 16v362h-70v31l116 36v0zM-5 736h99l97 -190h-50l-146 190v0z" />
    <glyph glyph-name="iacute" unicode="&#xed;" horiz-adv-x="280" 
d="M151 486h38v-429l17 -16l54 -5v-36h-225v36l53 5l17 16v362h-70v31l116 36v0zM200 736h99l-146 -190h-50l97 190v0z" />
    <glyph glyph-name="icircumflex" unicode="&#xee;" horiz-adv-x="280" 
d="M151 486h38v-429l17 -16l54 -5v-36h-225v36l53 5l17 16v362h-70v31l116 36v0zM109 736h64l110 -190h-54l-88 141l-87 -141h-55l110 190v0z" />
    <glyph glyph-name="idieresis" unicode="&#xef;" horiz-adv-x="280" 
d="M151 486h38v-429l17 -16l54 -5v-36h-225v36l53 5l17 16v362h-70v31l116 36v0zM234 691c16 -0.666992 28.168 -6.16699 36.501 -16.5s12.5 -22.166 12.5 -35.499c0 -11.333 -3.33301 -21.833 -10 -31.5s-17.667 -15.5 -33 -17.5h-2h-2
c-0.666992 -0.666992 -1.33398 -1 -2.00098 -1h-2c-15.333 0 -27 5 -35 15s-12.333 21 -13 33v1.5v1.5c0 13.333 4.16699 25.166 12.5 35.499s20.833 15.5 37.5 15.5v0zM48.001 691c16 -0.666992 28.166 -6.16797 36.499 -16.501s12.5 -22.166 12.5 -35.499
c0 -11.333 -3.33301 -21.833 -10 -31.5s-17.667 -15.5 -33 -17.5h-2h-1h-2h-2c-15.333 0 -27 5.16699 -35 15.5s-12 21.833 -12 34.5v1.5v1.5c-0 12 3.83301 23 11.5 33s19.834 15 36.501 15v0z" />
    <glyph glyph-name="glyph233" unicode="&#xf0;" horiz-adv-x="42" 
 />
    <glyph glyph-name="ntilde" unicode="&#xf1;" horiz-adv-x="568" 
d="M30 0l0.000976562 35.998l54 5l17 16v362h-71v31l116 36h38v-54c3.33301 1.33301 6.5 2.83301 9.5 4.5s5.83301 3.5 8.5 5.5c22.667 12 46.167 23 70.5 33s49.5 15.333 75.5 16c4.66699 0 9.5 -0.166992 14.5 -0.5s9.83301 -1.16602 14.5 -2.49902
c39.333 -6.66699 66.333 -24.167 81 -52.5s22 -60.5 22 -96.5v-282l17 -16l54 -5v-36h-219v36l48 5l17 16v265c0 38.667 -8.83301 65.5 -26.5 80.5s-39.167 22.5 -64.5 22.5c-8.66699 0 -17.834 -0.666992 -27.501 -2s-19.5 -3.33301 -29.5 -6
c-10.667 -3.33301 -21.667 -7.16602 -33 -11.499s-22 -8.83301 -32 -13.5v-335l17 -16l48 -5v-36h-219v0zM384.001 707.998l41.001 0.00390625v-2v-1v-2v-2c0 -35.333 -7.5 -62.833 -22.5 -82.5s-35.833 -29.5 -62.5 -29.5c-9.33301 0 -19.333 1.33301 -30 4
s-21.667 6.33398 -33 11.001l-13.5 6.5l-15.5 7.5c-2.66699 1.33301 -5.16699 2.66602 -7.5 3.99902s-4.5 2.33301 -6.5 3c-7.33301 3.33301 -14.333 6.16602 -21 8.49902s-13 3.5 -19 3.5c-8.66699 0 -16.167 -3.5 -22.5 -10.5s-9.5 -19.833 -9.5 -38.5v-4
c0 -1.33301 0.333008 -2.33301 1 -3v-4v-4h-43c0.666992 35.333 7.5 64.166 20.5 86.499s32.5 33.833 58.5 34.5c9.33301 0 19.166 -1.5 29.499 -4.5s21.166 -7.16699 32.499 -12.5c1.33301 -0.666992 2.83301 -1.33398 4.5 -2.00098s3.16699 -1.33398 4.5 -2.00098
c2 -1.33301 4 -2.5 6 -3.5s4 -2.16699 6 -3.5l36.5 -17c11.667 -5.33301 21.834 -8 30.501 -8c10.667 0 19.167 4.83301 25.5 14.5s9.5 27.167 9.5 52.5v0z" />
    <glyph glyph-name="ograve" unicode="&#xf2;" horiz-adv-x="539" 
d="M269 491c76.667 0 134.332 -25.6689 172.999 -77.002s58.334 -107.666 59.001 -168.999v-1.5v-1.5c0 -62.667 -19.333 -119.834 -58 -171.501s-96.667 -77.5 -174 -77.5c-76.667 0 -134.334 25.667 -173.001 77s-58 108.333 -58 171s19.333 119.834 58 171.501
s96.334 77.834 173.001 78.501v0zM268.998 446.998c-46.667 0 -81.5 -21.5 -104.5 -64.5s-34.833 -90.167 -35.5 -141.5v-1.5v-1.5c0.666992 -50.667 12.667 -97.334 36 -140.001s58 -64 104 -64c46.667 0 81.5 21.5 104.5 64.5s34.5 90.167 34.5 141.5v1.5v1.5
c0 50.667 -11.667 97.334 -35 140.001s-58 64 -104 64v0zM122.998 735.998h99l97 -190h-50l-146 190v0z" />
    <glyph glyph-name="oacute" unicode="&#xf3;" horiz-adv-x="539" 
d="M269 491c76.667 0 134.332 -25.6689 172.999 -77.002s58.334 -107.666 59.001 -168.999v-1.5v-1.5c0 -62.667 -19.333 -119.834 -58 -171.501s-96.667 -77.5 -174 -77.5c-76.667 0 -134.334 25.667 -173.001 77s-58 108.333 -58 171s19.333 119.834 58 171.501
s96.334 77.834 173.001 78.501v0zM268.998 446.998c-46.667 0 -81.5 -21.5 -104.5 -64.5s-34.833 -90.167 -35.5 -141.5v-1.5v-1.5c0.666992 -50.667 12.667 -97.334 36 -140.001s58 -64 104 -64c46.667 0 81.5 21.5 104.5 64.5s34.5 90.167 34.5 141.5v1.5v1.5
c0 50.667 -11.667 97.334 -35 140.001s-58 64 -104 64v0zM327.998 735.998h99l-146 -190h-50l97 190v0z" />
    <glyph glyph-name="ocircumflex" unicode="&#xf4;" horiz-adv-x="539" 
d="M269 491c76.667 0 134.332 -25.6689 172.999 -77.002s58.334 -107.666 59.001 -168.999v-1.5v-1.5c0 -62.667 -19.333 -119.834 -58 -171.501s-96.667 -77.5 -174 -77.5c-76.667 0 -134.334 25.667 -173.001 77s-58 108.333 -58 171s19.333 119.834 58 171.501
s96.334 77.834 173.001 78.501v0zM268.998 446.998c-46.667 0 -81.5 -21.5 -104.5 -64.5s-34.833 -90.167 -35.5 -141.5v-1.5v-1.5c0.666992 -50.667 12.667 -97.334 36 -140.001s58 -64 104 -64c46.667 0 81.5 21.5 104.5 64.5s34.5 90.167 34.5 141.5v1.5v1.5
c0 50.667 -11.667 97.334 -35 140.001s-58 64 -104 64v0zM236.998 735.998h64l110 -190h-54l-88 141l-87 -141h-55l110 190v0z" />
    <glyph glyph-name="otilde" unicode="&#xf5;" horiz-adv-x="539" 
d="M269 491c76.667 0 134.332 -25.6689 172.999 -77.002s58.334 -107.666 59.001 -168.999v-1.5v-1.5c0 -62.667 -19.333 -119.834 -58 -171.501s-96.667 -77.5 -174 -77.5c-76.667 0 -134.334 25.667 -173.001 77s-58 108.333 -58 171s19.333 119.834 58 171.501
s96.334 77.834 173.001 78.501v0zM268.998 446.998c-46.667 0 -81.5 -21.5 -104.5 -64.5s-34.833 -90.167 -35.5 -141.5v-1.5v-1.5c0.666992 -50.667 12.667 -97.334 36 -140.001s58 -64 104 -64c46.667 0 81.5 21.5 104.5 64.5s34.5 90.167 34.5 141.5v1.5v1.5
c0 50.667 -11.667 97.334 -35 140.001s-58 64 -104 64v0zM379.998 707.998l41.001 0.00390625v-2v-1v-2v-2c0 -35.333 -7.5 -62.833 -22.5 -82.5s-35.833 -29.5 -62.5 -29.5c-9.33301 0 -19.333 1.33301 -30 4s-21.667 6.33398 -33 11.001l-13.5 6.5l-15.5 7.5
c-2.66699 1.33301 -5.16699 2.66602 -7.5 3.99902s-4.5 2.33301 -6.5 3c-7.33301 3.33301 -14.333 6.16602 -21 8.49902s-13 3.5 -19 3.5c-8.66699 0 -16.167 -3.5 -22.5 -10.5s-9.5 -19.833 -9.5 -38.5v-4c0 -1.33301 0.333008 -2.33301 1 -3v-4v-4h-43
c0.666992 35.333 7.5 64.166 20.5 86.499s32.5 33.833 58.5 34.5c9.33301 0 19.166 -1.5 29.499 -4.5s21.166 -7.16699 32.499 -12.5c1.33301 -0.666992 2.83301 -1.33398 4.5 -2.00098s3.16699 -1.33398 4.5 -2.00098c2 -1.33301 4 -2.5 6 -3.5s4 -2.16699 6 -3.5l36.5 -17
c11.667 -5.33301 21.834 -8 30.501 -8c10.667 0 19.167 4.83301 25.5 14.5s9.5 27.167 9.5 52.5v0z" />
    <glyph glyph-name="odieresis" unicode="&#xf6;" horiz-adv-x="539" 
d="M269 491c76.667 0 134.332 -25.6689 172.999 -77.002s58.334 -107.666 59.001 -168.999v-1.5v-1.5c0 -62.667 -19.333 -119.834 -58 -171.501s-96.667 -77.5 -174 -77.5c-76.667 0 -134.334 25.667 -173.001 77s-58 108.333 -58 171s19.333 119.834 58 171.501
s96.334 77.834 173.001 78.501v0zM268.998 446.998c-46.667 0 -81.5 -21.5 -104.5 -64.5s-34.833 -90.167 -35.5 -141.5v-1.5v-1.5c0.666992 -50.667 12.667 -97.334 36 -140.001s58 -64 104 -64c46.667 0 81.5 21.5 104.5 64.5s34.5 90.167 34.5 141.5v1.5v1.5
c0 50.667 -11.667 97.334 -35 140.001s-58 64 -104 64v0zM361.998 690.998c16 -0.666992 28.168 -6.16699 36.501 -16.5s12.5 -22.166 12.5 -35.499c0 -11.333 -3.33301 -21.833 -10 -31.5s-17.667 -15.5 -33 -17.5h-2h-2c-0.666992 -0.666992 -1.33398 -1 -2.00098 -1h-2
c-15.333 0 -27 5 -35 15s-12.333 21 -13 33v1.5v1.5c0 13.333 4.16699 25.166 12.5 35.499s20.833 15.5 37.5 15.5v0zM175.999 690.998c16 -0.666992 28.1641 -6.16797 36.4971 -16.501s12.5 -22.166 12.5 -35.499c0 -11.333 -3.33301 -21.833 -10 -31.5
s-17.667 -15.5 -33 -17.5h-2h-1h-2h-2c-15.333 0 -27.166 5.16699 -35.499 15.5s-12.5 21.833 -12.5 34.5v1.5v1.5c0.666992 12 4.83398 23 12.501 33s19.834 15 36.501 15v0z" />
    <glyph glyph-name="Aacute" unicode="&#xf7;" 
 />
    <glyph glyph-name="OE" unicode="&#xf8;" horiz-adv-x="539" 
d="M423 560l33.998 -19.0039l-52 -93c19.333 -16 36.5 -33.5 51.5 -52.5s26.167 -40.833 33.5 -65.5c4 -14 7.16699 -28.333 9.5 -43s3.5 -29.667 3.5 -45c0 -24.667 -3 -49.167 -9 -73.5s-15.333 -47.166 -28 -68.499c-22 -36 -50.333 -62.833 -85 -80.5
s-71.334 -26.5 -110.001 -26.5c-19.333 0 -38.666 2.16699 -57.999 6.5s-38.333 10.833 -57 19.5l-58 -98l-32 20l58 101c-13.333 12.667 -25.833 26 -37.5 40s-21.167 29.333 -28.5 46c-7.33301 17.333 -12.833 35.333 -16.5 54s-5.5 37.667 -5.5 57
c0 25.333 3 50.333 9 75s15.333 47.334 28 68.001c21.333 36 49.833 62.833 85.5 80.5s72.834 26.834 111.501 27.501c17.333 0 34.333 -1.66699 51 -5s33.334 -8.66602 50.001 -15.999l52 91v0zM370.998 391.996l-185.001 -323.001c12.667 -11.333 26.5 -20 41.5 -26
s30.167 -9 45.5 -9c16.667 0 32.834 3.66699 48.501 11s29.5 18.333 41.5 33c17.333 21.333 29.833 45.333 37.5 72s11.5 54.334 11.5 83.001s-3.5 56.667 -10.5 84s-17.167 52.333 -30.5 75v0zM343.997 421.995c-9.33301 6.66699 -19.1641 11.8311 -29.4971 15.498
s-20.5 6.16699 -30.5 7.5c-2.66699 0.666992 -5.33398 1 -8.00098 1h-8c-16.667 0 -33.167 -3.5 -49.5 -10.5s-30.5 -18.167 -42.5 -33.5c-16.667 -20.667 -28.834 -44.167 -36.501 -70.5s-11.5 -53.166 -11.5 -80.499v-8.5v-8.5
c1.33301 -22.667 4.66602 -45.167 9.99902 -67.5s12.333 -43.166 21 -62.499l185 318v0z" />
    <glyph glyph-name="ugrave" unicode="&#xf9;" horiz-adv-x="569" 
d="M142 491l38 0.000976562v-331c0 -39.333 9.16699 -66.666 27.5 -81.999s40.833 -23 67.5 -23c8.66699 0 17.5 0.5 26.5 1.5s18.167 2.5 27.5 4.5c10.667 2.66699 21.5 6 32.5 10s21.5 8.33301 31.5 13v339h-70v31l115 37h38v-434l18 -16l47 -5v-36h-148v56
c-24 -16.667 -49.5 -31.334 -76.5 -44.001s-55.167 -19.334 -84.5 -20.001h-3.5h-3.5c-1.33301 0.666992 -2.5 1 -3.5 1h-3.5c-44.667 2.66699 -76 18.167 -94 46.5s-27 62.833 -27 103.5v280h-71v31l116 37v0zM138 736.001h99l97 -190h-50l-146 190v0z" />
    <glyph glyph-name="uacute" unicode="&#xfa;" horiz-adv-x="569" 
d="M142 491l38 0.000976562v-331c0 -39.333 9.16699 -66.666 27.5 -81.999s40.833 -23 67.5 -23c8.66699 0 17.5 0.5 26.5 1.5s18.167 2.5 27.5 4.5c10.667 2.66699 21.5 6 32.5 10s21.5 8.33301 31.5 13v339h-70v31l115 37h38v-434l18 -16l47 -5v-36h-148v56
c-24 -16.667 -49.5 -31.334 -76.5 -44.001s-55.167 -19.334 -84.5 -20.001h-3.5h-3.5c-1.33301 0.666992 -2.5 1 -3.5 1h-3.5c-44.667 2.66699 -76 18.167 -94 46.5s-27 62.833 -27 103.5v280h-71v31l116 37v0zM343 736.001h99l-146 -190h-50l97 190v0z" />
    <glyph glyph-name="ucircumflex" unicode="&#xfb;" horiz-adv-x="569" 
d="M142 491l38 0.000976562v-331c0 -39.333 9.16699 -66.666 27.5 -81.999s40.833 -23 67.5 -23c8.66699 0 17.5 0.5 26.5 1.5s18.167 2.5 27.5 4.5c10.667 2.66699 21.5 6 32.5 10s21.5 8.33301 31.5 13v339h-70v31l115 37h38v-434l18 -16l47 -5v-36h-148v56
c-24 -16.667 -49.5 -31.334 -76.5 -44.001s-55.167 -19.334 -84.5 -20.001h-3.5h-3.5c-1.33301 0.666992 -2.5 1 -3.5 1h-3.5c-44.667 2.66699 -76 18.167 -94 46.5s-27 62.833 -27 103.5v280h-71v31l116 37v0zM252 736.001h64l110 -190h-54l-88 141l-87 -141h-55l110 190v0
z" />
    <glyph glyph-name="udieresis" unicode="&#xfc;" horiz-adv-x="569" 
d="M142 491l38 0.000976562v-331c0 -39.333 9.16699 -66.666 27.5 -81.999s40.833 -23 67.5 -23c8.66699 0 17.5 0.5 26.5 1.5s18.167 2.5 27.5 4.5c10.667 2.66699 21.5 6 32.5 10s21.5 8.33301 31.5 13v339h-70v31l115 37h38v-434l18 -16l47 -5v-36h-148v56
c-24 -16.667 -49.5 -31.334 -76.5 -44.001s-55.167 -19.334 -84.5 -20.001h-3.5h-3.5c-1.33301 0.666992 -2.5 1 -3.5 1h-3.5c-44.667 2.66699 -76 18.167 -94 46.5s-27 62.833 -27 103.5v280h-71v31l116 37v0zM377 691.001c16 -0.666992 28.168 -6.16699 36.501 -16.5
s12.5 -22.166 12.5 -35.499c0 -11.333 -3.33301 -21.833 -10 -31.5s-17.667 -15.5 -33 -17.5h-2h-2c-0.666992 -0.666992 -1.33398 -1 -2.00098 -1h-2c-15.333 0 -27 5 -35 15s-12.333 21 -13 33v1.5v1.5c0 13.333 4.16699 25.166 12.5 35.499s20.833 15.5 37.5 15.5v0z
M191.001 691.001c16 -0.666992 28.1641 -6.16797 36.4971 -16.501s12.5 -22.166 12.5 -35.499c0 -11.333 -3.33301 -21.833 -10 -31.5s-17.667 -15.5 -33 -17.5h-2h-1h-2h-2c-15.333 0 -27.166 5.16699 -35.499 15.5s-12.5 21.833 -12.5 34.5v1.5v1.5
c0.666992 12 4.83398 23 12.501 33s19.834 15 36.501 15v0z" />
    <glyph glyph-name="yacute" unicode="&#xfd;" 
 />
    <glyph glyph-name="glyph237" unicode="&#xfe;" horiz-adv-x="-32258" 
 />
    <glyph glyph-name="Egrave" unicode="&#xff;" horiz-adv-x="495" 
d="M0 481l215.999 0.000976562v-37l-53 -4l-12 -16l120 -311l125 311l-8 16l-54 4v37h178v-37l-58 -8l-200 -485c-4 -8 -8.33301 -17.167 -13 -27.5s-9.66699 -20.833 -15 -31.5c-14.667 -26.667 -32.667 -51.334 -54 -74.001s-46.666 -34 -75.999 -34
c-4.66699 0 -9.5 0.333008 -14.5 1s-10.167 1.66699 -15.5 3c-14.667 4.66699 -25.167 11.334 -31.5 20.001s-9.5 18.334 -9.5 29.001c0 3.33301 0.333008 6.66602 1 9.99902l2 10c2 6.66699 5 13.167 9 19.5s8.66699 12.166 14 17.499l95 -39c16 18 29.667 37.333 41 58
s21.333 41.667 30 63c2 4.66699 3.83301 9.5 5.5 14.5s3.5 9.5 5.5 13.5l-168 434l-60 6v37v0zM340.999 691.001c16 -0.666992 28.168 -6.16699 36.501 -16.5s12.5 -22.166 12.5 -35.499c0 -11.333 -3.33301 -21.833 -10 -31.5s-17.667 -15.5 -33 -17.5h-2h-2
c-0.666992 -0.666992 -1.33398 -1 -2.00098 -1h-2c-15.333 0 -27 5 -35 15s-12.333 21 -13 33v1.5v1.5c0 13.333 4.16699 25.166 12.5 35.499s20.833 15.5 37.5 15.5v0zM155 691.001c16 -0.666992 28.1641 -6.16797 36.4971 -16.501s12.5 -22.166 12.5 -35.499
c0 -11.333 -3.33301 -21.833 -10 -31.5s-17.667 -15.5 -33 -17.5h-2h-1h-2h-2c-15.333 0 -27.166 5.16699 -35.499 15.5s-12.5 21.833 -12.5 34.5v1.5v1.5c0.666992 12 4.83398 23 12.501 33s19.834 15 36.501 15v0z" />
    <glyph glyph-name="Abreve" unicode="&#x102;" 
 />
    <glyph glyph-name="abreve" unicode="&#x103;" 
 />
    <glyph glyph-name="Aogonek" unicode="&#x104;" 
 />
    <glyph glyph-name="aogonek" unicode="&#x105;" 
 />
    <glyph glyph-name="Cacute" unicode="&#x106;" 
 />
    <glyph glyph-name="cacute" unicode="&#x107;" 
 />
    <glyph glyph-name="Ccaron" unicode="&#x10c;" 
 />
    <glyph glyph-name="ccaron" unicode="&#x10d;" 
 />
    <glyph glyph-name="Dcaron" unicode="&#x10e;" 
 />
    <glyph glyph-name="dcaron" unicode="&#x10f;" 
 />
    <glyph glyph-name="Dcroat" unicode="&#x110;" 
 />
    <glyph glyph-name="dcroat" unicode="&#x111;" 
 />
    <glyph glyph-name="Eogonek" unicode="&#x118;" 
 />
    <glyph glyph-name="eogonek" unicode="&#x119;" 
 />
    <glyph glyph-name="Ecaron" unicode="&#x11a;" 
 />
    <glyph glyph-name="ecaron" unicode="&#x11b;" 
 />
    <glyph glyph-name="Gbreve" unicode="&#x11e;" 
 />
    <glyph glyph-name="gbreve" unicode="&#x11f;" 
 />
    <glyph glyph-name="Idotaccent" unicode="&#x130;" 
 />
    <glyph glyph-name="thorn" unicode="&#x131;" horiz-adv-x="-32719" 
 />
    <glyph glyph-name="Lacute" unicode="&#x139;" 
 />
    <glyph glyph-name="lacute" unicode="&#x13a;" 
 />
    <glyph glyph-name="Lcaron" unicode="&#x13d;" 
 />
    <glyph glyph-name="lcaron" unicode="&#x13e;" 
 />
    <glyph glyph-name="Ldot" unicode="&#x13f;" 
 />
    <glyph glyph-name="ldot" unicode="&#x140;" 
 />
    <glyph glyph-name="glyph225" unicode="&#x141;" 
 />
    <glyph glyph-name="glyph226" unicode="&#x142;" 
 />
    <glyph glyph-name="Nacute" unicode="&#x143;" 
 />
    <glyph glyph-name="nacute" unicode="&#x144;" 
 />
    <glyph glyph-name="Ncaron" unicode="&#x147;" 
 />
    <glyph glyph-name="ncaron" unicode="&#x148;" 
 />
    <glyph glyph-name="Ohungarumlaut" unicode="&#x150;" 
 />
    <glyph glyph-name="ohungarumlaut" unicode="&#x151;" 
 />
    <glyph glyph-name="fi" unicode="&#x152;" horiz-adv-x="993" 
d="M553 549v121.998h376v-146h-56l-14 85l-14 15h-208v-253h140l15 14l10 73h47v-220h-47l-10 72l-15 15h-140v-280h244l15 17l16 100h53v-163h-412v123c-25.333 -42.667 -54.666 -74.167 -87.999 -94.5s-75.666 -31.833 -126.999 -34.5
c-98.667 0 -172.334 35.833 -221.001 107.5s-73.334 150.834 -74.001 237.501c0 17.333 1 34.833 3 52.5s5 34.834 9 51.501c17.333 70.667 52.5 127.667 105.5 171s113.833 65 182.5 65c8.66699 0 17.5 -0.333008 26.5 -1s17.833 -1.66699 26.5 -3
c38 -6.66699 69.667 -21 95 -43s46 -49.667 62 -83v0zM350 626.998c-69.333 0 -120.832 -29.499 -154.499 -88.499s-50.834 -124.5 -51.501 -196.5v-4.5v-4.5c1.33301 -72 19 -138 53 -198s83.333 -90.333 148 -91c9.33301 0 18.5 0.666992 27.5 2s18.5 3.33301 28.5 6
c51.333 14.667 89.833 49.667 115.5 105s38.5 114.666 38.5 177.999v1.5v1.5c-0.666992 72 -18 138 -52 198s-85 90.333 -153 91v0z" />
    <glyph glyph-name="fl" unicode="&#x153;" horiz-adv-x="817" 
d="M775 263l-298.004 0.000976562c0 -5.33301 0.166992 -10.833 0.5 -16.5s0.833008 -11.167 1.5 -16.5c3.33301 -40.667 15.166 -78.5 35.499 -113.5s53.5 -55.5 99.5 -61.5c4.66699 -0.666992 9 -1.16699 13 -1.5s8 -0.5 12 -0.5c22.667 0 44 4.33301 64 13
s39.667 19 59 31c2 2 4.16699 3.66699 6.5 5s4.5 2.66602 6.5 3.99902v-55c-24.667 -17.333 -50.5 -31.5 -77.5 -42.5s-55.833 -16.5 -86.5 -16.5h-2h-2h-2h-2c-38 1.33301 -70.333 10.666 -97 27.999s-50.667 40.666 -72 69.999c-22.667 -28.667 -47.667 -52 -75 -70
s-60.666 -27 -99.999 -27c-59.333 0 -109.166 20.5 -149.499 61.5s-63.833 89.833 -70.5 146.5l-2 21c-0.666992 6.66699 -1 13.334 -1 20.001c0 78 23.333 139.167 70 183.5s98.334 66.5 155.001 66.5h8.5c3 0 6.16699 -0.333008 9.5 -1
c29.333 -2.66699 58.166 -12 86.499 -28s53.166 -39.333 74.499 -70c12.667 20 27.334 37.667 44.001 53s36.334 27 59.001 35c6.66699 2 13.5 3.83301 20.5 5.5s14.167 2.83398 21.5 3.50098c3.33301 0 6.83301 0.166992 10.5 0.5s7.16699 0.5 10.5 0.5
c14.667 0 28.834 -1.5 42.501 -4.5s26.834 -7.83301 39.501 -14.5c33.333 -17.333 56 -41.833 68 -73.5s18.667 -64.5 20 -98.5v-5.5v-5.5v-6.5v-6.5c-0.666992 -2.66699 -1 -5 -1 -7v-6v0zM260.996 447.001c-43.333 0 -75.999 -21.001 -97.999 -63.001
s-33.333 -88.333 -34 -139v-1.5v-1.5c0 -52 11 -99.667 33 -143s55 -65 99 -65c43.333 0 76 21.5 98 64.5s33 90.167 33 141.5v1.5v1.5c-0.666992 50.667 -11.834 97.334 -33.501 140.001s-54.167 64 -97.5 64v0zM685.997 305c0 6 -0.166992 12.167 -0.5 18.5
s-0.833008 12.5 -1.5 18.5c-2 24 -8.33301 46.333 -19 67s-30 32.667 -58 36c-2 0.666992 -4 1 -6 1h-6c-30 0 -53.333 -11.167 -70 -33.5s-28.667 -46.833 -36 -73.5l-4 -17.5c-1.33301 -5.66699 -2.33301 -11.167 -3 -16.5h204v0z" />
    <glyph glyph-name="Racute" unicode="&#x154;" 
 />
    <glyph glyph-name="racute" unicode="&#x155;" 
 />
    <glyph glyph-name="Rcaron" unicode="&#x158;" 
 />
    <glyph glyph-name="rcaron" unicode="&#x159;" 
 />
    <glyph glyph-name="Sacute" unicode="&#x15a;" 
 />
    <glyph glyph-name="sacute" unicode="&#x15b;" 
 />
    <glyph glyph-name="Scedilla" unicode="&#x15e;" 
 />
    <glyph glyph-name="scedilla" unicode="&#x15f;" 
 />
    <glyph glyph-name="glyph227" unicode="&#x160;" horiz-adv-x="556" 
d="M60 20v176.002h59l12 -115l13 -17c15.333 -6.66699 32.5 -12.334 51.5 -17.001s38.833 -7 59.5 -7c21.333 0 42.166 2.83301 62.499 8.5s37.5 14.834 51.5 27.501c12 11.333 21.5 24.833 28.5 40.5s10.5 31.834 10.5 48.501c0 10 -1.33301 19.833 -4 29.5
s-6.66699 18.834 -12 27.501c-9.33301 14 -23.5 26.5 -42.5 37.5s-38.833 21.167 -59.5 30.5l-43.5 17c-14.333 5.33301 -26.833 10.333 -37.5 15c-32.667 14 -62.834 33 -90.501 57s-43.167 55.333 -46.5 94c0 1.33301 -0.166992 2.66602 -0.5 3.99902s-0.5 3 -0.5 5v4v4
c0 30 6.83301 58.5 20.5 85.5s32.834 49.167 57.501 66.5c22.667 15.333 47 26.166 73 32.499s52.333 9.5 79 9.5c7.33301 0 14.666 -0.166992 21.999 -0.5s14.666 -0.833008 21.999 -1.5c22 -2.66699 43.833 -6.33398 65.5 -11.001s42.167 -10 61.5 -16v-155h-52l-15 95
c-12 13.333 -27.167 23.166 -45.5 29.499s-37.166 9.5 -56.499 9.5h-7.5c-2.33301 0 -4.5 -0.333008 -6.5 -1c-10 -0.666992 -19.667 -2 -29 -4s-18.333 -4.66699 -27 -8c-21.333 -8.66699 -38.166 -23.167 -50.499 -43.5s-18.5 -42.166 -18.5 -65.499
c0 -26.667 8.5 -48.5 25.5 -65.5s36.833 -30.833 59.5 -41.5c8 -4 16.333 -7.83301 25 -11.5l26 -10.5c6 -2 12 -4.16699 18 -6.5s12 -4.83301 18 -7.5c33.333 -13.333 64.833 -29.5 94.5 -48.5s50.167 -46.5 61.5 -82.5c2.66699 -8 4.5 -16 5.5 -24s1.5 -16.333 1.5 -25
c0 -26.667 -5.5 -52.334 -16.5 -77.001s-26.833 -45.667 -47.5 -63c-26.667 -21.333 -57.5 -36.666 -92.5 -45.999s-71.167 -14 -108.5 -14h-7.5h-7.5c-28 0.666992 -55.667 3.66699 -83 9s-52.666 12.666 -75.999 21.999v0zM135 932.002h55l87 -141l88 141h54l-110 -190
h-64l-110 190v0z" />
    <glyph glyph-name="glyph228" unicode="&#x161;" horiz-adv-x="401" 
d="M344 469l-0.00195312 -113h-49l-8 71c-8 4 -17.167 7.83301 -27.5 11.5s-21.166 6.16699 -32.499 7.5c-3.33301 0.666992 -6.83301 1.16699 -10.5 1.5s-7.16699 0.5 -10.5 0.5c-14.667 0 -28.167 -2.83301 -40.5 -8.5s-22.166 -16.167 -29.499 -31.5
c-2.66699 -5.33301 -4.5 -10.5 -5.5 -15.5s-1.5 -10.167 -1.5 -15.5c-0.666992 -21.333 8 -39.333 26 -54s37.667 -27.334 59 -38.001l30 -13.5c10 -4.33301 19 -8.5 27 -12.5c26.667 -12.667 47.834 -27.834 63.501 -45.501s23.834 -41.834 24.501 -72.501
c0 -26 -5.66699 -49.667 -17 -71s-28.333 -38.666 -51 -51.999c-16.667 -10 -35.667 -17 -57 -21s-43 -6 -65 -6c-22.667 -0.666992 -44.834 1 -66.501 5s-41.834 9.33301 -60.501 16v130h48l12 -85c9.33301 -4.66699 19.833 -8.83398 31.5 -12.501
s23.167 -6.16699 34.5 -7.5c4 -0.666992 8 -1.16699 12 -1.5s8 -0.5 12 -0.5c21.333 0 40.666 5 57.999 15s27.333 28.333 30 55c0 1.33301 0.166992 2.33301 0.5 3s0.5 1.66699 0.5 3v2.5v2.5c0 24.667 -10.167 44.5 -30.5 59.5s-42.833 27.833 -67.5 38.5l-18.5 8
c-6.33301 2.66699 -12.166 5.33398 -17.499 8.00098c-6.66699 2.66699 -13.167 5.5 -19.5 8.5s-11.833 6.16699 -16.5 9.5c-19.333 12.667 -34 27.834 -44 45.501s-15.667 35.834 -17 54.501v4v4c-0.666992 23.333 5.5 45.5 18.5 66.5s32.167 37.833 57.5 50.5
c14.667 6.66699 30.167 11.5 46.5 14.5s32.833 4.5 49.5 4.5h6.5h6.5c19.333 -0.666992 38.333 -3.16699 57 -7.5s36 -9.5 52 -15.5v0zM58.998 736h55l87 -141l88 141h54l-110 -190h-64l-110 190v0z" />
    <glyph glyph-name="Tcommaaccent" unicode="&#x162;" 
 />
    <glyph glyph-name="tcommaaccent" unicode="&#x163;" 
 />
    <glyph glyph-name="Tcaron" unicode="&#x164;" 
 />
    <glyph glyph-name="tcaron" unicode="&#x165;" 
 />
    <glyph glyph-name="Uring" unicode="&#x16e;" 
 />
    <glyph glyph-name="uring" unicode="&#x16f;" 
 />
    <glyph glyph-name="Uhungarumlaut" unicode="&#x170;" 
 />
    <glyph glyph-name="uhungarumlaut" unicode="&#x171;" 
 />
    <glyph glyph-name="Iacute" unicode="&#x178;" horiz-adv-x="586" 
d="M-12 671h231v-40l-57 -6l-10 -11l153 -275l168 267l-9 14l-61 11v40h204v-40l-61 -13l-208 -333v-225l16 -14l68 -5v-41h-259v41l68 5l16 14v212l-199 349l-60 10v40v0zM385 887c16 -0.666992 28.168 -6.16699 36.501 -16.5s12.5 -22.166 12.5 -35.499
c0 -11.333 -3.33301 -21.833 -10 -31.5s-17.667 -15.5 -33 -17.5h-2h-2c-0.666992 -0.666992 -1.33398 -1 -2.00098 -1h-2c-15.333 0 -27 5 -35 15s-12.333 21 -13 33v1.5v1.5c0 13.333 4.16699 25.166 12.5 35.499s20.833 15.5 37.5 15.5v0zM199.001 887
c16 -0.666992 28.1641 -6.16797 36.4971 -16.501s12.5 -22.166 12.5 -35.499c0 -11.333 -3.33301 -21.833 -10 -31.5s-17.667 -15.5 -33 -17.5h-2h-1h-2h-2c-15.333 0 -27.166 5.16699 -35.499 15.5s-12.5 21.833 -12.5 34.5v1.5v1.5c0.666992 12 4.83398 23 12.501 33
s19.834 15 36.501 15v0z" />
    <glyph glyph-name="Zacute" unicode="&#x179;" 
 />
    <glyph glyph-name="zacute" unicode="&#x17a;" 
 />
    <glyph glyph-name="Zdotaccent" unicode="&#x17b;" 
 />
    <glyph glyph-name="zdotaccent" unicode="&#x17c;" 
 />
    <glyph glyph-name="Zcaron" unicode="&#x17d;" 
 />
    <glyph glyph-name="zcaron" unicode="&#x17e;" 
 />
    <glyph glyph-name="quotedblright" unicode="&#x192;" horiz-adv-x="556" 
d="M462 561l-85.002 72.002c-16.667 -7.33301 -30.667 -16.833 -42 -28.5s-19.666 -26.5 -24.999 -44.5c-4.66699 -16 -7.83398 -32.333 -9.50098 -49s-2.5 -33.667 -2.5 -51c0 -8 0.166992 -15.833 0.5 -23.5s0.5 -15.167 0.5 -22.5c0 -8 0.166992 -15.833 0.5 -23.5
s0.5 -15.167 0.5 -22.5h162v-49h-162v-28.5c0 -9.66699 0.333008 -19.5 1 -29.5c0 -14.667 0.166992 -29.5 0.5 -44.5s0.166016 -30.167 -0.500977 -45.5c-0.666992 -34 -3 -67.333 -7 -100s-11.667 -62 -23 -88c-16 -39.333 -41.833 -74.333 -77.5 -105
s-76.167 -45.667 -121.5 -45c-21.333 0.666992 -37.5 6.5 -48.5 17.5s-16.5 23.833 -16.5 38.5v4v4c1.33301 10 4.83301 19.5 10.5 28.5s13.834 17.167 24.501 24.5l102 -58c36.667 24.667 58.334 55.5 65.001 92.5s10 75.5 10 115.5v219h-115v49h115v15v15
c-0.666992 41.333 1.5 81.166 6.5 119.499s23.833 73.166 56.5 104.499c18 17.333 39.167 31.833 63.5 43.5s49.5 17.5 75.5 17.5c4 0 8 -0.166992 12 -0.5s8 -0.833008 12 -1.5c20.667 -4 36.167 -11 46.5 -21s15.5 -21.667 15.5 -35c0 -2.66699 -0.166992 -5.5 -0.5 -8.5
s-1.16602 -5.83301 -2.49902 -8.5c-2.66699 -8 -7.5 -16.167 -14.5 -24.5s-16.167 -15.833 -27.5 -22.5v0z" />
    <glyph glyph-name="uni02BA" unicode="&#x2ba;" horiz-adv-x="-32735" 
 />
    <glyph glyph-name="arrowright" unicode="&#x2c6;" horiz-adv-x="3864" 
 />
    <glyph glyph-name="glyph224" unicode="&#x2c7;" horiz-adv-x="3872" 
 />
    <glyph glyph-name="house" unicode="&#x2c9;" horiz-adv-x="4502" 
 />
    <glyph glyph-name="endash" unicode="&#x2d8;" horiz-adv-x="-25484" 
 />
    <glyph glyph-name="sfthyphen" unicode="&#x2d9;" horiz-adv-x="-25484" 
 />
    <glyph glyph-name="filledbox" unicode="&#x2da;" horiz-adv-x="2" 
 />
    <glyph glyph-name="glyph223" unicode="&#x2db;" horiz-adv-x="1" 
 />
    <glyph glyph-name="onehalf" unicode="&#x2dc;" horiz-adv-x="3" 
 />
    <glyph glyph-name="Gamma" unicode="&#x393;" 
 />
    <glyph glyph-name="Theta" unicode="&#x398;" 
 />
    <glyph glyph-name="exclamdown" unicode="&#x3a3;" 
 />
    <glyph glyph-name="Phi" unicode="&#x3a6;" 
 />
    <glyph glyph-name="Atilde" unicode="&#x3a9;" 
 />
    <glyph glyph-name="alpha" unicode="&#x3b1;" 
 />
    <glyph glyph-name="delta" unicode="&#x3b4;" 
 />
    <glyph glyph-name="epsilon" unicode="&#x3b5;" 
 />
    <glyph glyph-name="guillemotleft" unicode="&#x3c0;" 
 />
    <glyph glyph-name="sigma" unicode="&#x3c3;" 
 />
    <glyph glyph-name="tau" unicode="&#x3c4;" 
 />
    <glyph glyph-name="phi" unicode="&#x3c6;" 
 />
    <glyph glyph-name="glyph259" unicode="&#x2013;" horiz-adv-x="500" 
d="M0 271h500v-61h-500v61v0z" />
    <glyph glyph-name="periodcentered" unicode="&#x2014;" horiz-adv-x="1000" 
d="M0 210v61h1000v-61h-1000v0z" />
    <glyph glyph-name="underscoredbl" unicode="&#x2017;" 
 />
    <glyph glyph-name="Acircumflex" unicode="&#x2018;" horiz-adv-x="1" 
 />
    <glyph glyph-name="Ecircumflex" unicode="&#x2019;" horiz-adv-x="-30520" 
 />
    <glyph glyph-name="Ugrave" unicode="&#x201a;" 
 />
    <glyph glyph-name="quotedblbase" unicode="&#x201c;" horiz-adv-x="403" 
d="M131 713l43 0.000976562c-2 -2.66699 -4.16699 -5.16699 -6.5 -7.5s-4.5 -4.83301 -6.5 -7.5c-18 -21.333 -33.5 -43.333 -46.5 -66s-19.5 -48 -19.5 -76v-5.5v-4.5c0 -1.33301 0.166992 -2.83301 0.5 -4.5s0.5 -3.5 0.5 -5.5h64c4 -6.66699 7 -13.167 9 -19.5
s3 -12.5 3 -18.5c0 -15.333 -5.5 -28.5 -16.5 -39.5s-25.5 -16.5 -43.5 -16.5h-6.5c-2.33301 0 -4.83301 0.333008 -7.5 1c-21.333 4 -36.833 14.333 -46.5 31s-15.167 34.667 -16.5 54v3.5v3.5v0.5v1.5v1.5v0.5c1.33301 35.333 11.833 67.166 31.5 95.499
s41.167 54.5 64.5 78.5v0zM332 713.001l43.001 0.000976562c-20 -23.333 -38.167 -47.666 -54.5 -72.999s-24.5 -53.333 -24.5 -84v-5.5v-4.5c0 -1.33301 0.166992 -2.83301 0.5 -4.5s0.5 -3.5 0.5 -5.5h65c4 -6.66699 7 -13.167 9 -19.5s3 -12.5 3 -18.5
c0 -15.333 -5.5 -28.5 -16.5 -39.5s-25.833 -16.5 -44.5 -16.5h-6.5c-2.33301 0 -4.83301 0.333008 -7.5 1c-18.667 3.33301 -33.167 12.666 -43.5 27.999s-16.166 32 -17.499 50c-0.666992 2 -1 4 -1 6v6v3.5v2.5c1.33301 35.333 11.666 67.166 30.999 95.499
s40.666 54.5 63.999 78.5v0z" />
    <glyph glyph-name="perthousand" unicode="&#x201d;" horiz-adv-x="403" 
d="M74 442h-42.998l9.5 11c3 3.33301 5.83301 7 8.5 11c16.667 20.667 31 41.834 43 63.501s18 45.834 18 72.501v4.5v5.5c0 1.33301 -0.166992 2.83301 -0.5 4.5s-0.5 3.16699 -0.5 4.5h-65c-4 6.66699 -7 13 -9 19s-3 12 -3 18c0 16 5.66699 29.5 17 40.5
s25.666 16.5 42.999 16.5c2.66699 0 5.33398 -0.166992 8.00098 -0.5s5.33398 -0.833008 8.00098 -1.5c1.33301 0 2.66602 -0.166992 3.99902 -0.5s2.66602 -0.833008 3.99902 -1.5c16.667 -4.66699 29.167 -14.334 37.5 -29.001s13.5 -30 15.5 -46v-5.5v-5.5v-2v-1v-2v-2
c-0.666992 -34.667 -10.834 -66.334 -30.501 -95.001s-41.167 -55 -64.5 -79v0zM275.002 442l-42.9971 0.00195312c20 23.333 38.167 47.666 54.5 72.999s24.5 53.333 24.5 84v5.5v4.5c0 1.33301 -0.166992 2.83301 -0.5 4.5s-0.5 3.5 -0.5 5.5h-64
c-4.66699 6.66699 -8 13.167 -10 19.5s-3 12.5 -3 18.5c0 15.333 5.66699 28.5 17 39.5s25.666 16.5 42.999 16.5c4 0 8 -0.333008 12 -1s8.33301 -1.66699 13 -3c17.333 -5.33301 30.166 -15.5 38.499 -30.5s13.166 -30.833 14.499 -47.5v-5.5v-5.5v-2v-2
c-1.33301 -34.667 -11.833 -66.334 -31.5 -95.001s-41.167 -55 -64.5 -79v0z" />
    <glyph glyph-name="dotlessi" unicode="&#x201e;" horiz-adv-x="403" 
d="M74 -163l-42.999 0.00195312l15 18.5l14 17.5c14 18 25.833 36.5 35.5 55.5s14.5 40.167 14.5 63.5v10c0 3.33301 -0.333008 6.66602 -1 9.99902h-64c-4.66699 6.66699 -7.83398 13.167 -9.50098 19.5s-2.5 12.5 -2.5 18.5c-0.666992 15.333 4.83301 28.5 16.5 39.5
s26.167 16.833 43.5 17.5c4 0 8 -0.333008 12 -1s8 -1.66699 12 -3c16 -4.66699 28.167 -13.667 36.5 -27s13.5 -27.666 15.5 -42.999c0 -2.66699 0.166992 -5.33398 0.5 -8.00098s0.5 -5.33398 0.5 -8.00098v-2v-1v-2v-2c-1.33301 -34.667 -11.833 -66 -31.5 -94
s-41.167 -54 -64.5 -78v-1zM276.001 -162.998l-43 -0.000976562c4.66699 6 9.33398 11.667 14.001 17s9 10.666 13 15.999c14.667 18.667 27 37.834 37 57.501s15 41.834 15 66.501v8.5c0 3 -0.333008 6.16699 -1 9.5h-65c-4.66699 6.66699 -7.83398 13.167 -9.50098 19.5
s-2.5 12.5 -2.5 18.5c-0.666992 15.333 4.83301 28.5 16.5 39.5s26.167 16.833 43.5 17.5c4 0 8 -0.333008 12 -1s8 -1.66699 12 -3c17.333 -5.33301 30.166 -15.5 38.499 -30.5s13.166 -30.833 14.499 -47.5v-5.5v-5.5v-0.5v-1.5v-1.5v-0.5
c-1.33301 -34.667 -11.666 -66 -30.999 -94s-40.666 -54 -63.999 -78v-1z" />
    <glyph glyph-name="dagger" unicode="&#x2020;" horiz-adv-x="500" 
d="M243 460h14l42 -166l-42 -422h-14l-41 422l41 166v0zM88 528l144 -40v-16l-144 -34l-71 45l71 45v0zM410 528l73 -45l-73 -45l-141 34v16l141 40v0zM249 718l45 -76l-37 -140h-14l-38 140l44 76v0z" />
    <glyph glyph-name="Uacute" unicode="&#x2021;" horiz-adv-x="491" 
d="M448 106v-54.998c-28 -18 -58 -32.333 -90 -43s-64.667 -16 -98 -16c-11.333 0 -22.833 0.666992 -34.5 2s-23.167 3.33301 -34.5 6c-51.333 14.667 -89.5 44.5 -114.5 89.5s-37.833 92.833 -38.5 143.5v2v2c-0.666992 21.333 1.16602 42.166 5.49902 62.499
s10.5 39.833 18.5 58.5c17.333 39.333 43.833 70.666 79.5 93.999s73.167 36.333 112.5 39c2 0.666992 4.16699 1 6.5 1h7.5c25.333 0 49.833 -4.83301 73.5 -14.5s44.834 -24.834 63.501 -45.501c17.333 -19.333 29 -41 35 -65s9 -48.667 9 -74v-7.5v-7.5
c-0.666992 -2.66699 -1 -5.16699 -1 -7.5v-7.5h-325v-14c0 -4.66699 0.333008 -9.33398 1 -14.001c1.33301 -33.333 8.33301 -65.166 21 -95.499s34.667 -54.166 66 -71.499c12.667 -6.66699 25.5 -11.667 38.5 -15s25.833 -5 38.5 -5c28 0 55.667 6 83 18s53 25.333 77 40
v0zM359 305.002l-0.000976562 4.50195v5.5v4.5v4.5c0 10.667 -0.5 21 -1.5 31s-3.5 19.667 -7.5 29c-7.33301 19.333 -19.5 34.333 -36.5 45s-35.5 16 -55.5 16h-4h-4c-2 0 -3.66699 -0.166992 -5 -0.5s-2.66602 -0.5 -3.99902 -0.5
c-34.667 -4.66699 -61.5 -20.834 -80.5 -48.501s-29.833 -57.834 -32.5 -90.501h231v0zM113.999 736.004h55l87 -141l88 141h54l-110 -190h-64l-110 190v0z" />
    <glyph glyph-name="glyph262" unicode="&#x2022;" horiz-adv-x="687" 
d="M112 426c20 49.333 51.333 87.6699 94 115.003s88.334 41 137.001 41c4 0 8 -0.166992 12 -0.5s8 -0.5 12 -0.5c19.333 -2 38.666 -6.16699 57.999 -12.5s38 -15.5 56 -27.5c35.333 -22.667 62.5 -52.834 81.5 -90.501s28.5 -76.834 28.5 -117.501
c0 -5.33301 -0.166992 -10.5 -0.5 -15.5s-0.833008 -10.167 -1.5 -15.5c-1.33301 -10.667 -3.33301 -21.167 -6 -31.5s-6 -20.5 -10 -30.5c-19.333 -47.333 -50.333 -85 -93 -113s-89 -42 -139 -42h-11.5c-3.66699 0 -7.5 0.333008 -11.5 1c-4 0 -7.83301 0.333008 -11.5 1
l-11.5 2c-59.333 11.333 -107.5 41 -144.5 89s-55.5 100.333 -55.5 157c0 15.333 1.33301 30.666 4 45.999s7 30.333 13 45v0z" />
    <glyph glyph-name="fraction" unicode="&#x2026;" horiz-adv-x="1000" 
d="M166 118c20.667 0 36.1641 -6.5 46.4971 -19.5s15.5 -27.167 15.5 -42.5c0.666992 -16 -4.16602 -30.5 -14.499 -43.5s-26.166 -19.5 -47.499 -19.5c-20.667 0 -36.167 6.33301 -46.5 19s-15.5 26.667 -15.5 42c-0.666992 16 4.33301 30.667 15 44s26.334 20 47.001 20v0
zM498.997 118c20.667 0 36.1641 -6.5 46.4971 -19.5s15.5 -27.167 15.5 -42.5c0.666992 -16 -4.16602 -30.5 -14.499 -43.5s-26.166 -19.5 -47.499 -19.5c-20.667 0 -36.167 6.33301 -46.5 19s-15.5 26.667 -15.5 42c-0.666992 16 4.33301 30.667 15 44s26.334 20 47.001 20
v0zM831.994 118c20.667 0 36.1641 -6.5 46.4971 -19.5s15.5 -27.167 15.5 -42.5c0.666992 -16 -4.16602 -30.5 -14.499 -43.5s-26.166 -19.5 -47.499 -19.5c-20.667 0 -36.167 6.33301 -46.5 19s-15.5 26.667 -15.5 42c-0.666992 16 4.33301 30.667 15 44
s26.334 20 47.001 20v0z" />
    <glyph glyph-name="circumflex" unicode="&#x2030;" horiz-adv-x="1224" 
d="M671 407c50.667 0 88.332 -21.501 112.999 -64.501s37.334 -90.167 38.001 -141.5v-1.5v-1.5c0.666992 -45.333 -8.16602 -87.666 -26.499 -126.999s-45.833 -64.333 -82.5 -75c-8 -2.66699 -15.667 -4.5 -23 -5.5s-14.666 -1.5 -21.999 -1.5
c-48.667 0 -85.5 21.5 -110.5 64.5s-37.833 90.5 -38.5 142.5v1.5v1.5c-0.666992 52.667 11.666 100.5 36.999 143.5s63.666 64.5 114.999 64.5v0zM668.998 371.999c-26 -0.666992 -44.501 -13.833 -55.501 -39.5s-17.833 -53.834 -20.5 -84.501
c-0.666992 -7.33301 -1.16699 -14.666 -1.5 -21.999s-0.5 -14.333 -0.5 -21c0 -12.667 0.333008 -24.5 1 -35.5s1.33398 -20.167 2.00098 -27.5c0.666992 -6.66699 1.5 -13.667 2.5 -21s2.5 -14.666 4.5 -21.999c4 -18.667 11.167 -35.834 21.5 -51.501
s25.833 -23.5 46.5 -23.5c24.667 0 42.5 10.333 53.5 31s18.5 43.334 22.5 68.001c2 14 3.16699 27.667 3.5 41s0.5 24.666 0.5 33.999s-0.166992 20.666 -0.5 33.999s-1.83301 27 -4.5 41c-3.33301 24.667 -10.5 47.334 -21.5 68.001s-28.833 31 -53.5 31v0zM1043 407
c51.333 0 89.333 -21.667 114 -65s37 -91.333 37 -144c0 -45.333 -9.16699 -87.833 -27.5 -127.5s-45.5 -64.5 -81.5 -74.5c-8 -2.66699 -15.667 -4.5 -23 -5.5s-14.666 -1.5 -21.999 -1.5c-48.667 0 -85.667 22 -111 66s-38.333 92.333 -39 145c0 52 12.667 99.5 38 142.5
s63.666 64.5 114.999 64.5v0zM1041 372c-26 -0.666992 -44.502 -13.833 -55.502 -39.5s-17.833 -53.834 -20.5 -84.501c-0.666992 -7.33301 -1.16699 -14.666 -1.5 -21.999s-0.5 -14.333 -0.5 -21c0 -12.667 0.333008 -24.5 1 -35.5s1.33398 -20.167 2.00098 -27.5
c0.666992 -6.66699 1.5 -13.667 2.5 -21s2.5 -14.666 4.5 -21.999c4.66699 -18.667 12.167 -35.834 22.5 -51.501s25.833 -23.5 46.5 -23.5c24.667 0 42.334 10.333 53.001 31s18 43.334 22 68.001c2 14 3.16699 27.667 3.5 41s0.5 24.666 0.5 33.999
s-0.166992 20.666 -0.5 33.999s-1.5 27 -3.5 41c-4 24.667 -11.5 47.334 -22.5 68.001s-28.833 31 -53.5 31v0zM607.995 671.001h61l-428 -671h-60l427 671v0zM180.995 683.001c50.667 0 88.3301 -21.5 112.997 -64.5s37.334 -90.167 38.001 -141.5v-1.5v-1.5
c0.666992 -45.333 -8.16602 -87.833 -26.499 -127.5s-45.833 -65.167 -82.5 -76.5c-8 -2.66699 -15.667 -4.5 -23 -5.5s-14.666 -1.5 -21.999 -1.5c-48.667 0 -85.667 22.167 -111 66.5s-38 92.833 -38 145.5c0 52 12.5 99.667 37.5 143s63.167 65 114.5 65v0z
M178.991 647.001c-26.667 0 -45.333 -12.833 -56 -38.5s-17.334 -53.834 -20.001 -84.501c-0.666992 -7.33301 -1.16699 -14.666 -1.5 -21.999s-0.5 -14.333 -0.5 -21c0 -12.667 0.333008 -24.5 1 -35.5s1.33398 -20.167 2.00098 -27.5c0.666992 -6 1.5 -12.667 2.5 -20
s2.16699 -14.666 3.5 -21.999c4.66699 -18.667 12.167 -36 22.5 -52s25.833 -24 46.5 -24c24.667 0 42.5 10.167 53.5 30.5s18.5 42.5 22.5 66.5c2 14.667 3.16699 28.667 3.5 42s0.5 24.666 0.5 33.999s-0.166992 20.666 -0.5 33.999s-1.5 27 -3.5 41
c-4 24.667 -11.5 47.334 -22.5 68.001s-28.833 31 -53.5 31v0z" />
    <glyph glyph-name="Igrave" unicode="&#x2039;" horiz-adv-x="245" 
d="M203 413v-66l-117 -107l117 -108v-65l-164 133v80l164 133v0z" />
    <glyph glyph-name="Oacute" unicode="&#x203a;" horiz-adv-x="245" 
d="M46 413l163 -133v-80l-163 -133v65l117 108l-117 107v66v0z" />
    <glyph glyph-name="exclamdbl" unicode="&#x203c;" 
 />
    <glyph glyph-name="uni207F" unicode="&#x207f;" 
 />
    <glyph glyph-name="franc" unicode="&#x20a3;" 
 />
    <glyph glyph-name="peseta" unicode="&#x20a7;" 
 />
    <glyph glyph-name="trademark" unicode="&#x2122;" horiz-adv-x="822" 
d="M256 639v-214l38 -4v-22h-122v21l39 4v215h-52l-8 -6l-6 -40h-27v69h229v-69h-26l-6 40l-7 6h-52v0zM378 399v22l31 4v209l-32 5v23h102v-12l68 -180l69 179v13h99v-23l-31 -5v-209l31 -5v-21h-106v21l30 5v212l-92 -238h-22l-88 238v-212l31 -4v-22h-90v0z" />
    <glyph glyph-name="arrowleft" unicode="&#x2190;" 
 />
    <glyph glyph-name="arrowup" unicode="&#x2191;" 
 />
    <glyph glyph-name="glyph257" unicode="&#x2192;" horiz-adv-x="602" 
d="M93 552l416 -218l-416 -219v437v0z" />
    <glyph glyph-name="arrowdown" unicode="&#x2193;" 
 />
    <glyph glyph-name="arrowboth" unicode="&#x2194;" 
 />
    <glyph glyph-name="arrowupdn" unicode="&#x2195;" 
 />
    <glyph glyph-name="arrowupdnbse" unicode="&#x21a8;" 
 />
    <glyph glyph-name="questiondown" unicode="&#x2202;" 
 />
    <glyph glyph-name="quoteright" unicode="&#x2206;" 
 />
    <glyph glyph-name="florin" unicode="&#x220f;" 
 />
    <glyph glyph-name="minus" unicode="&#x2212;" 
 />
    <glyph glyph-name="Icircumflex" unicode="&#x2215;" horiz-adv-x="42" 
 />
    <glyph glyph-name="Ucircumflex" unicode="&#x2219;" horiz-adv-x="279" 
 />
    <glyph glyph-name="quotedblleft" unicode="&#x221a;" 
 />
    <glyph glyph-name="yen" unicode="&#x221e;" 
 />
    <glyph glyph-name="orthogonal" unicode="&#x221f;" 
 />
    <glyph glyph-name="intersection" unicode="&#x2229;" 
 />
    <glyph glyph-name="guillemotright" unicode="&#x222b;" 
 />
    <glyph glyph-name="quoteleft" unicode="&#x2248;" 
 />
    <glyph glyph-name="AE" unicode="&#x2260;" 
 />
    <glyph glyph-name="equivalence" unicode="&#x2261;" 
 />
    <glyph glyph-name="ordfeminine" unicode="&#x2264;" 
 />
    <glyph glyph-name="ordmasculine" unicode="&#x2265;" 
 />
    <glyph glyph-name="glyph258" unicode="&#x2302;" horiz-adv-x="500" 
d="M102 -105h301v-51h-301v51v0z" />
    <glyph glyph-name="revlogicalnot" unicode="&#x2310;" 
 />
    <glyph glyph-name="integraltp" unicode="&#x2320;" 
 />
    <glyph glyph-name="integralbt" unicode="&#x2321;" 
 />
    <glyph glyph-name="SF100000" unicode="&#x2500;" 
 />
    <glyph glyph-name="SF110000" unicode="&#x2502;" 
 />
    <glyph glyph-name="SF010000" unicode="&#x250c;" 
 />
    <glyph glyph-name="SF030000" unicode="&#x2510;" 
 />
    <glyph glyph-name="SF020000" unicode="&#x2514;" 
 />
    <glyph glyph-name="SF040000" unicode="&#x2518;" 
 />
    <glyph glyph-name="SF080000" unicode="&#x251c;" 
 />
    <glyph glyph-name="SF090000" unicode="&#x2524;" 
 />
    <glyph glyph-name="SF060000" unicode="&#x252c;" 
 />
    <glyph glyph-name="SF070000" unicode="&#x2534;" 
 />
    <glyph glyph-name="SF050000" unicode="&#x253c;" 
 />
    <glyph glyph-name="SF430000" unicode="&#x2550;" 
 />
    <glyph glyph-name="SF240000" unicode="&#x2551;" 
 />
    <glyph glyph-name="SF510000" unicode="&#x2552;" 
 />
    <glyph glyph-name="SF520000" unicode="&#x2553;" 
 />
    <glyph glyph-name="SF390000" unicode="&#x2554;" 
 />
    <glyph glyph-name="SF220000" unicode="&#x2555;" 
 />
    <glyph glyph-name="SF210000" unicode="&#x2556;" 
 />
    <glyph glyph-name="SF250000" unicode="&#x2557;" 
 />
    <glyph glyph-name="SF500000" unicode="&#x2558;" 
 />
    <glyph glyph-name="SF490000" unicode="&#x2559;" 
 />
    <glyph glyph-name="SF380000" unicode="&#x255a;" 
 />
    <glyph glyph-name="SF280000" unicode="&#x255b;" 
 />
    <glyph glyph-name="SF270000" unicode="&#x255c;" 
 />
    <glyph glyph-name="SF260000" unicode="&#x255d;" 
 />
    <glyph glyph-name="SF360000" unicode="&#x255e;" 
 />
    <glyph glyph-name="SF370000" unicode="&#x255f;" 
 />
    <glyph glyph-name="SF420000" unicode="&#x2560;" 
 />
    <glyph glyph-name="SF190000" unicode="&#x2561;" 
 />
    <glyph glyph-name="SF200000" unicode="&#x2562;" 
 />
    <glyph glyph-name="SF230000" unicode="&#x2563;" 
 />
    <glyph glyph-name="SF470000" unicode="&#x2564;" 
 />
    <glyph glyph-name="SF480000" unicode="&#x2565;" 
 />
    <glyph glyph-name="SF410000" unicode="&#x2566;" 
 />
    <glyph glyph-name="SF450000" unicode="&#x2567;" 
 />
    <glyph glyph-name="SF460000" unicode="&#x2568;" 
 />
    <glyph glyph-name="SF400000" unicode="&#x2569;" 
 />
    <glyph glyph-name="SF540000" unicode="&#x256a;" 
 />
    <glyph glyph-name="SF530000" unicode="&#x256b;" 
 />
    <glyph glyph-name="SF440000" unicode="&#x256c;" 
 />
    <glyph glyph-name="upblock" unicode="&#x2580;" 
 />
    <glyph glyph-name="dnblock" unicode="&#x2584;" 
 />
    <glyph glyph-name="block" unicode="&#x2588;" 
 />
    <glyph glyph-name="lfblock" unicode="&#x258c;" 
 />
    <glyph glyph-name="rtblock" unicode="&#x2590;" 
 />
    <glyph glyph-name="ltshade" unicode="&#x2591;" 
 />
    <glyph glyph-name="shade" unicode="&#x2592;" 
 />
    <glyph glyph-name="dkshade" unicode="&#x2593;" 
 />
    <glyph glyph-name="glyph261" unicode="&#x25a0;" horiz-adv-x="1000" 
d="M65 699h870v-869h-870v869v0zM120 644v-759h761v759h-761v0z" />
    <glyph glyph-name="filledrect" unicode="&#x25ac;" 
 />
    <glyph glyph-name="triagup" unicode="&#x25b2;" 
 />
    <glyph glyph-name="triagrt" unicode="&#x25ba;" 
 />
    <glyph glyph-name="triagdn" unicode="&#x25bc;" 
 />
    <glyph glyph-name="triaglf" unicode="&#x25c4;" 
 />
    <glyph glyph-name="Edieresis" unicode="&#x25ca;" 
 />
    <glyph glyph-name="circle" unicode="&#x25cb;" 
 />
    <glyph glyph-name="invbullet" unicode="&#x25d8;" 
 />
    <glyph glyph-name="invcircle" unicode="&#x25d9;" 
 />
    <glyph glyph-name="smileface" unicode="&#x263a;" 
 />
    <glyph glyph-name="invsmileface" unicode="&#x263b;" 
 />
    <glyph glyph-name="sun" unicode="&#x263c;" 
 />
    <glyph glyph-name="female" unicode="&#x2640;" 
 />
    <glyph glyph-name="male" unicode="&#x2642;" 
 />
    <glyph glyph-name="spade" unicode="&#x2660;" 
 />
    <glyph glyph-name="club" unicode="&#x2663;" 
 />
    <glyph glyph-name="heart" unicode="&#x2665;" 
 />
    <glyph glyph-name="diamond" unicode="&#x2666;" 
 />
    <glyph glyph-name="musicalnote" unicode="&#x266a;" 
 />
    <glyph glyph-name="musicalnotedbl" unicode="&#x266b;" 
 />
    <glyph glyph-name="Scaron" unicode="&#xf000;" 
 />
    <glyph glyph-name="Ocircumflex" unicode="&#xf001;" horiz-adv-x="-25552" 
 />
    <glyph glyph-name="Ograve" unicode="&#xf002;" horiz-adv-x="-32268" 
 />
    <glyph glyph-name="glyph1" horiz-adv-x="0" 
 />
    <glyph glyph-name="glyph2" horiz-adv-x="278" 
 />
    <glyph glyph-name="degree" horiz-adv-x="329" 
d="M165 710c37.333 0 69.498 -13.6689 96.498 -41.002s40.5 -59.666 40.5 -96.999s-13.667 -69.666 -41 -96.999s-59.666 -41 -96.999 -41c-32 0 -60.833 10.333 -86.5 31s-41.5 47 -47.5 79l-2 13.5c-0.666992 4.33301 -1 8.5 -1 12.5c0 37.333 13.333 70 40 98
s59.334 42 98.001 42v0zM164.998 669.998c-32 0 -56 -10.166 -72 -30.499s-24.333 -42.833 -25 -67.5v-1.5v-1.5c0.666992 -24 9 -46 25 -66s40 -30 72 -30s56 10.167 72 30.5s24 42.833 24 67.5c0.666992 25.333 -7 48.166 -23 68.499s-40.333 30.5 -73 30.5v0z" />
    <glyph glyph-name="bullet" horiz-adv-x="6436" 
 />
    <glyph glyph-name="daggerdbl" horiz-adv-x="-25484" 
 />
  </font>
</defs>
</svg>
